<?xml version="1.0" encoding="UTF-8"?>
<svg xmlns="http://www.w3.org/2000/svg" id="Layer_2" data-name="Layer 2" viewBox="0 0 12.15 18.43">
  <defs>
    <style>
      .cls-1 {
        stroke: #0b3b3c;
        stroke-miterlimit: 10;
        stroke-width: .5px;
      }

      .cls-1, .cls-2 {
        fill: #0b3b3c;
      }

      .cls-2 {
        stroke-width: 0px;
      }
    </style>
  </defs>
  <g id="Layer_1-2" data-name="Layer 1">
    <g>
      <path class="cls-1" d="M4.56,10.9c-.14.14-.33.22-.54.22s-.39-.08-.54-.22c-.1-.1-.27-.1-.37,0-.1.1-.1.27,0,.37.24.24.57.38.91.38s.67-.13.91-.38c.1-.1.1-.27,0-.37-.1-.1-.27-.1-.37,0Z"></path>
      <path class="cls-1" d="M8.37,10.9c-.14.14-.33.22-.54.22s-.39-.08-.54-.22c-.1-.1-.27-.1-.37,0-.1.1-.1.27,0,.37.24.24.57.38.91.38s.67-.13.91-.38c.1-.1.1-.27,0-.37-.1-.1-.27-.1-.37,0Z"></path>
      <path class="cls-1" d="M2.28,3.48c.14.02.28-.08.29-.23.11-.86.75-1.73,1.53-2.11,1.12-.54,2.52-.49,3.72.15.72.38,1.27.86,1.6,1.39.13.21.23.5.3.86.02.13.13.21.26.21.16,0,.29-.15.26-.31-.08-.42-.2-.77-.36-1.04-.38-.62-.98-1.16-1.8-1.59C6.72.12,5.15.06,3.88.67c-.95.46-1.69,1.47-1.83,2.51-.02.14.08.28.23.29Z"></path>
      <path class="cls-1" d="M11.09,11.54c0-.48-.04-.95-.09-1.4l-.02-.17.17-.36c.66-1.38.56-3.1-.24-4.38-.74-1.18-1.98-1.93-2.98-2.54-.5-.3-1.03-.66-1.57-.89-.45-.19-.95-.31-1.44-.25-.53.06-1,.34-1.32.76-.2.26-.32.57-.37.89-.61.34-1.18.76-1.67,1.26C.22,5.82-.13,7.89.69,9.62l.16.34-.02.18c-.08.87-.16,1.88.02,2.86.02.13.13.22.26.22.02,0,.03,0,.05,0,.14-.03.24-.16.21-.31-.17-.91-.1-1.88-.02-2.72l.02-.21c.05-.12.1-.25.14-.37.11-.33.22-.64.44-.83.45-.4,1.03-.68,1.58-.95l.1-.05c.74-.36,1.54-.77,2.25-1.3.48.3.93.57,1.39.82.13.07.29.02.36-.1.07-.13.02-.29-.1-.36-.82-.45-1.65-.96-2.61-1.63-.67-.46-1.06-.84-1.16-1.47-.06-.39.03-.78.27-1.09.55-.74,1.48-.64,2.23-.31.48.22.96.55,1.41.82,1,.6,2.13,1.29,2.8,2.36.68,1.09.79,2.53.29,3.72-.11-.31-.25-.62-.51-.85-.51-.45-1.12-.74-1.65-1-.13-.06-.29,0-.35.12-.06.13,0,.29.12.35.51.24,1.08.52,1.53.92.22.19.32.5.44.83.04.11.08.23.13.35l.02.24c.04.43.08.88.08,1.35-.48.11-.83.54-.83,1.05,0,.41.23.77.57.95-.02.07-.05.14-.07.21-.56,1.44-1.99,2.72-3.14,3.44-.31.19-.88.47-1.16.47h0c-.29,0-.85-.27-1.16-.47-.38-.24-.74-.5-1.08-.78.18-.19.29-.45.29-.74,0-.6-.49-1.08-1.08-1.08-.26,0-.5.09-.68.24-.2-.29-.37-.58-.5-.86-.06-.13-.22-.19-.35-.13-.13.06-.19.22-.13.35.16.36.39.73.65,1.09-.05.12-.07.26-.07.39,0,.6.49,1.08,1.08,1.08.11,0,.22-.02.33-.05.39.34.81.65,1.26.93.04.02.88.55,1.44.55,0,0,0,0,0,0,.56,0,1.4-.52,1.44-.55,1.59-.99,2.84-2.37,3.36-3.7.03-.09.07-.18.09-.27,0,0,0,0,0,0,.6,0,1.08-.49,1.08-1.08,0-.5-.34-.93-.81-1.05h0ZM4.62,5.63c.28.19.54.37.8.54-.64.45-1.34.77-2.03,1.13-.59.32-1.28.62-1.79,1.07-.26.23-.4.54-.51.85-.63-1.5-.31-3.24.84-4.4.39-.39.83-.73,1.31-1.02.15.9.76,1.39,1.38,1.82h0ZM2.89,16.23c-.31,0-.56-.25-.56-.56s.25-.56.56-.56.56.25.56.56-.25.56-.56.56h0ZM10.82,13.15c-.31,0-.56-.25-.56-.56s.25-.56.56-.56.56.25.56.56c0,.31-.25.56-.56.56Z"></path>
      <path class="cls-2" d="M2.77,12.93c0,.45.37.82.82.82s.82-.37.82-.82-.37-.82-.82-.82c-.45,0-.82.37-.82.82h0ZM3.58,12.64c.16,0,.29.13.29.29s-.13.29-.29.29-.29-.13-.29-.29.13-.29.29-.29Z"></path>
      <path class="cls-2" d="M6.75,8.09c-.45,0-.82.37-.82.82s.37.82.82.82.82-.37.82-.82c0-.45-.37-.82-.82-.82h0ZM6.75,9.19c-.16,0-.29-.13-.29-.29s.13-.29.29-.29.29.13.29.29-.13.29-.29.29Z"></path>
      <path class="cls-2" d="M7.64,14.18c0,.45.37.82.82.82s.82-.37.82-.82-.37-.82-.82-.82-.82.37-.82.82h0ZM8.75,14.18c0,.16-.13.29-.29.29s-.29-.13-.29-.29.13-.29.29-.29c.16,0,.29.13.29.29Z"></path>
      <path class="cls-1" d="M4.82,14.69c-.09.11-.07.28.05.37.05.04.1.05.16.05.08,0,.16-.04.21-.1.23-.29.42-.41.68-.41s.46.12.69.41c.09.11.26.13.37.04.11-.09.13-.26.04-.37-.23-.28-.56-.6-1.1-.6s-.9.35-1.1.62h0Z"></path>
    </g>
  </g>
</svg>
