<?xml version="1.0" encoding="UTF-8"?>
<svg xmlns="http://www.w3.org/2000/svg" id="Layer_2" data-name="Layer 2" viewBox="0 0 14.26 18.19">
  <defs>
    <style>
      .cls-1 {
        fill: #0b3b3c;
        stroke: #0b3b3c;
        stroke-linecap: round;
        stroke-linejoin: round;
        stroke-width: .25px;
      }
    </style>
  </defs>
  <g id="Layer_1-2" data-name="Layer 1">
    <g>
      <path class="cls-1" d="M5.44,6.02c-.15,0-.26.12-.26.26v.28c0,.15.12.26.26.26s.26-.12.26-.26v-.28c0-.15-.12-.26-.26-.26Z"></path>
      <path class="cls-1" d="M8.81,6.83c.15,0,.26-.12.26-.26v-.28c0-.15-.12-.26-.26-.26s-.26.12-.26.26v.28c0,.15.12.26.26.26Z"></path>
      <path class="cls-1" d="M7.79,8.72c.05.05.12.08.18.08s.14-.03.19-.08c.1-.1.1-.27,0-.37-.23-.22-.61-.36-1.03-.36s-.8.13-1.03.36c-.1.1-.1.27,0,.37s.27.1.37,0c.1-.09.33-.21.66-.21s.56.11.66.21Z"></path>
      <path class="cls-1" d="M12.73,12.98l-1.91-.56-.66-.66c-.22-.22-.53-.29-.81-.21v-1.21c.88-.61,1.49-1.57,1.65-2.67h.16c.51,0,.95-.38,1-.87.03-.27-.06-.54-.24-.75-.15-.17-.35-.27-.57-.31l.17-2.25c.38-.36.63-.86.63-1.43,0-1.07-.87-1.95-1.95-1.95h-4.46c-.87,0-1.7.37-2.28,1.01-.58.64-.86,1.5-.78,2.37l.23,2.26c-.43.08-.77.42-.81.85-.03.27.06.54.24.75.18.2.44.32.72.32h.2c.15,1.1.77,2.06,1.65,2.67v1.21c-.28-.08-.59,0-.81.21l-.66.66-1.91.56c-.82.24-1.4,1.01-1.4,1.87v2.95c0,.15.12.26.26.26s.26-.12.26-.26v-2.95c0-.63.42-1.19,1.02-1.36l1.68-.5,1.6,1.4c.21.18.47.27.73.27.28,0,.57-.11.78-.32l.4-.4v3.86c0,.15.12.26.26.26s.26-.12.26-.26v-3.86l.4.4c.21.21.5.32.78.32.26,0,.52-.09.73-.27l.37-.32c.11-.1.12-.26.02-.37-.1-.11-.26-.12-.37-.02l-.37.32c-.23.2-.58.19-.79-.03l-.62-.62,1.88-1.25c.12-.08.28-.06.38.04l.6.6-.22.19c-.11.1-.12.26-.02.37.1.11.26.12.37.02l.38-.33,1.68.5c.6.18,1.02.74,1.02,1.36v2.95c0,.15.12.26.26.26s.26-.12.26-.26v-2.95c0-.86-.57-1.63-1.4-1.87h0ZM10.82,5.74h-.04c-.16,0-.3-.13-.3-.3v-1.44c.17-.02.33-.07.48-.14l-.14,1.88ZM3.74,7.13c0-.15-.12-.26-.26-.26s-.26.12-.26.26v.02h-.16c-.12,0-.24-.05-.33-.14-.08-.09-.12-.21-.11-.34.02-.22.23-.39.48-.39h.38c.45,0,.82-.37.82-.82v-1.23c0-.47.39-.86.86-.86h1.1c.15,0,.26-.12.26-.26s-.12-.26-.26-.26h-1.1c-.76,0-1.39.62-1.39,1.39v1.23c0,.16-.13.3-.3.3h-.04l-.23-2.29c-.07-.71.16-1.43.65-1.96.48-.53,1.17-.84,1.89-.84h4.46c.78,0,1.42.64,1.42,1.42s-.64,1.42-1.42,1.42c-.51,0-.98-.28-1.24-.72-.07-.13-.23-.17-.36-.1-.13.07-.17.23-.1.36.02.03.03.06.05.08-.09.06-.21.1-.32.1-.32,0-.58-.26-.58-.58,0-.15-.12-.26-.26-.26s-.26.12-.26.26c0,.61.5,1.11,1.11,1.11.24,0,.47-.08.66-.22.29.27.67.44,1.06.49v1.44c0,.45.37.82.82.82h.42c.12,0,.24.05.33.14.08.09.12.21.11.34-.02.22-.23.39-.48.39h-.12v-.02c0-.15-.12-.26-.26-.26h0c-.15,0-.26.12-.26.26,0,1.87-1.52,3.39-3.39,3.39-1.87,0-3.39-1.52-3.39-3.39h0ZM6.1,13.97c-.22.22-.56.23-.79.03l-1.44-1.26.6-.6c.1-.1.26-.12.38-.04l1.88,1.25-.62.62ZM7.13,12.99l-1.7-1.14v-1.2c.52.25,1.09.39,1.7.39s1.19-.14,1.7-.39v1.2l-1.7,1.14Z"></path>
      <path class="cls-1" d="M5.53,5.02l-.46.18c-.14.05-.2.21-.15.34.04.1.14.17.24.17.03,0,.06,0,.1-.02l.46-.18c.14-.05.2-.21.15-.34s-.21-.2-.34-.15h0Z"></path>
      <path class="cls-1" d="M8.36,5.51l.66.18s.05,0,.07,0c.12,0,.22-.08.25-.19.04-.14-.04-.28-.18-.32l-.66-.18c-.14-.04-.28.04-.32.18-.04.14.04.28.18.32h0Z"></path>
      <path class="cls-1" d="M4.87,7.58c0-.15-.12-.26-.26-.26h0c-.15,0-.26.12-.26.26s.12.26.26.26.26-.12.26-.26h0Z"></path>
      <path class="cls-1" d="M5.44,7.6h0c-.15,0-.26.12-.26.26s.12.26.26.26.26-.12.26-.26-.12-.26-.26-.26h0Z"></path>
      <path class="cls-1" d="M4.88,8.27h0c-.15,0-.26.12-.26.26s.12.26.26.26.26-.12.26-.26-.12-.26-.26-.26h0Z"></path>
      <path class="cls-1" d="M9.65,7.85h0c.15,0,.26-.12.26-.26s-.12-.26-.26-.26-.26.12-.26.26.12.26.26.26h0Z"></path>
      <path class="cls-1" d="M8.81,7.6c-.15,0-.26.12-.26.26s.12.26.26.26h0c.15,0,.26-.12.26-.26s-.12-.26-.26-.26h0Z"></path>
      <path class="cls-1" d="M9.11,8.53c0,.15.12.26.26.26h0c.15,0,.26-.12.26-.26s-.12-.26-.26-.26-.26.12-.26.26h0Z"></path>
    </g>
  </g>
</svg>
