<?xml version="1.0" encoding="UTF-8"?>
<svg xmlns="http://www.w3.org/2000/svg" width="66" height="66" viewBox="0 0 66 66" fill="none">
  <path fill-rule="evenodd" clip-rule="evenodd" d="M59.3179 45.8295H6.67915C6.21631 45.8295 5.84131 45.4544 5.84131 44.9917V15.4773C5.84131 13.3936 7.53648 11.6985 9.62005 11.6985H56.3767C58.4604 11.6985 60.1556 13.3936 60.1556 15.4773V44.9917C60.1557 45.4544 59.7806 45.8295 59.3179 45.8295ZM7.51704 44.1538H58.48V15.4773C58.48 14.3178 57.5363 13.3743 56.3768 13.3743H9.62005C8.46034 13.3743 7.51699 14.3178 7.51699 15.4773L7.51704 44.1538Z" fill="#0B3B3C"></path>
  <path fill-rule="evenodd" clip-rule="evenodd" d="M56.0953 42.6072H9.90147C9.43863 42.6072 9.06348 42.2321 9.06348 41.7694V15.7589C9.06348 15.2961 9.43863 14.9211 9.90147 14.9211H56.0952C56.558 14.9211 56.933 15.2961 56.933 15.7589V41.7694C56.9332 42.2321 56.558 42.6072 56.0953 42.6072ZM10.7392 40.9315H55.2573V16.5967H10.7392V40.9315Z" fill="#0B3B3C"></path>
  <path fill-rule="evenodd" clip-rule="evenodd" d="M65.1618 54.3012C65.161 54.3014 65.1602 54.3014 65.1592 54.3012H0.837927C0.526572 54.3012 0.240794 54.1286 0.0960027 53.8529C-0.0486365 53.5773 -0.0286916 53.244 0.148073 52.9876L5.98952 44.516C6.14589 44.2893 6.4038 44.1538 6.67938 44.1538H59.3179C59.5934 44.1538 59.8512 44.2893 60.0077 44.5162L65.816 52.9395C65.9311 53.0829 65.9999 53.265 65.9999 53.4633C65.9997 53.9261 65.6245 54.3012 65.1618 54.3012ZM2.43341 52.6256H63.5636L58.8777 45.8296H7.11942L2.43341 52.6256Z" fill="#0B3B3C"></path>
  <path fill-rule="evenodd" clip-rule="evenodd" d="M40.9213 54.3013C40.9205 54.3014 40.9196 54.3014 40.9187 54.3013H25.0787C24.8404 54.3013 24.6137 54.1999 24.4547 54.0226C24.2958 53.8453 24.2198 53.6087 24.2457 53.3719L24.7107 49.1361C24.7574 48.7113 25.1163 48.3898 25.5435 48.3898H40.4536C40.8809 48.3898 41.2399 48.7113 41.2864 49.1361L41.7442 53.3054C41.7539 53.3564 41.7591 53.4095 41.7591 53.4634C41.7591 53.9261 41.3841 54.3013 40.9213 54.3013ZM26.0136 52.6256H39.9837L39.7027 50.0654H26.2946L26.0136 52.6256Z" fill="#0B3B3C"></path>
  <path fill-rule="evenodd" clip-rule="evenodd" d="M52.1081 20.0957H37.3677C36.9049 20.0957 36.5297 19.7205 36.5297 19.2578C36.5297 18.795 36.9049 18.42 37.3677 18.42H52.108C52.5709 18.42 52.946 18.795 52.946 19.2578C52.946 19.7205 52.571 20.0957 52.1081 20.0957ZM33.6606 20.0957H32.6118C32.1491 20.0957 31.7739 19.7205 31.7739 19.2578C31.7739 18.795 32.1491 18.42 32.6118 18.42H33.6606C34.1233 18.42 34.4985 18.795 34.4985 19.2578C34.4985 19.7205 34.1233 20.0957 33.6606 20.0957Z" fill="#0B3B3C"></path>
  <path fill-rule="evenodd" clip-rule="evenodd" d="M52.108 24.8488H42.5238C42.0609 24.8488 41.6858 24.4737 41.6858 24.011C41.6858 23.5482 42.0609 23.1732 42.5238 23.1732H52.108C52.5709 23.1732 52.946 23.5482 52.946 24.011C52.946 24.4737 52.5709 24.8488 52.108 24.8488ZM38.8166 24.8488H32.6118C32.1491 24.8488 31.7739 24.4737 31.7739 24.011C31.7739 23.5482 32.1491 23.1732 32.6118 23.1732H38.8166C39.2793 23.1732 39.6545 23.5482 39.6545 24.011C39.6545 24.4737 39.2793 24.8488 38.8166 24.8488Z" fill="#0B3B3C"></path>
  <path fill-rule="evenodd" clip-rule="evenodd" d="M52.1081 29.602H48.4452C47.9824 29.602 47.6074 29.227 47.6074 28.7642C47.6074 28.3015 47.9824 27.9263 48.4452 27.9263H52.1081C52.5709 27.9263 52.9461 28.3015 52.9461 28.7642C52.9461 29.227 52.5709 29.602 52.1081 29.602ZM44.738 29.602H32.6118C32.1491 29.602 31.7739 29.227 31.7739 28.7642C31.7739 28.3015 32.1491 27.9263 32.6118 27.9263H44.738C45.2007 27.9263 45.5759 28.3015 45.5759 28.7642C45.5759 29.227 45.2007 29.602 44.738 29.602Z" fill="#0B3B3C"></path>
  <path fill-rule="evenodd" clip-rule="evenodd" d="M52.1081 34.3555H38.8581C38.3954 34.3555 38.0202 33.9803 38.0202 33.5175C38.0202 33.0548 38.3954 32.6796 38.8581 32.6796H52.1081C52.571 32.6796 52.9461 33.0548 52.9461 33.5175C52.9461 33.9803 52.571 34.3555 52.1081 34.3555ZM35.1509 34.3555H32.6118C32.1491 34.3555 31.7739 33.9803 31.7739 33.5175C31.7739 33.0548 32.1491 32.6796 32.6118 32.6796H35.1509C35.6137 32.6796 35.9887 33.0548 35.9887 33.5175C35.9887 33.9803 35.6137 34.3555 35.1509 34.3555Z" fill="#0B3B3C"></path>
  <path fill-rule="evenodd" clip-rule="evenodd" d="M52.1081 39.1086H48.5258C48.0629 39.1086 47.6879 38.7335 47.6879 38.2708C47.6879 37.8079 48.0629 37.4329 48.5258 37.4329H52.1081C52.5709 37.4329 52.9461 37.8079 52.9461 38.2708C52.9461 38.7335 52.5709 39.1086 52.1081 39.1086ZM44.8184 39.1086H32.6118C32.1491 39.1086 31.7739 38.7335 31.7739 38.2708C31.7739 37.8079 32.1491 37.4329 32.6118 37.4329H44.8184C45.2813 37.4329 45.6563 37.8079 45.6563 38.2708C45.6563 38.7335 45.2813 39.1086 44.8184 39.1086Z" fill="#0B3B3C"></path>
  <path fill-rule="evenodd" clip-rule="evenodd" d="M21.1062 36.8189C16.6647 36.8189 13.0513 33.2057 13.0513 28.7642C13.0513 24.3227 16.6647 20.7095 21.1062 20.7095C25.5475 20.7095 29.1609 24.3227 29.1609 28.7642C29.1609 33.2057 25.5475 36.8189 21.1062 36.8189ZM21.1062 22.385C17.5887 22.385 14.7269 25.2468 14.7269 28.7643C14.7269 32.2817 17.5887 35.1433 21.1062 35.1433C24.6236 35.1433 27.4852 32.2817 27.4852 28.7643C27.4852 25.2468 24.6235 22.385 21.1062 22.385Z" fill="#0B3B3C"></path>
  <path fill-rule="evenodd" clip-rule="evenodd" d="M19.0572 32.3796C19.0209 32.3796 18.9843 32.3771 18.9478 32.3724C18.6896 32.3383 18.4616 32.1862 18.3315 31.9606L16.8741 29.4364C16.6427 29.0357 16.7802 28.5233 17.1807 28.2919C17.5813 28.0606 18.094 28.1978 18.3252 28.5985L19.2366 30.1771L24.0193 25.3946C24.3465 25.0674 24.8769 25.0672 25.2041 25.3946C25.5315 25.7217 25.5315 26.2522 25.2041 26.5794L19.6494 32.1341C19.4915 32.2922 19.2779 32.3796 19.0572 32.3796Z" fill="#0B3B3C"></path>
</svg>
