<svg xmlns="http://www.w3.org/2000/svg" width="100" height="100" viewBox="0 0 100 100" fill="none"><rect width="100" height="100" rx="6" fill="#DAE7D6"></rect><path d="M82.4132 22.501C82.1749 20.3248 80.4156 18.6342 78.2302 18.4811C70.937 17.9691 63.5453 17.8651 56.2625 18.1723C54.4446 18.2467 52.5865 18.3506 50.7406 18.4811C48.555 18.6341 46.7947 20.3244 46.5547 22.501C45.8273 29.1531 45.8269 35.9003 46.5535 42.5561C46.7937 44.7374 48.5539 46.4316 50.7385 46.5843L50.7726 46.5868C50.9071 46.5963 51.0402 46.6057 51.1681 46.6137C51.7188 46.6509 52.1502 47.1118 52.1502 47.6632V51.6494C52.1502 52.6346 52.6985 53.5182 53.5813 53.9554C53.9463 54.1362 54.3371 54.225 54.7256 54.225C55.2759 54.225 55.8214 54.0463 56.2801 53.6966C58.2461 52.1999 60.9402 49.9112 62.6113 47.5073C62.8045 47.2285 63.1266 47.0626 63.4746 47.0626H63.4808C67.0414 47.08 70.6368 47.001 74.1659 46.8266C74.6913 46.8005 75.0959 46.3538 75.07 45.8286C75.0441 45.3035 74.5999 44.8979 74.072 44.9247C70.5771 45.0975 67.0169 45.1767 63.4911 45.1584C63.4852 45.1584 63.4796 45.1584 63.4738 45.1584C62.5021 45.1584 61.5955 45.6302 61.047 46.4215C59.5182 48.6207 56.9837 50.7677 55.1262 52.1818C54.8293 52.4083 54.5378 52.3041 54.4263 52.2489C54.3145 52.1934 54.0542 52.0242 54.0542 51.6493V47.6631C54.0542 46.1137 52.8427 44.818 51.2919 44.7133C51.1645 44.7053 51.0363 44.6962 50.9069 44.687L50.872 44.6845C49.6058 44.596 48.5855 43.6131 48.4463 42.3484C47.7348 35.8306 47.7351 29.2227 48.4476 22.7086C48.5865 21.4482 49.6067 20.469 50.8742 20.3804C52.7019 20.2512 54.5411 20.1484 56.3414 20.0747C63.5547 19.7705 70.8743 19.8734 78.0968 20.3804C79.363 20.4692 80.3823 21.448 80.5202 22.708C81.2342 29.2277 81.2342 35.8385 80.5202 42.356C80.4915 42.6158 80.426 42.8651 80.3232 43.102C79.9354 44.0092 79.0816 44.6155 78.0885 44.6849L77.8384 44.7026C77.314 44.7426 76.9215 45.2 76.9613 45.7244C77.0012 46.2487 77.4614 46.6415 77.983 46.6015L78.2272 46.5841C79.9304 46.4651 81.4045 45.4176 82.0722 43.855C82.2487 43.4481 82.3633 43.0142 82.4131 42.5641C83.1423 35.9086 83.1423 29.1582 82.4132 22.501Z" fill="#0A3A3B" stroke="#0A3A3B" stroke-width="0.5"></path><path d="M60.7723 61.8578C60.2514 61.3359 59.5686 61.0325 58.8499 61.0037C58.102 60.973 57.4074 61.2407 56.8924 61.7556L52.5318 66.1164C51.5477 67.1002 49.9355 67.2339 48.6109 66.4411C46.1683 64.9794 43.8998 63.3639 40.7668 60.2311C37.6316 57.0958 36.0162 54.8278 34.5554 52.3869C33.7626 51.0624 33.8961 49.4501 34.8801 48.466L39.2422 44.1041C40.2836 43.0627 40.2382 41.3224 39.1407 40.2249L28.7333 29.8176C27.6368 28.721 25.8968 28.6753 24.854 29.7162L22.2719 32.2994C19.825 34.7465 18.3692 38.0672 18.0619 41.9027C17.7639 45.6208 18.5462 49.8455 20.3244 54.12C20.5264 54.6056 21.0837 54.8354 21.5692 54.6334C22.0547 54.4315 22.2846 53.8741 22.0826 53.3887C20.4201 49.3919 19.6861 45.4727 19.9601 42.0546C20.1923 39.158 21.1104 36.6902 22.6887 34.6949L34.3236 46.3297L33.5337 47.1196C31.9314 48.722 31.6798 51.2901 32.9216 53.3649C34.7362 56.3967 36.619 58.776 39.4204 61.5775C42.6914 64.8486 45.0693 66.5408 47.6331 68.0751C49.7078 69.3169 52.276 69.0652 53.8784 67.463L54.6676 66.6738L66.3023 78.3087C62.8657 81.0153 57.9728 81.7833 52.3476 80.463C45.8046 78.9271 38.7766 74.6566 32.5583 68.4383C28.8417 64.7218 25.8546 60.7855 23.6798 56.739C23.4308 56.2758 22.8537 56.102 22.3903 56.351C21.9272 56.5999 21.7535 57.1772 22.0024 57.6403C24.2652 61.8507 27.3636 65.9367 31.2116 69.7848C37.6772 76.2504 45.0289 80.701 51.9124 82.3167C53.8608 82.774 55.7347 83 57.5097 83C62.0114 83 65.8759 81.5459 68.6973 78.7246L71.2794 76.1425C72.3212 75.1007 72.2761 73.3604 71.179 72.2633L60.7723 61.8578ZM23.9756 33.2887L26.2001 31.063C26.4997 30.7639 27.0323 30.8093 27.3867 31.164L37.7941 41.5713C38.1492 41.9264 38.1946 42.4585 37.8956 42.7576L35.67 44.9832L23.9756 33.2887ZM69.9329 74.796L67.708 77.021L56.0142 65.3272L58.2392 63.1021C58.4209 62.9203 58.6539 62.9019 58.7735 62.9063C59.012 62.916 59.2432 63.0212 59.4254 63.2037L69.8328 73.6098C70.1874 73.9645 70.2323 74.4967 69.9329 74.796Z" fill="#0A3A3B" stroke="#0A3A3B" stroke-width="0.5"></path><path d="M72.9889 24.052H51.4602C50.9344 24.052 50.5081 24.4783 50.5081 25.0042C50.5081 25.53 50.9342 25.9563 51.4602 25.9563H72.9891C73.5149 25.9563 73.9412 25.53 73.9412 25.0042C73.9412 24.4783 73.5149 24.052 72.9889 24.052Z" fill="#0A3A3B" stroke="#0A3A3B" stroke-width="0.5"></path><path d="M73.9411 30.5804C73.9411 30.0545 73.5149 29.6282 72.9889 29.6282H51.4602C50.9344 29.6282 50.5081 30.0545 50.5081 30.5804C50.5081 31.1062 50.9342 31.5325 51.4602 31.5325H72.9891C73.5149 31.5325 73.9411 31.1062 73.9411 30.5804Z" fill="#0A3A3B" stroke="#0A3A3B" stroke-width="0.5"></path><path d="M51.4602 35.2045C50.9344 35.2045 50.5081 35.6308 50.5081 36.1567C50.5081 36.6825 50.9342 37.1088 51.4602 37.1088H59.1419C59.6677 37.1088 60.094 36.6825 60.094 36.1567C60.094 35.6308 59.6679 35.2045 59.1419 35.2045H51.4602Z" fill="#0A3A3B" stroke="#0A3A3B" stroke-width="0.5"></path><path d="M31.1919 28.1418C31.2856 28.1708 31.3803 28.1846 31.4736 28.1846C31.8801 28.1846 32.2565 27.9222 32.383 27.5137L34.239 21.514C34.3944 21.0116 34.1132 20.4784 33.6108 20.323C33.1082 20.1676 32.5753 20.4489 32.4198 20.9512L30.5637 26.9509C30.4083 27.4531 30.6895 27.9864 31.1919 28.1418Z" fill="#0A3A3B" stroke="#0A3A3B" stroke-width="0.5"></path><path d="M36.8498 33.7996C36.9762 34.2083 37.3527 34.4706 37.7592 34.4706C37.8522 34.4706 37.947 34.4567 38.0409 34.4278L44.0404 32.5717C44.5428 32.4164 44.824 31.8831 44.6686 31.3808C44.5132 30.8786 43.9805 30.5971 43.4775 30.7526L37.478 32.6087C36.9757 32.7641 36.6945 33.2974 36.8498 33.7996Z" fill="#0A3A3B" stroke="#0A3A3B" stroke-width="0.5"></path><path d="M34.4583 30.5333C34.6442 30.7192 34.8879 30.8122 35.1316 30.8122C35.3752 30.8122 35.619 30.7192 35.805 30.5333L40.3258 26.0124C40.6976 25.6406 40.6976 25.0378 40.3258 24.666C39.9538 24.2943 39.351 24.2941 38.9792 24.666L34.4584 29.1868C34.0864 29.5586 34.0864 30.1614 34.4583 30.5333Z" fill="#0A3A3B" stroke="#0A3A3B" stroke-width="0.5"></path></svg>