<?xml version="1.0" encoding="UTF-8"?>
<svg xmlns="http://www.w3.org/2000/svg" id="Layer_2" data-name="Layer 2" viewBox="0 0 10.34 18.44">
  <defs>
    <style>
      .cls-1 {
        stroke: #0b3b3c;
        stroke-linecap: round;
        stroke-linejoin: round;
        stroke-width: .68px;
      }

      .cls-1, .cls-2 {
        fill: #0b3b3c;
      }

      .cls-2 {
        stroke-width: 0px;
      }
    </style>
  </defs>
  <g id="Layer_1-2" data-name="Layer 1">
    <g>
      <path class="cls-1" d="M8.7.34H1.64C.92.34.34.92.34,1.64v15.15c0,.72.58,1.3,1.3,1.3h7.06c.72,0,1.3-.58,1.3-1.3V1.64c0-.72-.58-1.3-1.3-1.3ZM9.48,16.79c0,.43-.35.78-.78.78H1.64c-.43,0-.78-.35-.78-.78V1.64c0-.43.35-.78.78-.78h7.06c.43,0,.78.35.78.78v15.15Z"></path>
      <path class="cls-2" d="M5.17,14.36c.43,0,.78-.35.78-.78V2.16c0-.43-.35-.78-.78-.78s-.78.35-.78.78v5.19c0,.14.12.26.26.26s.26-.12.26-.26V2.16c0-.14.12-.26.26-.26s.26.12.26.26v11.41c0,.14-.12.26-.26.26s-.26-.12-.26-.26v-5.19c0-.14-.12-.26-.26-.26s-.26.12-.26.26v5.19c0,.43.35.78.78.78Z"></path>
      <path class="cls-2" d="M2.47,4.08c-.6,0-1.09.49-1.09,1.09s.49,1.09,1.09,1.09,1.09-.49,1.09-1.09-.49-1.09-1.09-1.09h0ZM2.47,5.74c-.31,0-.57-.26-.57-.57s.26-.57.57-.57.57.26.57.57-.26.57-.57.57h0Z"></path>
      <path class="cls-2" d="M2.47,1.38c-.6,0-1.09.49-1.09,1.09s.49,1.09,1.09,1.09,1.09-.49,1.09-1.09-.49-1.09-1.09-1.09h0ZM2.47,3.04c-.31,0-.57-.26-.57-.57s.26-.57.57-.57.57.26.57.57-.26.57-.57.57h0Z"></path>
      <path class="cls-2" d="M2.47,9.48c-.6,0-1.09.49-1.09,1.09s.49,1.09,1.09,1.09,1.09-.49,1.09-1.09-.49-1.09-1.09-1.09h0ZM2.47,11.14c-.31,0-.57-.26-.57-.57s.26-.57.57-.57.57.26.57.57-.26.57-.57.57h0Z"></path>
      <path class="cls-2" d="M2.47,6.78c-.6,0-1.09.49-1.09,1.09s.49,1.09,1.09,1.09,1.09-.49,1.09-1.09-.49-1.09-1.09-1.09h0ZM2.47,8.44c-.31,0-.57-.26-.57-.57s.26-.57.57-.57.57.26.57.57-.26.57-.57.57h0Z"></path>
      <path class="cls-2" d="M2.47,14.88c-.6,0-1.09.49-1.09,1.09s.49,1.09,1.09,1.09,1.09-.49,1.09-1.09-.49-1.09-1.09-1.09h0ZM2.47,16.53c-.31,0-.57-.26-.57-.57s.26-.57.57-.57.57.26.57.57-.26.57-.57.57h0Z"></path>
      <path class="cls-2" d="M5.17,14.88c-.6,0-1.09.49-1.09,1.09s.49,1.09,1.09,1.09,1.09-.49,1.09-1.09-.49-1.09-1.09-1.09ZM5.17,16.53c-.31,0-.57-.26-.57-.57s.26-.57.57-.57.57.26.57.57-.26.57-.57.57Z"></path>
      <path class="cls-2" d="M2.47,12.18c-.6,0-1.09.49-1.09,1.09s.49,1.09,1.09,1.09,1.09-.49,1.09-1.09-.49-1.09-1.09-1.09h0ZM2.47,13.84c-.31,0-.57-.26-.57-.57s.26-.57.57-.57.57.26.57.57-.26.57-.57.57h0Z"></path>
      <path class="cls-2" d="M7.87,4.08c-.6,0-1.09.49-1.09,1.09s.49,1.09,1.09,1.09,1.09-.49,1.09-1.09-.49-1.09-1.09-1.09ZM7.87,5.74c-.31,0-.57-.26-.57-.57s.26-.57.57-.57.57.26.57.57-.26.57-.57.57Z"></path>
      <path class="cls-2" d="M7.87,1.38c-.6,0-1.09.49-1.09,1.09s.49,1.09,1.09,1.09,1.09-.49,1.09-1.09-.49-1.09-1.09-1.09ZM7.87,3.04c-.31,0-.57-.26-.57-.57s.26-.57.57-.57.57.26.57.57-.26.57-.57.57Z"></path>
      <path class="cls-2" d="M7.87,9.48c-.6,0-1.09.49-1.09,1.09s.49,1.09,1.09,1.09,1.09-.49,1.09-1.09-.49-1.09-1.09-1.09ZM7.87,11.14c-.31,0-.57-.26-.57-.57s.26-.57.57-.57.57.26.57.57-.26.57-.57.57Z"></path>
      <path class="cls-2" d="M7.87,6.78c-.6,0-1.09.49-1.09,1.09s.49,1.09,1.09,1.09,1.09-.49,1.09-1.09-.49-1.09-1.09-1.09ZM7.87,8.44c-.31,0-.57-.26-.57-.57s.26-.57.57-.57.57.26.57.57-.26.57-.57.57Z"></path>
      <path class="cls-2" d="M7.87,14.88c-.6,0-1.09.49-1.09,1.09s.49,1.09,1.09,1.09,1.09-.49,1.09-1.09-.49-1.09-1.09-1.09ZM7.87,16.53c-.31,0-.57-.26-.57-.57s.26-.57.57-.57.57.26.57.57-.26.57-.57.57Z"></path>
      <path class="cls-2" d="M7.87,12.18c-.6,0-1.09.49-1.09,1.09s.49,1.09,1.09,1.09,1.09-.49,1.09-1.09-.49-1.09-1.09-1.09ZM7.87,13.84c-.31,0-.57-.26-.57-.57s.26-.57.57-.57.57.26.57.57-.26.57-.57.57Z"></path>
    </g>
  </g>
</svg>
