<svg width="45" height="45" viewBox="0 0 45 45" fill="none" xmlns="http://www.w3.org/2000/svg">
<path d="M22.5 0C10.089 0 0 10.089 0 22.5C0 34.911 10.089 45 22.5 45C34.911 45 45 34.911 45 22.5C45 10.089 34.911 0 22.5 0ZM22.5 40.905C12.348 40.905 4.095 32.643 4.095 22.5C4.095 12.357 12.348 4.095 22.5 4.095C32.652 4.095 40.905 12.357 40.905 22.5C40.905 32.643 32.643 40.905 22.5 40.905Z" fill="#0B3B3C"/>
<path d="M30.9329 14.5439L19.3589 26.1179L14.0579 20.8169C13.2569 20.0159 11.9609 20.0159 11.1689 20.8169C10.3679 21.6179 10.3679 22.9139 11.1689 23.7059L17.9189 30.4559C18.3059 30.8429 18.8189 31.0589 19.3679 31.0589C19.9079 31.0589 20.4299 30.8429 20.8169 30.4559L33.8309 17.4419C34.6319 16.6409 34.6319 15.3449 33.8309 14.5529C33.0299 13.7519 31.7339 13.7519 30.9419 14.5529L30.9329 14.5439Z" fill="#0B3B3C"/>
</svg>
