<?xml version="1.0" encoding="UTF-8"?>
<svg xmlns="http://www.w3.org/2000/svg" id="Layer_2" data-name="Layer 2" viewBox="0 0 13.79 17.88">
  <defs>
    <style>
      .cls-1 {
        fill: #0b3b3c;
        stroke: #0b3b3c;
        stroke-miterlimit: 10;
        stroke-width: .5px;
      }
    </style>
  </defs>
  <g id="Layer_1-2" data-name="Layer 1">
    <g>
      <path class="cls-1" d="M13.49,5.45l-.36-.94c-.18-.47-.75-.64-1.15-.36-.39.28-.8.51-1.24.7.66-1.21.45-2.76-.74-3.76-.68-.57-1.56-.87-2.48-.84-.14,0-1.75,0-3.44,1.02-1.59-.06-2.69,1.17-2.55,2.7-.72,1.31-1.15,2.94-1.27,4.83-.12,1.87.18,3.51.87,4.86.06.13.22.17.34.11.13-.06.17-.22.11-.34-.65-1.27-.93-2.81-.82-4.59.1-1.58.42-2.96.95-4.11.23.52.65.89,1.23.87.84-.03,1.68-.85,2.11-1.34.09-.11.08-.27-.02-.36s-.27-.08-.36.02c-.63.72-1.29,1.15-1.75,1.16-.62.02-.91-.77-.9-1.39.01-1.11.8-1.9,1.92-1.92.48,0,.94.15,1.19.4.22.22.26.48.14.83-.05.13.02.28.15.33.13.05.28-.02.33-.15.29-.82-.11-1.46-.89-1.75,1.4-.68,2.64-.67,2.65-.67,0,0,0,0,.01,0,1.61-.05,3.02,1.07,3.07,2.58.05,1.38-1.06,2.57-2.58,2.76-.58.07-1.17,0-1.68-.23-.13-.06-.28,0-.33.13-.06.13,0,.28.13.33.54.23,1.14.33,1.75.28.18.45.38,1.11.41,1.94.02.52-.07,1.11-.26,1.74-.72.22-1.39.61-1.93,1.13-.16.16-.05.44.18.44.06,0,.13-.02.18-.07,1.42-1.38,3.7-1.6,5.08-.43,1.36,1.16,1.27,3.2-.13,4.56-.78.76-1.76,1.15-2.98,1.19-1.94.08-4.59-.59-6.22-2.72-.09-.11-.25-.13-.36-.05-.11.09-.13.25-.05.36,1.66,2.16,4.29,2.92,6.31,2.92,1.4,0,2.61-.34,3.65-1.34.84-.81,1.29-1.88,1.26-2.94-.07-2.14-2.1-3.58-4.42-3.19.07-.27.12-.53.16-.79.51-.05,1.02-.05,1.52,0,.14.02.27-.08.28-.22.02-.14-.08-.27-.22-.28-.51-.06-1.02-.06-1.54-.02.01-.31-.01-.64-.05-.95.7-.02,1.55-.13,2.46-.47.39.09.77.21,1.14.36.1.04.17.15.16.26l-.09,1c-.02.17-.18.27-.34.22-.18-.06-.36-.12-.53-.17-.14-.04-.28.04-.31.18-.04.14.04.28.18.31.5.14.55.21.76.21.38,0,.72-.29.76-.7l.09-1c.03-.34-.16-.65-.47-.78-.19-.08-.39-.15-.58-.21.42-.21.85-.47,1.27-.79.27-.21.37-.56.25-.88h0ZM12.93,5.93c-1.54,1.18-3.14,1.46-4.26,1.48-.07-.33-.16-.62-.26-.86.67-.14,1.27-.46,1.75-.92.76-.24,1.47-.59,2.12-1.05.13-.1.32-.04.38.12l.36.94c.04.11,0,.22-.08.29h0Z"></path>
      <path class="cls-1" d="M6.6,14.62c.38-.54,1.01-.54,1.38,0,.08.12.24.14.35.06.12-.08.14-.24.06-.35-.58-.83-1.64-.83-2.22,0-.08.12-.05.27.06.35.12.08.27.05.35-.06Z"></path>
      <path class="cls-1" d="M5.86,13.46c.09-.11.08-.27-.02-.36-.11-.09-.27-.08-.36.02-.2.23-.57.23-.77,0-.09-.11-.25-.12-.36-.02-.11.09-.12.25-.02.36.41.47,1.13.47,1.54,0h0Z"></path>
      <path class="cls-1" d="M10.25,13.46c.09-.11.08-.27-.02-.36-.11-.09-.27-.08-.36.02-.2.23-.57.23-.77,0-.09-.11-.25-.12-.36-.02s-.12.25-.02.36c.41.47,1.13.47,1.54,0Z"></path>
    </g>
  </g>
</svg>
