<?xml version="1.0" encoding="UTF-8"?>
<svg xmlns="http://www.w3.org/2000/svg" id="Layer_2" data-name="Layer 2" viewBox="0 0 14.55 17.09">
  <defs>
    <style>
      .cls-1 {
        fill: #0b3b3c;
        stroke: #0b3b3c;
        stroke-miterlimit: 10;
        stroke-width: .46px;
      }
    </style>
  </defs>
  <g id="Layer_1-2" data-name="Layer 1">
    <g>
      <path class="cls-1" d="M13.74,14.46c.54-2.68.64-5.72.55-6.92-.24-3.25-1.86-4.86-1.86-6.33,0-.55-.36-.98-.82-.98H2.94c-.45,0-.82.44-.82.97,0,1.58-1.6,3.14-1.86,6.34-.06.73-.04,1.89.05,3.1,0,.13.11.23.22.22.11-.01.2-.13.19-.26-.08-1.05-.1-2.06-.06-2.77.83.17,2.55,1.13,4.92,2.28.25.12.52.22.78.28.08,1.4.13,3.83-.3,5.47-.08.31-.32.52-.59.52h-3.3c-.26,0-.5-.2-.58-.49-.05-.17-.1-.34-.14-.52.35-.14.53-.61.36-1.01-.09-.22-.16-.46-.21-.7-.07-.34-.32-.57-.6-.57-.07-.44-.12-.9-.17-1.36-.01-.13-.12-.23-.23-.21-.11.02-.19.14-.18.27.05.5.12,1,.19,1.47-.21.21-.35.52-.37.87-.03.61.32,1.12.78,1.25.06.23.12.46.19.68.15.49.54.81.97.81h3.3c.45,0,.85-.34.99-.86.43-1.61.42-3.85.33-5.54.33.04.65.04.98,0-.09,1.69-.1,3.93.33,5.54.14.51.53.86.99.86h1.96c.11,0,.21-.11.21-.24s-.09-.24-.21-.24h-1.96c-.27,0-.51-.21-.59-.52-.44-1.64-.38-4.07-.3-5.47.27-.07.53-.16.78-.28,2.38-1.15,4.1-2.11,4.93-2.28.07,1.59-.12,5.33-.93,8.05-.09.29-.32.49-.58.49h-.38c-.11,0-.21.11-.21.24s.09.24.21.24h.38c.35,0,.67-.21.86-.54.52.2,1.09-.24,1.09-.93,0-.44-.24-.81-.58-.93h0ZM.86,13.63c.11-.12.3-.04.33.13.06.28.14.56.24.81.07.16-.03.36-.2.35-.55-.03-.8-.84-.37-1.29ZM2.53,1.2c0-.27.18-.48.41-.48h8.67c.23,0,.41.22.41.49,0,.44.11.87.28,1.32-.39.06-1.01.15-1.8.23-.11.01-.2.13-.19.26,0,.13.1.22.21.22.06,0,1.1-.11,1.97-.26.11.27.24.54.37.83-3.03.75-8.09.75-11.13,0,.13-.29.26-.57.37-.84,2.16.37,4.86.51,7.48.33.11,0,.2-.12.19-.26,0-.13-.1-.24-.22-.23-2.46.17-5.1.06-7.28-.31.16-.45.26-.88.26-1.33ZM8.81,9.66c-.97.47-2.09.47-3.07,0-2.48-1.2-4.15-2.15-5.04-2.31.13-1.25.47-2.21.83-3.06,3.11.79,8.42.79,11.52,0,.35.83.68,1.83.81,3.07-.89.16-2.56,1.11-5.05,2.31ZM13.69,15.82c-.09.06-.2.08-.29.05.09-.3.17-.62.24-.94.33.15.36.68.06.89h0Z"></path>
      <path class="cls-1" d="M2.09,9.28c-.46,0-.83.44-.83.98s.37.98.83.98.83-.44.83-.98-.37-.98-.83-.98ZM2.09,10.75c-.23,0-.42-.22-.42-.49s.19-.49.42-.49.42.22.42.49-.19.49-.42.49Z"></path>
      <path class="cls-1" d="M4.17,10.99c-.34,0-.62.33-.62.73s.28.73.62.73.62-.33.62-.73-.28-.73-.62-.73ZM4.17,11.97c-.11,0-.21-.11-.21-.25s.09-.25.21-.25.21.11.21.25-.09.25-.21.25Z"></path>
      <path class="cls-1" d="M2.92,14.66c0,.54.37.98.83.98s.83-.44.83-.98-.37-.98-.83-.98-.83.44-.83.98ZM3.75,14.17c.23,0,.42.22.42.49s-.19.49-.42.49-.42-.22-.42-.49.19-.49.42-.49Z"></path>
      <path class="cls-1" d="M2.4,11.79c-.11.16-.23.21-.37.17-.12-.03-.21-.12-.21-.12-.09-.09-.22-.07-.29.03-.07.1-.06.26.02.34.02.02.16.16.37.22.29.09.58-.02.8-.33.07-.1.06-.26-.02-.34-.09-.09-.22-.08-.29.03h0Z"></path>
      <path class="cls-1" d="M5.35,14.41c.11.03.22-.05.25-.18.08-.38-.02-1.01-.61-1.18-.11-.03-.22.05-.25.18-.03.13.04.26.15.29.17.05.26.15.3.31.03.14,0,.27,0,.28-.03.13.04.26.15.29h0Z"></path>
      <path class="cls-1" d="M10.1,14.84s.09.07.11.14c.17.48.55.75.96.75.45,0,.86-.35.99-.89.19-.8-.34-1.6-1.05-1.55-.06,0-.11-.02-.15-.06-.3-.35-.78-.37-1.1-.05-.49.48-.36,1.41.24,1.67h0ZM10.12,13.55c.16-.16.4-.15.55.03.12.14.29.21.46.2.43-.03.75.45.63.93-.1.41-.47.64-.81.49-.16-.07-.29-.22-.36-.41-.07-.19-.2-.34-.35-.41-.3-.13-.37-.6-.12-.84h0Z"></path>
      <path class="cls-1" d="M12.25,9.28c-.46,0-.83.44-.83.98s.37.98.83.98.83-.44.83-.98-.37-.98-.83-.98ZM12.25,10.75c-.23,0-.42-.22-.42-.49s.19-.49.42-.49.42.22.42.49-.19.49-.42.49Z"></path>
      <path class="cls-1" d="M10.65,12.35c-.08.09-.18.09-.26.01-.07-.06-.17-.1-.27.02-.08.09-.21.09-.29,0-.08-.1-.08-.25,0-.34.18-.21.39-.28.61-.19.08.03.15.08.19.12.1.09.12.27.02.38h0Z"></path>
      <path class="cls-1" d="M11.95,11.93c.08-.09.18-.09.26-.01.07.06.17.1.27-.02.08-.09.21-.09.29,0,.08.1.08.25,0,.34-.18.21-.39.28-.61.19-.08-.03-.15-.08-.19-.12-.1-.09-.12-.27-.02-.38h0Z"></path>
    </g>
  </g>
</svg>
