<?xml version="1.0" encoding="UTF-8"?>
<svg xmlns="http://www.w3.org/2000/svg" id="Layer_2" data-name="Layer 2" viewBox="0 0 12.06 17.86">
  <defs>
    <style>
      .cls-1 {
        fill: #0b3b3c;
        stroke: #0b3b3c;
        stroke-linecap: round;
        stroke-linejoin: round;
        stroke-width: .43px;
      }
    </style>
  </defs>
  <g id="Layer_1-2" data-name="Layer 1">
    <g>
      <path class="cls-1" d="M11.03.34c-.09-.13-.27-.16-.4-.07-.13.09-.16.27-.07.4.31.44.5.94.61,1.49-.83.24-1.43.66-1.7,1.22-.45.92-1.57,1.19-1.14,2.31.7,1.82.19,3.03.78,3.93.09.13.27.17.4.08.13-.09.17-.27.08-.4-.45-.68-.02-1.97-.72-3.82-.26-.69.6-.79,1.12-1.85.19-.38.64-.7,1.26-.89.24,2.79-1.26,6.58-1.09,9.67h-.54l-.54-1.23c-.06-.15-.24-.21-.38-.15-.15.06-.21.24-.15.38l.55,1.24-.5.59c-.09.1-.09.25-.01.36l.53.73c.09.13.28.16.41.06.13-.09.16-.28.06-.41l-.4-.55.38-.45h.64c.06.45.16.88.31,1.29.59,1.57-.07,2.77-2.01,2.77-.34,0-.67-.07-1.07-.15-2.78-.57-3.01.09-6.15.15-.3,0-.54-.28-.49-.58.15-.8.73-.82,1.85-1.07.57.93,1.95,1.01,2.61.17.16-.2.36-.32.58-.36.33-.05.62-.26.77-.56.1-.19.27-.34.47-.42.93-.36,1.22-1.26.86-2.17-.06-.15-.23-.22-.38-.16-.15.06-.22.23-.16.38.24.61.1,1.17-.53,1.41-.34.13-.62.38-.78.69-.07.13-.2.23-.35.25-.36.06-.7.26-.94.57-.37.47-1.14.49-1.55.04.59-.17,1.25-.45,1.91-.98,2.99-2.38,2.14-7.08,1.67-10.99l1.07-.51.42.36c.12.1.31.09.41-.03.1-.12.09-.31-.03-.41l-.43-.36.16-.69.26-.08c.15-.05.24-.21.19-.36-.05-.15-.21-.24-.36-.19l-.42.13c-.1.03-.18.11-.2.21l-.21.89-.93.44c-.08-.72-.15-1.45-.2-2.16-.01-.16-.15-.28-.31-.27-.16.01-.28.15-.27.31.32,5.15,2.03,10.71-1.18,13.27-2.04,1.63-4.2.62-4.57,2.55-.13.66.38,1.28,1.07,1.26.94-.02,1.97-.11,2.98-.28,2.16-.35,3.1.28,4.23.28,2.37,0,3.28-1.63,2.55-3.55-1.47-3.87,2.37-10.32-.03-13.75h0Z"></path>
      <path class="cls-1" d="M10.59,4.65c0-.16-.13-.29-.29-.29s-.29.13-.29.29.13.29.29.29.29-.13.29-.29Z"></path>
      <path class="cls-1" d="M9.71,6.47c0,.16.13.29.29.29s.29-.13.29-.29-.13-.29-.29-.29-.29.13-.29.29Z"></path>
    </g>
  </g>
</svg>
