<?xml version="1.0" encoding="UTF-8"?>
<svg xmlns="http://www.w3.org/2000/svg" id="Layer_2" data-name="Layer 2" viewBox="0 0 11.68 17.96">
  <defs>
    <style>
      .cls-1 {
        stroke-width: .74px;
      }

      .cls-1, .cls-2 {
        fill: none;
        stroke: #0b3b3c;
        stroke-linecap: round;
        stroke-linejoin: round;
      }

      .cls-2 {
        stroke-width: 1.19px;
      }
    </style>
  </defs>
  <g id="Layer_1-2" data-name="Layer 1">
    <g>
      <g>
        <path class="cls-2" d="M1.56,9.64h0,0s0,0,0,0Z"></path>
        <path class="cls-2" d="M1.56,9.64h0,0s0,0,0,0Z"></path>
        <path class="cls-2" d="M8.54,5.7c-.83,0-1.57.4-2.03,1.02h0s-.01.02-.02.02c-.03.05-.06.09-.1.14-.11.16-.23.32-.36.48-1.08,1.3-2.68,2.17-4.48,2.28,2.11.74,4.38,1.14,6.74,1.14h.24c.41,0,.79-.1,1.14-.27.83-.42,1.4-1.28,1.4-2.27,0-1.4-1.14-2.54-2.54-2.54Z"></path>
        <path class="cls-1" d="M8.54,6.98c.7,0,1.27.57,1.27,1.27"></path>
      </g>
      <path class="cls-2" d="M.93,11.33l-.03-.03h0s.01.02.02.02c.04.05.07.11.1.17.21.4.29.83.25,1.25v.03s0,0,0,0l-.08.57h0s-.21,1.59-.21,1.59l-.03.23h0c-.07.4-.01.83.2,1.22.49.92,1.64,1.26,2.55.77.92-.49,1.26-1.64.77-2.55h0c-.81-1.51-2.07-2.62-3.52-3.27Z"></path>
      <path class="cls-2" d="M.93,11.33l-.03-.03h0s.01.02.02.02c.04.05.07.11.1.17.21.4.29.83.25,1.25v.03s0,0,0,0l-.08.57h0s-.21,1.59-.21,1.59l-.03.23h0c-.07.4-.01.83.2,1.22.49.92,1.64,1.26,2.55.77.92-.49,1.26-1.64.77-2.55h0c-.81-1.51-2.07-2.62-3.52-3.27Z"></path>
      <path class="cls-1" d="M3.33,15.2c.1.19.07.37.05.46-.03.09-.1.26-.29.36-.05.03-.11.05-.17.06"></path>
      <path class="cls-2" d="M2.95.6C1.55.7.5,1.92.6,3.31h0c.04.5.21.95.49,1.32h0c.28.38.46.84.5,1.35.05.71-.19,1.38-.62,1.88l.22.02c.07,0,.15,0,.22-.01.87-.06,1.67-.36,2.33-.83,1.27-.9,2.06-2.42,1.94-4.09h0c-.1-1.4-1.32-2.45-2.71-2.35Z"></path>
      <path class="cls-1" d="M3.13,1.87c.66,0,1.21.52,1.26,1.17,0,.06,0,.13,0,.19"></path>
    </g>
  </g>
</svg>
