<?xml version="1.0" encoding="UTF-8"?>
<svg xmlns="http://www.w3.org/2000/svg" width="55" height="56" viewBox="0 0 55 56" fill="none">
  <path d="M38.3335 15.182L31.3804 8.22884C31.2339 8.08235 31.0352 8 30.828 8H9.34373C8.05139 8 7 9.05147 7 10.3438V45.6563C7 46.9486 8.05139 48 9.34373 48H24.2672C24.6986 48 25.0484 47.6501 25.0484 47.2188C25.0484 46.7874 24.6985 46.4376 24.2672 46.4376H9.34373C8.91292 46.4376 8.56251 46.0871 8.56251 45.6564V10.3438C8.56251 9.913 8.913 9.56259 9.34373 9.56259H30.0467V14.1719C30.0467 15.4643 31.0981 16.5156 32.3904 16.5156H36.9997V30.4218C36.9997 30.8532 37.3496 31.203 37.781 31.203C38.2123 31.203 38.5622 30.8532 38.5622 30.4218V15.7343C38.5623 15.5271 38.48 15.3285 38.3335 15.182ZM32.3905 14.9531C31.9597 14.9531 31.6093 14.6026 31.6093 14.1719V10.6674L35.8951 14.9531H32.3905Z" fill="#0D3738"></path>
  <path d="M32.7811 29.8749H19.2134C18.782 29.8749 18.4322 30.2248 18.4322 30.6561C18.4322 31.0875 18.7821 31.4373 19.2134 31.4373H32.7811C33.2125 31.4373 33.5623 31.0876 33.5623 30.6561C33.5624 30.2248 33.2125 29.8749 32.7811 29.8749Z" fill="#0D3738"></path>
  <path d="M15.3268 29.8749H12.7812C12.3498 29.8749 12 30.2248 12 30.6561C12 31.0875 12.3498 31.4373 12.7812 31.4373H15.3268C15.7582 31.4373 16.108 31.0875 16.108 30.6561C16.108 30.2248 15.7582 29.8749 15.3268 29.8749Z" fill="#0D3738"></path>
  <path d="M26.9999 34.2498H19.2134C18.782 34.2498 18.4322 34.5997 18.4322 35.0311C18.4322 35.4624 18.7821 35.8123 19.2134 35.8123H26.9999C27.4313 35.8123 27.7811 35.4625 27.7811 35.0311C27.7811 34.5997 27.4313 34.2498 26.9999 34.2498Z" fill="#0D3738"></path>
  <path d="M15.3268 34.2498H12.7812C12.3498 34.2498 12 34.5997 12 35.0311C12 35.4624 12.3498 35.8123 12.7812 35.8123H15.3268C15.7582 35.8123 16.108 35.4624 16.108 35.0311C16.108 34.5997 15.7582 34.2498 15.3268 34.2498Z" fill="#0D3738"></path>
  <path d="M19.7655 38.8538C19.6202 38.7085 19.4194 38.6249 19.2132 38.6249C19.0077 38.6249 18.8069 38.7084 18.6608 38.8538C18.5155 38.9991 18.4319 39.2007 18.4319 39.4062C18.4319 39.6116 18.5154 39.8132 18.6608 39.9585C18.8061 40.1038 19.0077 40.1875 19.2132 40.1875C19.4195 40.1875 19.6202 40.1039 19.7655 39.9585C19.9116 39.8132 19.9945 39.6116 19.9945 39.4062C19.9945 39.2007 19.9116 38.9991 19.7655 38.8538Z" fill="#0D3738"></path>
  <path d="M15.3268 38.6249H12.7812C12.3498 38.6249 12 38.9747 12 39.4061C12 39.8375 12.3498 40.1873 12.7812 40.1873H15.3268C15.7582 40.1873 16.108 39.8374 16.108 39.4061C16.1081 38.9747 15.7582 38.6249 15.3268 38.6249Z" fill="#0D3738"></path>
  <path d="M42.1585 38.3122C41.9292 38.3122 41.7038 38.3293 41.483 38.3603C41.9753 36.7091 41.5709 34.8454 40.2696 33.544C39.3547 32.6291 38.1384 32.1253 36.8446 32.1253C35.5507 32.1253 34.3344 32.6291 33.4195 33.544L27.2324 39.731C26.3176 40.6459 25.8137 41.8622 25.8137 43.1561C25.8137 44.45 26.3176 45.6663 27.2324 46.5811C28.1768 47.5254 29.4169 47.9975 30.6574 47.9975C31.8977 47.9975 33.1383 47.5252 34.0825 46.5811L37.3195 43.344C37.4188 45.928 39.5507 47.9998 42.1586 47.9998C44.8295 47.9998 47.0023 45.8269 47.0023 43.156C47.0023 40.485 44.8294 38.3122 42.1585 38.3122ZM32.9775 45.4763C31.6982 46.7557 29.6165 46.7557 28.3372 45.4763C27.7174 44.8565 27.3762 44.0326 27.3762 43.1561C27.3762 42.2797 27.7174 41.4556 28.3372 40.836L30.8784 38.2948L35.5186 42.9352L32.9775 45.4763ZM36.6234 41.8303L31.9831 37.1899L34.5243 34.6489C35.1441 34.0291 35.968 33.6878 36.8444 33.6878C37.7209 33.6878 38.5449 34.0291 39.1646 34.6489C40.4439 35.9281 40.4439 38.0098 39.1646 39.2891L36.6234 41.8303ZM41.3773 46.3426C39.9441 45.9911 38.8772 44.6961 38.8772 43.1561C38.8772 41.616 39.944 40.321 41.3773 39.9695V46.3426ZM42.9397 46.3426V39.9695C44.373 40.321 45.4398 41.616 45.4398 43.156C45.4398 44.696 44.373 45.9911 42.9397 46.3426Z" fill="#0D3738"></path>
  <path d="M12.2695 21.27V20.511L14.0075 18.025H15.058V20.456H15.509V21.27H15.058V21.985H14.1175V21.27H12.2695ZM14.1835 19.059L13.2595 20.456H14.1835V19.059ZM18.9392 21.1875V21.985H18.4607C18.1197 21.985 17.8539 21.9025 17.6632 21.7375C17.4725 21.5688 17.3772 21.2957 17.3772 20.918V19.697H17.0032V18.916H17.3772V18.168H18.3177V18.916H18.9337V19.697H18.3177V20.929C18.3177 21.0207 18.3397 21.0867 18.3837 21.127C18.4277 21.1673 18.501 21.1875 18.6037 21.1875H18.9392ZM20.8601 22.029C20.5594 22.029 20.2881 21.9648 20.0461 21.8365C19.8077 21.7082 19.6189 21.5248 19.4796 21.2865C19.3439 21.0482 19.2761 20.7695 19.2761 20.4505C19.2761 20.1352 19.3457 19.8583 19.4851 19.62C19.6244 19.378 19.8151 19.1928 20.0571 19.0645C20.2991 18.9362 20.5704 18.872 20.8711 18.872C21.1717 18.872 21.4431 18.9362 21.6851 19.0645C21.9271 19.1928 22.1177 19.378 22.2571 19.62C22.3964 19.8583 22.4661 20.1352 22.4661 20.4505C22.4661 20.7658 22.3946 21.0445 22.2516 21.2865C22.1122 21.5248 21.9197 21.7082 21.6741 21.8365C21.4321 21.9648 21.1607 22.029 20.8601 22.029ZM20.8601 21.215C21.0397 21.215 21.1919 21.149 21.3166 21.017C21.4449 20.885 21.5091 20.6962 21.5091 20.4505C21.5091 20.2048 21.4467 20.016 21.3221 19.884C21.2011 19.752 21.0507 19.686 20.8711 19.686C20.6877 19.686 20.5356 19.752 20.4146 19.884C20.2936 20.0123 20.2331 20.2012 20.2331 20.4505C20.2331 20.6962 20.2917 20.885 20.4091 21.017C20.5301 21.149 20.6804 21.215 20.8601 21.215ZM24.0041 21.2315C24.1287 21.1325 24.1856 21.0867 24.1746 21.094C24.5339 20.797 24.8162 20.5532 25.0216 20.3625C25.2306 20.1718 25.4066 19.972 25.5496 19.763C25.6926 19.554 25.7641 19.3505 25.7641 19.1525C25.7641 19.0022 25.7292 18.8848 25.6596 18.8005C25.5899 18.7162 25.4854 18.674 25.3461 18.674C25.2067 18.674 25.0967 18.7272 25.0161 18.8335C24.9391 18.9362 24.9006 19.0828 24.9006 19.2735H23.9931C24.0004 18.9618 24.0664 18.7015 24.1911 18.4925C24.3194 18.2835 24.4862 18.1295 24.6916 18.0305C24.9006 17.9315 25.1316 17.882 25.3846 17.882C25.8209 17.882 26.1491 17.9938 26.3691 18.2175C26.5927 18.4412 26.7046 18.7327 26.7046 19.092C26.7046 19.4843 26.5707 19.8492 26.3031 20.1865C26.0354 20.5202 25.6944 20.8465 25.2801 21.1655H26.7651V21.93H24.0041V21.2315ZM27.2011 21.27V20.511L28.9391 18.025H29.9896V20.456H30.4406V21.27H29.9896V21.985H29.0491V21.27H27.2011ZM29.1151 19.059L28.1911 20.456H29.1151V19.059ZM14.2275 23.883C14.5795 23.883 14.8618 24.0003 15.0745 24.235C15.2872 24.466 15.3935 24.785 15.3935 25.192V26.985H14.4585V25.3185C14.4585 25.1132 14.4053 24.9537 14.299 24.84C14.1927 24.7263 14.0497 24.6695 13.87 24.6695C13.6903 24.6695 13.5473 24.7263 13.441 24.84C13.3347 24.9537 13.2815 25.1132 13.2815 25.3185V26.985H12.341V22.915H13.2815V24.3285C13.3768 24.1928 13.507 24.0847 13.672 24.004C13.837 23.9233 14.0222 23.883 14.2275 23.883ZM17.4441 27.029C17.1434 27.029 16.8721 26.9648 16.6301 26.8365C16.3917 26.7082 16.2029 26.5248 16.0636 26.2865C15.9279 26.0482 15.8601 25.7695 15.8601 25.4505C15.8601 25.1352 15.9297 24.8583 16.0691 24.62C16.2084 24.378 16.3991 24.1928 16.6411 24.0645C16.8831 23.9362 17.1544 23.872 17.4551 23.872C17.7557 23.872 18.0271 23.9362 18.2691 24.0645C18.5111 24.1928 18.7017 24.378 18.8411 24.62C18.9804 24.8583 19.0501 25.1352 19.0501 25.4505C19.0501 25.7658 18.9786 26.0445 18.8356 26.2865C18.6962 26.5248 18.5037 26.7082 18.2581 26.8365C18.0161 26.9648 17.7447 27.029 17.4441 27.029ZM17.4441 26.215C17.6237 26.215 17.7759 26.149 17.9006 26.017C18.0289 25.885 18.0931 25.6962 18.0931 25.4505C18.0931 25.2048 18.0307 25.016 17.9061 24.884C17.7851 24.752 17.6347 24.686 17.4551 24.686C17.2717 24.686 17.1196 24.752 16.9986 24.884C16.8776 25.0123 16.8171 25.2012 16.8171 25.4505C16.8171 25.6962 16.8757 25.885 16.9931 26.017C17.1141 26.149 17.2644 26.215 17.4441 26.215ZM22.5795 23.916V26.985H21.639V26.567C21.5437 26.7027 21.4135 26.8127 21.2485 26.897C21.0872 26.9777 20.9075 27.018 20.7095 27.018C20.4748 27.018 20.2677 26.9667 20.088 26.864C19.9083 26.7577 19.769 26.6055 19.67 26.4075C19.571 26.2095 19.5215 25.9767 19.5215 25.709V23.916H20.4565V25.5825C20.4565 25.7878 20.5097 25.9473 20.616 26.061C20.7223 26.1747 20.8653 26.2315 21.045 26.2315C21.2283 26.2315 21.3732 26.1747 21.4795 26.061C21.5858 25.9473 21.639 25.7878 21.639 25.5825V23.916H22.5795ZM24.1956 24.4275C24.3056 24.2588 24.4431 24.1268 24.6081 24.0315C24.7731 23.9325 24.9564 23.883 25.1581 23.883V24.8785H24.8996C24.6649 24.8785 24.4889 24.9298 24.3716 25.0325C24.2542 25.1315 24.1956 25.3075 24.1956 25.5605V26.985H23.2551V23.916H24.1956V24.4275ZM26.8561 27.029C26.5884 27.029 26.3501 26.9832 26.1411 26.8915C25.9321 26.7998 25.7671 26.6752 25.6461 26.5175C25.5251 26.3562 25.4573 26.1765 25.4426 25.9785H26.3721C26.3831 26.0848 26.4326 26.171 26.5206 26.237C26.6086 26.303 26.7168 26.336 26.8451 26.336C26.9624 26.336 27.0523 26.314 27.1146 26.27C27.1806 26.2223 27.2136 26.1618 27.2136 26.0885C27.2136 26.0005 27.1678 25.9363 27.0761 25.896C26.9844 25.852 26.8359 25.8043 26.6306 25.753C26.4106 25.7017 26.2273 25.6485 26.0806 25.5935C25.9339 25.5348 25.8074 25.445 25.7011 25.324C25.5948 25.1993 25.5416 25.0325 25.5416 24.8235C25.5416 24.6475 25.5893 24.488 25.6846 24.345C25.7836 24.1983 25.9266 24.0828 26.1136 23.9985C26.3043 23.9142 26.5298 23.872 26.7901 23.872C27.1751 23.872 27.4776 23.9673 27.6976 24.158C27.9213 24.3487 28.0496 24.6017 28.0826 24.917H27.2136C27.1989 24.8107 27.1513 24.7263 27.0706 24.664C26.9936 24.6017 26.8909 24.5705 26.7626 24.5705C26.6526 24.5705 26.5683 24.5925 26.5096 24.6365C26.4509 24.6768 26.4216 24.7337 26.4216 24.807C26.4216 24.895 26.4674 24.961 26.5591 25.005C26.6544 25.049 26.8011 25.093 26.9991 25.137C27.2264 25.1957 27.4116 25.2543 27.5546 25.313C27.6976 25.368 27.8223 25.4597 27.9286 25.588C28.0386 25.7127 28.0954 25.8813 28.0991 26.094C28.0991 26.2737 28.0478 26.435 27.9451 26.578C27.8461 26.7173 27.7013 26.8273 27.5106 26.908C27.3236 26.9887 27.1054 27.029 26.8561 27.029Z" fill="#0D3738"></path>
</svg>
