<?xml version="1.0" encoding="UTF-8"?>
<svg xmlns="http://www.w3.org/2000/svg" width="55" height="56" viewBox="0 0 55 56" fill="none">
  <path d="M38.3335 15.182L31.3804 8.22884C31.2339 8.08235 31.0352 8 30.828 8H9.34373C8.05139 8 7 9.05147 7 10.3438V45.6563C7 46.9486 8.05139 48 9.34373 48H24.2672C24.6986 48 25.0484 47.6501 25.0484 47.2188C25.0484 46.7874 24.6985 46.4376 24.2672 46.4376H9.34373C8.91292 46.4376 8.56251 46.0871 8.56251 45.6564V10.3438C8.56251 9.913 8.913 9.56259 9.34373 9.56259H30.0467V14.1719C30.0467 15.4643 31.0981 16.5156 32.3904 16.5156H36.9997V30.4218C36.9997 30.8532 37.3496 31.203 37.781 31.203C38.2123 31.203 38.5622 30.8532 38.5622 30.4218V15.7343C38.5623 15.5271 38.48 15.3285 38.3335 15.182ZM32.3905 14.9531C31.9597 14.9531 31.6093 14.6026 31.6093 14.1719V10.6674L35.8951 14.9531H32.3905Z" fill="#0D3738"></path>
  <path d="M32.7811 29.8749H19.2134C18.782 29.8749 18.4322 30.2248 18.4322 30.6561C18.4322 31.0875 18.7821 31.4373 19.2134 31.4373H32.7811C33.2125 31.4373 33.5623 31.0876 33.5623 30.6561C33.5624 30.2248 33.2125 29.8749 32.7811 29.8749Z" fill="#0D3738"></path>
  <path d="M15.3268 29.8749H12.7812C12.3498 29.8749 12 30.2248 12 30.6561C12 31.0875 12.3498 31.4373 12.7812 31.4373H15.3268C15.7582 31.4373 16.108 31.0875 16.108 30.6561C16.108 30.2248 15.7582 29.8749 15.3268 29.8749Z" fill="#0D3738"></path>
  <path d="M26.9999 34.2498H19.2134C18.782 34.2498 18.4322 34.5997 18.4322 35.0311C18.4322 35.4624 18.7821 35.8123 19.2134 35.8123H26.9999C27.4313 35.8123 27.7811 35.4625 27.7811 35.0311C27.7811 34.5997 27.4313 34.2498 26.9999 34.2498Z" fill="#0D3738"></path>
  <path d="M15.3268 34.2498H12.7812C12.3498 34.2498 12 34.5997 12 35.0311C12 35.4624 12.3498 35.8123 12.7812 35.8123H15.3268C15.7582 35.8123 16.108 35.4624 16.108 35.0311C16.108 34.5997 15.7582 34.2498 15.3268 34.2498Z" fill="#0D3738"></path>
  <path d="M19.7655 38.8538C19.6202 38.7085 19.4194 38.6249 19.2132 38.6249C19.0077 38.6249 18.8069 38.7084 18.6608 38.8538C18.5155 38.9991 18.4319 39.2007 18.4319 39.4062C18.4319 39.6116 18.5154 39.8132 18.6608 39.9585C18.8061 40.1038 19.0077 40.1875 19.2132 40.1875C19.4195 40.1875 19.6202 40.1039 19.7655 39.9585C19.9116 39.8132 19.9945 39.6116 19.9945 39.4062C19.9945 39.2007 19.9116 38.9991 19.7655 38.8538Z" fill="#0D3738"></path>
  <path d="M15.3268 38.6249H12.7812C12.3498 38.6249 12 38.9747 12 39.4061C12 39.8375 12.3498 40.1873 12.7812 40.1873H15.3268C15.7582 40.1873 16.108 39.8374 16.108 39.4061C16.1081 38.9747 15.7582 38.6249 15.3268 38.6249Z" fill="#0D3738"></path>
  <path d="M42.1585 38.3122C41.9292 38.3122 41.7038 38.3293 41.483 38.3603C41.9753 36.7091 41.5709 34.8454 40.2696 33.544C39.3547 32.6291 38.1384 32.1253 36.8446 32.1253C35.5507 32.1253 34.3344 32.6291 33.4195 33.544L27.2324 39.731C26.3176 40.6459 25.8137 41.8622 25.8137 43.1561C25.8137 44.45 26.3176 45.6663 27.2324 46.5811C28.1768 47.5254 29.4169 47.9975 30.6574 47.9975C31.8977 47.9975 33.1383 47.5252 34.0825 46.5811L37.3195 43.344C37.4188 45.928 39.5507 47.9998 42.1586 47.9998C44.8295 47.9998 47.0023 45.8269 47.0023 43.156C47.0023 40.485 44.8294 38.3122 42.1585 38.3122ZM32.9775 45.4763C31.6982 46.7557 29.6165 46.7557 28.3372 45.4763C27.7174 44.8565 27.3762 44.0326 27.3762 43.1561C27.3762 42.2797 27.7174 41.4556 28.3372 40.836L30.8784 38.2948L35.5186 42.9352L32.9775 45.4763ZM36.6234 41.8303L31.9831 37.1899L34.5243 34.6489C35.1441 34.0291 35.968 33.6878 36.8444 33.6878C37.7209 33.6878 38.5449 34.0291 39.1646 34.6489C40.4439 35.9281 40.4439 38.0098 39.1646 39.2891L36.6234 41.8303ZM41.3773 46.3426C39.9441 45.9911 38.8772 44.6961 38.8772 43.1561C38.8772 41.616 39.944 40.321 41.3773 39.9695V46.3426ZM42.9397 46.3426V39.9695C44.373 40.321 45.4398 41.616 45.4398 43.156C45.4398 44.696 44.373 45.9911 42.9397 46.3426Z" fill="#0D3738"></path>
  <path d="M12.195 21.3C12.3083 21.21 12.36 21.1683 12.35 21.175C12.6767 20.905 12.9333 20.6833 13.12 20.51C13.31 20.3367 13.47 20.155 13.6 19.965C13.73 19.775 13.795 19.59 13.795 19.41C13.795 19.2733 13.7633 19.1667 13.7 19.09C13.6367 19.0133 13.5417 18.975 13.415 18.975C13.2883 18.975 13.1883 19.0233 13.115 19.12C13.045 19.2133 13.01 19.3467 13.01 19.52H12.185C12.1917 19.2367 12.2517 19 12.365 18.81C12.4817 18.62 12.6333 18.48 12.82 18.39C13.01 18.3 13.22 18.255 13.45 18.255C13.8467 18.255 14.145 18.3567 14.345 18.56C14.5483 18.7633 14.65 19.0283 14.65 19.355C14.65 19.7117 14.5283 20.0433 14.285 20.35C14.0417 20.6533 13.7317 20.95 13.355 21.24H14.705V21.935H12.195V21.3ZM15.1014 21.335V20.645L16.6814 18.385H17.6364V20.595H18.0464V21.335H17.6364V21.985H16.7814V21.335H15.1014ZM16.8414 19.325L16.0014 20.595H16.8414V19.325ZM21.1648 21.26V21.985H20.7298C20.4198 21.985 20.1781 21.91 20.0048 21.76C19.8315 21.6067 19.7448 21.3583 19.7448 21.015V19.905H19.4048V19.195H19.7448V18.515H20.5998V19.195H21.1598V19.905H20.5998V21.025C20.5998 21.1083 20.6198 21.1683 20.6598 21.205C20.6998 21.2417 20.7665 21.26 20.8598 21.26H21.1648ZM22.9111 22.025C22.6377 22.025 22.3911 21.9667 22.1711 21.85C21.9544 21.7333 21.7827 21.5667 21.6561 21.35C21.5327 21.1333 21.4711 20.88 21.4711 20.59C21.4711 20.3033 21.5344 20.0517 21.6611 19.835C21.7877 19.615 21.9611 19.4467 22.1811 19.33C22.4011 19.2133 22.6477 19.155 22.9211 19.155C23.1944 19.155 23.4411 19.2133 23.6611 19.33C23.8811 19.4467 24.0544 19.615 24.1811 19.835C24.3077 20.0517 24.3711 20.3033 24.3711 20.59C24.3711 20.8767 24.3061 21.13 24.1761 21.35C24.0494 21.5667 23.8744 21.7333 23.6511 21.85C23.4311 21.9667 23.1844 22.025 22.9111 22.025ZM22.9111 21.285C23.0744 21.285 23.2127 21.225 23.3261 21.105C23.4427 20.985 23.5011 20.8133 23.5011 20.59C23.5011 20.3667 23.4444 20.195 23.3311 20.075C23.2211 19.955 23.0844 19.895 22.9211 19.895C22.7544 19.895 22.6161 19.955 22.5061 20.075C22.3961 20.1917 22.3411 20.3633 22.3411 20.59C22.3411 20.8133 22.3944 20.985 22.5011 21.105C22.6111 21.225 22.7477 21.285 22.9111 21.285ZM28.1292 18.975L26.8742 21.985H25.9992L27.2692 19.07H25.7142V18.34H28.1292V18.975ZM28.445 21.3C28.5583 21.21 28.61 21.1683 28.6 21.175C28.9267 20.905 29.1833 20.6833 29.37 20.51C29.56 20.3367 29.72 20.155 29.85 19.965C29.98 19.775 30.045 19.59 30.045 19.41C30.045 19.2733 30.0133 19.1667 29.95 19.09C29.8867 19.0133 29.7917 18.975 29.665 18.975C29.5383 18.975 29.4383 19.0233 29.365 19.12C29.295 19.2133 29.26 19.3467 29.26 19.52H28.435C28.4417 19.2367 28.5017 19 28.615 18.81C28.7317 18.62 28.8833 18.48 29.07 18.39C29.26 18.3 29.47 18.255 29.7 18.255C30.0967 18.255 30.395 18.3567 30.595 18.56C30.7983 18.7633 30.9 19.0283 30.9 19.355C30.9 19.7117 30.7783 20.0433 30.535 20.35C30.2917 20.6533 29.9817 20.95 29.605 21.24H30.955V21.935H28.445V21.3ZM14.025 24.165C14.345 24.165 14.6017 24.2717 14.795 24.485C14.9883 24.695 15.085 24.985 15.085 25.355V26.985H14.235V25.47C14.235 25.2833 14.1867 25.1383 14.09 25.035C13.9933 24.9317 13.8633 24.88 13.7 24.88C13.5367 24.88 13.4067 24.9317 13.31 25.035C13.2133 25.1383 13.165 25.2833 13.165 25.47V26.985H12.31V23.285H13.165V24.57C13.2517 24.4467 13.37 24.3483 13.52 24.275C13.67 24.2017 13.8383 24.165 14.025 24.165ZM16.9491 27.025C16.6758 27.025 16.4291 26.9667 16.2091 26.85C15.9925 26.7333 15.8208 26.5667 15.6941 26.35C15.5708 26.1333 15.5091 25.88 15.5091 25.59C15.5091 25.3033 15.5725 25.0517 15.6991 24.835C15.8258 24.615 15.9991 24.4467 16.2191 24.33C16.4391 24.2133 16.6858 24.155 16.9591 24.155C17.2325 24.155 17.4791 24.2133 17.6991 24.33C17.9191 24.4467 18.0925 24.615 18.2191 24.835C18.3458 25.0517 18.4091 25.3033 18.4091 25.59C18.4091 25.8767 18.3441 26.13 18.2141 26.35C18.0875 26.5667 17.9125 26.7333 17.6891 26.85C17.4691 26.9667 17.2225 27.025 16.9491 27.025ZM16.9491 26.285C17.1125 26.285 17.2508 26.225 17.3641 26.105C17.4808 25.985 17.5391 25.8133 17.5391 25.59C17.5391 25.3667 17.4825 25.195 17.3691 25.075C17.2591 24.955 17.1225 24.895 16.9591 24.895C16.7925 24.895 16.6541 24.955 16.5441 25.075C16.4341 25.1917 16.3791 25.3633 16.3791 25.59C16.3791 25.8133 16.4325 25.985 16.5391 26.105C16.6491 26.225 16.7858 26.285 16.9491 26.285ZM21.6177 24.195V26.985H20.7627V26.605C20.6761 26.7283 20.5577 26.8283 20.4077 26.905C20.2611 26.9783 20.0977 27.015 19.9177 27.015C19.7044 27.015 19.5161 26.9683 19.3527 26.875C19.1894 26.7783 19.0627 26.64 18.9727 26.46C18.8827 26.28 18.8377 26.0683 18.8377 25.825V24.195H19.6877V25.71C19.6877 25.8967 19.7361 26.0417 19.8327 26.145C19.9294 26.2483 20.0594 26.3 20.2227 26.3C20.3894 26.3 20.5211 26.2483 20.6177 26.145C20.7144 26.0417 20.7627 25.8967 20.7627 25.71V24.195H21.6177ZM23.0869 24.66C23.1869 24.5067 23.3119 24.3867 23.4619 24.3C23.6119 24.21 23.7785 24.165 23.9619 24.165V25.07H23.7269C23.5135 25.07 23.3535 25.1167 23.2469 25.21C23.1402 25.3 23.0869 25.46 23.0869 25.69V26.985H22.2319V24.195H23.0869V24.66ZM25.5055 27.025C25.2622 27.025 25.0455 26.9833 24.8555 26.9C24.6655 26.8167 24.5155 26.7033 24.4055 26.56C24.2955 26.4133 24.2339 26.25 24.2205 26.07H25.0655C25.0755 26.1667 25.1205 26.245 25.2005 26.305C25.2805 26.365 25.3789 26.395 25.4955 26.395C25.6022 26.395 25.6839 26.375 25.7405 26.335C25.8005 26.2917 25.8305 26.2367 25.8305 26.17C25.8305 26.09 25.7889 26.0317 25.7055 25.995C25.6222 25.955 25.4872 25.9117 25.3005 25.865C25.1005 25.8183 24.9339 25.77 24.8005 25.72C24.6672 25.6667 24.5522 25.585 24.4555 25.475C24.3589 25.3617 24.3105 25.21 24.3105 25.02C24.3105 24.86 24.3539 24.715 24.4405 24.585C24.5305 24.4517 24.6605 24.3467 24.8305 24.27C25.0039 24.1933 25.2089 24.155 25.4455 24.155C25.7955 24.155 26.0705 24.2417 26.2705 24.415C26.4739 24.5883 26.5905 24.8183 26.6205 25.105H25.8305C25.8172 25.0083 25.7739 24.9317 25.7005 24.875C25.6305 24.8183 25.5372 24.79 25.4205 24.79C25.3205 24.79 25.2439 24.81 25.1905 24.85C25.1372 24.8867 25.1105 24.9383 25.1105 25.005C25.1105 25.085 25.1522 25.145 25.2355 25.185C25.3222 25.225 25.4555 25.265 25.6355 25.305C25.8422 25.3583 26.0105 25.4117 26.1405 25.465C26.2705 25.515 26.3839 25.5983 26.4805 25.715C26.5805 25.8283 26.6322 25.9817 26.6355 26.175C26.6355 26.3383 26.5889 26.485 26.4955 26.615C26.4055 26.7417 26.2739 26.8417 26.1005 26.915C25.9305 26.9883 25.7322 27.025 25.5055 27.025Z" fill="#0D3738"></path>
</svg>
