<?xml version="1.0" encoding="UTF-8"?>
<svg xmlns="http://www.w3.org/2000/svg" id="Layer_2" data-name="Layer 2" viewBox="0 0 15.41 15.41">
  <defs>
    <style>
      .cls-1, .cls-2 {
        fill: none;
        stroke: #0b3b3c;
        stroke-miterlimit: 10;
      }

      .cls-2 {
        stroke-width: .5px;
      }
    </style>
  </defs>
  <g id="Layer_1-2" data-name="Layer 1">
    <g>
      <path class="cls-1" d="M3.86,7.43V1.49c0-.56-.43-.99-.99-.99s-.99.43-.99.99v5.93c-.81.37-1.37,1.18-1.37,2.14,0,1.3,1.06,2.36,2.36,2.36s2.36-1.06,2.36-2.36c0-.96-.56-1.77-1.37-2.14h0Z"></path>
      <path class="cls-2" d="M2.86,8.42V2.71"></path>
      <path class="cls-1" d="M11.16,8.64v1.15c0,.53-.43.96-.96.96s-.96-.43-.96-.96v-1.15"></path>
      <path class="cls-1" d="M7.74,4.54v1.8c0,1.37,1.12,2.52,2.49,2.52s2.49-1.12,2.49-2.52v-1.8h-4.97Z"></path>
      <ellipse class="cls-1" cx="2.86" cy="9.57" rx="1.15" ry="1.12"></ellipse>
      <path class="cls-1" d="M3.86,6.56h1.24"></path>
      <path class="cls-1" d="M3.86,5.35h.75"></path>
      <path class="cls-1" d="M3.86,4.17h1.24"></path>
      <path class="cls-1" d="M3.86,2.95h.75"></path>
      <path class="cls-1" d="M3.86,1.74h1.24"></path>
      <path class="cls-1" d="M11.16,9.85c2.14.16,3.76.99,3.76,3.29v.03c0,.96-.84,1.74-1.8,1.74h-5.84c-.96,0-1.8-.78-1.8-1.74v-.03c0-2.3,1.62-3.14,3.76-3.29"></path>
      <path class="cls-1" d="M9.23,9.54c-1.4-.09-2.58-.4-2.58-.9v-4.04c0-1.93,1.49-3.6,3.42-3.67,2.02-.09,3.67,1.55,3.67,3.57v4.1c0,.53-1.18.81-2.58.9"></path>
      <path class="cls-1" d="M11.47,5.78h-.31"></path>
      <path class="cls-1" d="M9.23,5.78h-.28"></path>
      <path class="cls-1" d="M10.78,7.61h-1.18"></path>
      <path class="cls-1" d="M8.27,2.71v.22"></path>
      <path class="cls-1" d="M8.27,3.58v.22"></path>
      <path class="cls-1" d="M8.79,3.23h-.19"></path>
      <path class="cls-1" d="M7.92,3.23h-.19"></path>
      <path class="cls-1" d="M7.58,14.95v-1.24"></path>
      <path class="cls-1" d="M12.83,14.95v-1.24"></path>
    </g>
  </g>
</svg>
