<?xml version="1.0" encoding="UTF-8"?>
<svg xmlns="http://www.w3.org/2000/svg" id="Layer_2" data-name="Layer 2" viewBox="0 0 17.97 17.97">
  <defs>
    <style>
      .cls-1 {
        fill: #0b3b3c;
        stroke: #0b3b3c;
        stroke-linecap: round;
        stroke-linejoin: round;
        stroke-width: .25px;
      }
    </style>
  </defs>
  <g id="Layer_1-2" data-name="Layer 1">
    <path class="cls-1" d="M13.17,2.4h.64c.14,0,.26-.12.26-.26s-.12-.26-.26-.26h-.64c-.14,0-.26.12-.26.26s.12.26.26.26h0ZM13.17,4.48h.64c.14,0,.26-.12.26-.26s-.12-.26-.26-.26h-.64c-.14,0-.26.12-.26.26s.12.26.26.26h0ZM3.01,12.68l-.99.33c-1.13.37-1.9,1.43-1.9,2.62v1.95c0,.14.12.26.26.26s.26-.12.26-.26v-1.95c0-.97.62-1.83,1.54-2.13l.99-.33c.14-.04.21-.19.17-.33s-.19-.21-.33-.17ZM13.17,3.44h.64c.14,0,.26-.12.26-.26s-.12-.26-.26-.26h-.64c-.14,0-.26.12-.26.26s.12.26.26.26h0ZM2.98,15.97c-.14,0-.26.12-.26.26v1.36c0,.14.12.26.26.26s.26-.12.26-.26v-1.36c0-.14-.12-.26-.26-.26ZM13.17,5.52h.64c.14,0,.26-.12.26-.26s-.12-.26-.26-.26h-.64c-.14,0-.26.12-.26.26s.12.26.26.26h0ZM15.49,15.63c0-1.19-.76-2.25-1.9-2.62l-3.4-1.12c-.24-.08-.39-.3-.39-.55v-.64l.06-.04c.92-.53,1.49-1.52,1.49-2.58v-1.37c.68.02,1.27-.5,1.27-1.2s-.58-1.23-1.27-1.2v-2c0-1.21-.99-2.2-2.2-2.2h-2.69c-1.21,0-2.2.99-2.2,2.2v2c-.69-.03-1.27.51-1.27,1.2s.58,1.24,1.27,1.2c0,.28,0,1.1,0,1.37,0,1.06.57,2.05,1.49,2.58l.07.04v.64c0,.25-.16.47-.39.55l-1.25.41c-.14.04-.21.19-.17.33.04.11.14.18.25.18.03,0,.05,0,.08-.01l.61-.2c.67.91,1.72,1.45,2.86,1.45s2.19-.54,2.86-1.45l2.77.91c.92.3,1.54,1.16,1.54,2.13v1.95c0,.14.12.26.26.26h0c.14,0,.26-.12.26-.26v-1.36s0,0,0,0v-.59h0ZM11.35,6.18v-1.34c.39-.04.75.28.75.68s-.35.72-.75.68v-.02ZM4.26,6.18v.02c-.4.03-.75-.27-.75-.68s.35-.71.75-.68v1.34ZM4.78,2.32c0-.93.75-1.68,1.68-1.68h2.69c.93,0,1.68.75,1.68,1.68v1.92c-.31-.04-.62-.13-.91-.27-.28-.14-.54-.32-.77-.54-.17-.16-.43-.19-.62-.06-.45.3-.94.53-1.46.69-.73.23-1.52.3-2.3.22v-1.97h0ZM4.78,4.82c.83.08,1.67,0,2.45-.25.56-.17,1.09-.42,1.58-.75.26.25.56.46.89.62.35.17.74.28,1.13.32v2.47c-.36-.23-.74-.43-1.13-.59-.59-.24-1.21-.38-1.85-.44-.54-.05-1.24.19-1.74.37-.47.17-.92.39-1.34.66v-2.43h0ZM4.78,8.08v-.21c.46-.34.97-.6,1.51-.8.5-.18,1.02-.29,1.54-.34.58.05,1.14.19,1.68.4.47.19.92.44,1.32.74v.21c0,.88-.47,1.69-1.23,2.13l-1.39.8c-.25.14-.56.14-.81,0l-1.39-.8c-.76-.44-1.23-1.26-1.23-2.13h0ZM7.81,13.52c-.91,0-1.76-.41-2.33-1.1l.11-.04c.45-.15.75-.57.75-1.04v-.34l.8.46c.2.12.43.18.66.18s.46-.06.66-.18l.81-.47v.34c0,.47.3.89.75,1.04l.11.04c-.57.69-1.42,1.1-2.33,1.1ZM17.08,6.37v-2.19c0-.14-.12-.26-.26-.26s-.26.12-.26.26v2.21c0,.15.07.28.18.37.37.28.58.71.58,1.18,0,.41-.16.79-.46,1.07-.29.28-.68.43-1.09.41-.79-.03-1.42-.67-1.43-1.46,0-.47.2-.91.58-1.2.12-.09.18-.22.18-.37V1.37c0-.4.33-.73.73-.73s.73.33.73.73v1.6c0,.14.12.26.26.26s.26-.12.26-.26v-1.6c0-.69-.56-1.25-1.25-1.25s-1.25.56-1.25,1.25v5c-.49.39-.77.98-.76,1.61.02,1.06.87,1.93,1.93,1.97.55.02,1.07-.18,1.47-.56.4-.38.62-.9.62-1.45,0-.62-.28-1.19-.76-1.57h0ZM15.83,1.88c-.14,0-.26.12-.26.26v4.87c-.41.11-.71.49-.71.93,0,.53.43.97.97.97s.97-.43.97-.97c0-.44-.3-.82-.71-.93V2.14c0-.14-.12-.26-.26-.26h0ZM16.28,7.94c0,.25-.2.45-.45.45s-.45-.2-.45-.45.2-.45.45-.45.45.2.45.45ZM12.64,15.97c-.14,0-.26.12-.26.26v1.36c0,.14.12.26.26.26s.26-.12.26-.26v-1.36c0-.14-.12-.26-.26-.26ZM6.9,5.94c.11-.09.13-.25.04-.36l-.3-.38c-.08-.1-.19-.15-.31-.15s-.24.06-.31.15l-.3.38c-.09.11-.07.28.04.36.11.09.28.07.36-.04l.2-.26.2.26c.09.11.25.13.36.04h0ZM8.71,5.94c.11.09.28.07.36-.04l.2-.26.2.26c.09.11.25.13.36.04.11-.09.13-.25.04-.36l-.3-.38c-.08-.1-.19-.15-.31-.15h0c-.12,0-.24.06-.31.15l-.3.38c-.09.11-.07.28.04.36h0Z"></path>
  </g>
</svg>
