<svg xmlns="http://www.w3.org/2000/svg" width="100" height="100" viewBox="0 0 100 100" fill="none"><rect width="100" height="100" rx="6" fill="#DAE7D6"></rect><path d="M82.0484 73.5645H80.4192C80.7969 72.93 80.9983 72.2061 81.0025 71.4677V52.5968C81.0013 51.485 80.559 50.419 79.7729 49.6329C78.9867 48.8467 77.9208 48.4045 76.809 48.4032H52.6961C52.1435 48.4033 51.5965 48.5132 51.0868 48.7267C50.2404 48.521 49.3734 48.4125 48.5025 48.4032H44.8332V47.5975C45.9087 46.8319 46.8213 45.86 47.5178 44.7385C48.2142 43.6169 48.6808 42.368 48.8902 41.0645H49.0265C50.1383 41.0633 51.2042 40.621 51.9904 39.8349C52.7766 39.0487 53.2188 37.9828 53.22 36.871V32.1532C53.22 28.3996 51.7289 24.7996 49.0747 22.1454C46.4204 19.4911 42.8205 18 39.0668 18C35.3132 18 31.7132 19.4911 29.059 22.1454C26.4047 24.7996 24.9136 28.3996 24.9136 32.1532V36.871C24.9149 37.9828 25.3571 39.0487 26.1433 39.8348C26.9294 40.621 27.9953 41.0632 29.1071 41.0645H29.2434C29.4529 42.368 29.9195 43.6169 30.616 44.7385C31.3125 45.86 32.2251 46.8319 33.3007 47.5975V48.4032H29.6313C26.5739 48.4067 23.6426 49.6228 21.4806 51.7848C19.3187 53.9467 18.1025 56.878 18.0991 59.9355V70.4194C18.1031 71.5573 18.481 72.6623 19.1745 73.5645H17.0484C16.7703 73.5645 16.5037 73.675 16.3071 73.8716C16.1105 74.0682 16 74.3349 16 74.6129V81.9516C16 82.2297 16.1105 82.4963 16.3071 82.6929C16.5037 82.8895 16.7703 83 17.0484 83H82.0484C82.3264 83 82.5931 82.8895 82.7897 82.6929C82.9863 82.4963 83.0968 82.2297 83.0968 81.9516V74.6129C83.0968 74.3349 82.9863 74.0682 82.7897 73.8716C82.5931 73.675 82.3264 73.5645 82.0484 73.5645ZM76.809 50.5C77.3649 50.5005 77.8979 50.7216 78.291 51.1147C78.6841 51.5078 78.9052 52.0408 78.9057 52.5968V71.4677C78.9052 72.0237 78.6841 72.5567 78.291 72.9498C77.8979 73.3429 77.3649 73.564 76.809 73.5645H50.5993V52.5968C50.5998 52.0408 50.8209 51.5078 51.214 51.1147C51.6071 50.7216 52.1401 50.5006 52.6961 50.5H76.809ZM45.2846 73.5645C45.1456 72.4554 44.7844 71.3857 44.2226 70.4194H48.5025V73.5645H45.2846ZM38.0186 68.4178C39.3049 68.6364 40.4916 69.2489 41.4149 70.1708C42.3382 71.0928 42.9525 72.2785 43.173 73.5645H38.0186V68.4178ZM49.0267 38.9677V34.7742C49.5828 34.7742 50.1161 34.9951 50.5094 35.3883C50.9026 35.7815 51.1235 36.3149 51.1235 36.871C51.1235 37.4271 50.9026 37.9604 50.5094 38.3536C50.1161 38.7468 49.5828 38.9677 49.0267 38.9677ZM39.067 20.0968C42.2635 20.1003 45.3281 21.3717 47.5883 23.6319C49.8486 25.8922 51.12 28.9567 51.1235 32.1532V33.2608C50.489 32.883 49.7651 32.6816 49.0267 32.6774H48.4933L44.7573 27.843C44.6641 27.7224 44.5459 27.6236 44.4107 27.5534C44.2755 27.4833 44.1267 27.4434 43.9745 27.4365C43.8224 27.4297 43.6706 27.4561 43.5296 27.5139C43.3887 27.5717 43.2621 27.6596 43.1586 27.7713C41.7219 29.3165 39.9825 30.5495 38.0488 31.3936C36.115 32.2376 34.0282 32.6746 31.9183 32.6774H29.1074C28.3689 32.6816 27.6451 32.8831 27.0106 33.2608V32.1532C27.0141 28.9567 28.2855 25.8922 30.5458 23.6319C32.806 21.3717 35.8706 20.1003 39.067 20.0968ZM27.0106 36.871C27.0111 36.315 27.2322 35.782 27.6253 35.3889C28.0184 34.9958 28.5514 34.7747 29.1074 34.7742V38.9677C28.5514 38.9672 28.0184 38.7461 27.6253 38.353C27.2322 37.9599 27.0111 37.4269 27.0106 36.871ZM31.2041 39.4919V34.7742H31.9183C36.3402 34.768 40.5957 33.0868 43.828 30.0692L46.93 34.0836V39.4919C46.93 41.5773 46.1016 43.5773 44.627 45.0518C43.1525 46.5264 41.1525 47.3548 39.0671 47.3548C36.9818 47.3548 34.9818 46.5264 33.5072 45.0518C32.0326 43.5773 31.2041 41.5773 31.2041 39.4919ZM39.067 49.4516C40.3241 49.4504 41.5694 49.2097 42.7364 48.7424V49.9758C42.7364 50.949 42.3498 51.8823 41.6617 52.5704C40.9735 53.2586 40.0402 53.6452 39.067 53.6452C38.0939 53.6452 37.1605 53.2586 36.4724 52.5704C35.7843 51.8823 35.3977 50.949 35.3977 49.9758V48.7424C36.5646 49.2097 37.81 49.4504 39.067 49.4516ZM20.1961 70.4194V59.9355C20.1988 57.4339 21.1938 55.0355 22.9627 53.2667C24.7316 51.4978 27.13 50.5028 29.6315 50.5H33.3275C33.4577 51.9323 34.1186 53.2642 35.1806 54.2341C36.2426 55.204 37.6289 55.7417 39.0671 55.7417C40.5053 55.7417 41.8915 55.204 42.9535 54.2341C44.0155 53.2642 44.6765 51.9323 44.8066 50.5H48.5025C48.688 50.5 48.8774 50.527 49.0648 50.539C48.7009 51.1641 48.5071 51.8735 48.5025 52.5968V68.3226H42.4992C40.9741 66.972 39.0074 66.2262 36.9703 66.2258H26.4864C26.2083 66.2258 25.9417 66.3363 25.7451 66.5329C25.5485 66.7295 25.438 66.9961 25.438 67.2742C25.438 67.5522 25.5485 67.8189 25.7451 68.0155C25.9417 68.2121 26.2083 68.3226 26.4864 68.3226H35.9219V73.5645H23.3412C22.5074 73.5636 21.7079 73.2319 21.1183 72.6423C20.5286 72.0527 20.197 71.2532 20.1961 70.4194ZM81 80.9032H18.0968V75.6613H81V80.9032Z" fill="#0A3A3B" stroke="#0A3A3B" stroke-width="0.5"></path><path d="M64.7525 67.2742C65.7893 67.2742 66.8027 66.9668 67.6648 66.3908C68.5268 65.8148 69.1987 64.9961 69.5954 64.0383C69.9922 63.0804 70.096 62.0264 69.8937 61.0096C69.6914 59.9928 69.1922 59.0587 68.4591 58.3256C67.726 57.5925 66.792 57.0933 65.7751 56.891C64.7583 56.6888 63.7043 56.7926 62.7465 57.1893C61.7887 57.5861 60.97 58.258 60.394 59.12C59.818 59.982 59.5106 60.9955 59.5106 62.0323C59.5122 63.422 60.065 64.7544 61.0477 65.7371C62.0304 66.7198 63.3627 67.2726 64.7525 67.2742ZM64.7525 58.8871C65.3745 58.8871 65.9826 59.0716 66.4999 59.4171C67.0171 59.7627 67.4202 60.2539 67.6582 60.8287C67.8963 61.4034 67.9586 62.0357 67.8372 62.6458C67.7159 63.2559 67.4163 63.8164 66.9765 64.2562C66.5366 64.6961 65.9762 64.9956 65.3661 65.117C64.756 65.2383 64.1236 65.1761 63.5489 64.938C62.9742 64.7 62.483 64.2968 62.1374 63.7796C61.7918 63.2624 61.6073 62.6543 61.6073 62.0323C61.6082 61.1984 61.9399 60.3989 62.5295 59.8093C63.1192 59.2197 63.9186 58.888 64.7525 58.8871Z" fill="#0A3A3B" stroke="#0A3A3B" stroke-width="0.5"></path></svg>