<?xml version="1.0" encoding="UTF-8"?>
<svg xmlns="http://www.w3.org/2000/svg" id="Layer_2" data-name="Layer 2" viewBox="0 0 13.43 17.99">
  <defs>
    <style>
      .cls-1 {
        fill: #0b3b3c;
        stroke: #0b3b3c;
        stroke-linecap: round;
        stroke-linejoin: round;
        stroke-width: .49px;
      }
    </style>
  </defs>
  <g id="Layer_1-2" data-name="Layer 1">
    <g>
      <path class="cls-1" d="M13.18,15.01c-.06-.3-.44-.52-.92-.79-.29-.17-.63-.36-.74-.5-.23-.3-.33-1.1-.3-1.56.01-.23.33-1.03.63-1.81.47-1.19,1-2.55,1.06-3.3.14-1.68-.33-3.96-2.07-5.35-.8-.62-2.25-1.34-3.95-1.43-1.35-.07-3.28.24-4.86,2.14-.75.91-1.15,1.61-1.17,2.1,0,.03-.12,2.73.1,3.04.03.04.06.08.1.12.08.09.14.19.19.29-.03.09-.17.43-.86,1.67l-.05.09c-.16.34-.09.74.18,1,.14.09.3.16.46.2.08.03.2.06.27.1-.01.14-.04.27-.1.4-.18.32.16.57.39.73-.05.06-.08.14-.1.21-.02.14.02.28.11.39.05.07.08.14.11.22,0,.25-.01.49-.06.73l-.03.24c-.07.58.54,1.01.97,1.15.15.05,1.29.04,1.85-.09.37.81.66,1.66.86,2.53.03.13.14.22.27.21.02,0,.04,0,.06,0,.15-.03.24-.18.21-.33-.15-.62-.33-1.23-.56-1.83-.41-1.09-.55-1.13-.66-1.16-.08-.02-.17-.01-.25.04-.53.1-1.07.13-1.61.12-.31-.11-.63-.36-.61-.57l.03-.24c.06-.47.1-.78.04-.98-.04-.12-.1-.23-.17-.34v-.02s.02-.03.02-.03c.09-.07.15-.17.16-.29,0-.1-.04-.19-.12-.26-.06-.06-.13-.11-.2-.16-.05-.04-.14-.1-.2-.15.09-.23.12-.48.11-.73-.04-.24-.3-.33-.65-.44-.09-.03-.18-.06-.27-.1-.06-.09-.08-.21-.05-.31l.05-.09c.86-1.55.93-1.79.93-1.93,0-.25-.17-.47-.31-.65-.02-.03-.04-.05-.06-.08-.07-.3-.05-2.04-.02-2.71.02-.35.4-1,1.05-1.78,2.62-3.17,6.62-1.76,8.04-.62,2.03,1.62,1.91,4.35,1.87,4.88-.06.67-.59,2.04-1.03,3.14-.42,1.06-.66,1.68-.67,1.99-.02.36.02,1.42.42,1.92.18.23.53.43.9.64.22.13.59.33.65.44.03.15.18.24.33.2s.24-.18.2-.33h0ZM4.68,14.87s-.06.05-.1.06c.04-.01.07-.04.1-.06Z"></path>
      <path class="cls-1" d="M9.25,7.26c-.14-.05-.29.02-.35.16-.56,1.48-2.22,2.23-3.7,1.66,0,0,0,0,0,0-.14-.05-.3.02-.35.16s.02.3.16.35c1.76.67,3.74-.21,4.41-1.98,0,0,0,0,0,0,.05-.14-.02-.3-.16-.35h0s0,0,0,0Z"></path>
      <path class="cls-1" d="M7.43,3.2c-1.76-.67-3.73.22-4.4,1.98-.05.14.02.3.16.35.14.05.3-.02.35-.16,0,0,0,0,0,0,.56-1.48,2.22-2.22,3.7-1.66.14.05.3-.02.35-.16.05-.14-.02-.3-.16-.35h0Z"></path>
      <path class="cls-1" d="M6.12,8.64h.09c1.2,0,2.19-.95,2.24-2.15,0-.15-.11-.28-.26-.28-.15,0-.28.11-.28.26h0c-.04.94-.83,1.66-1.76,1.63-.15,0-.28.11-.28.26,0,.15.11.28.26.28h0Z"></path>
      <path class="cls-1" d="M4.23,6.59h.01c.15,0,.27-.12.27-.26.04-.94.83-1.66,1.76-1.63.15,0,.28-.11.28-.26s-.11-.28-.26-.28c-1.24-.05-2.28.91-2.33,2.15,0,.15.11.28.26.28,0,0,0,0,0,0h0Z"></path>
      <path class="cls-1" d="M6.21,7.49c.6.01,1.1-.47,1.12-1.07s-.47-1.1-1.07-1.12c-.6-.02-1.11.44-1.14,1.05-.02.6.44,1.11,1.05,1.14h.05ZM5.67,6.37c.01-.29.25-.53.55-.52h.02c.3.01.54.27.52.57-.01.3-.27.54-.57.52-.3-.01-.54-.27-.52-.57h0Z"></path>
    </g>
  </g>
</svg>
