<?xml version="1.0" encoding="UTF-8"?>
<svg xmlns="http://www.w3.org/2000/svg" id="Layer_2" data-name="Layer 2" viewBox="0 0 16.12 16.2">
  <defs>
    <style>
      .cls-1 {
        stroke: #0b3b3c;
        stroke-linecap: round;
        stroke-linejoin: round;
        stroke-width: .25px;
      }

      .cls-1, .cls-2 {
        fill: #0b3b3c;
      }

      .cls-2 {
        stroke-width: 0px;
      }
    </style>
  </defs>
  <g id="Layer_1-2" data-name="Layer 1">
    <g>
      <path class="cls-1" d="M15.25,9.73c-1.02-1.02-1.84-2.19-2.45-3.48,0,0,0,0,0,0,.48.38,1.01.69,1.59.91.34.13.56.45.56.81,0,.13-.03.27-.09.39l-.05.09c-.05.11,0,.23.1.29h0s.07.03.07.03c0,0,0,0,.02,0,.1.05.23.01.29-.09l.05-.09c.1-.19.15-.41.15-.62,0-.58-.36-1.1-.9-1.3-.85-.32-1.6-.85-2.18-1.55l-.11-.13h0s-.17-.45-.17-.45c-.34-.92-.95-1.69-1.75-2.25-.8-.56-1.74-.85-2.72-.85-2.17,0-3.93,1.76-3.93,3.93,0,.37.05.73.15,1.08l.29,1s0,0,0,0l-1.66,5.18c-.06.18-.09.37-.09.55v.03c0,1,.82,1.82,1.82,1.82.4,0,.8-.14,1.12-.38l1.42-1.1s0,0,0,0l.39,2.53s0,0,0,0h7.29s0,0,0,0v-2.19s0,0,0,0l.16-.08c.87-.43,1.41-1.31,1.41-2.27,0-.68-.26-1.32-.74-1.8ZM5.01,14.23c-.23.18-.51.27-.8.27-.72,0-1.3-.58-1.3-1.3v-.03c0-.13.02-.27.06-.4l1.82-5.68c.09-.27.34-.45.62-.45.36,0,.64.31.64.66h0c0,.18-.07.34-.19.46l-.84.84s0,0,0,0l-.45,3.8c-.04.34-.17.66-.38.93-.08.1-.07.25.02.35h0c.11.11.3.1.39-.03.2-.26.35-.56.43-.87,0,0,0,0,0,0l.79.79s0,0,0,0l-.81.63ZM5.87,8.51s0,0,0,0l.48.63c.12.16.26.31.41.45,0,0,0,0,0,0-.51.24-.99.53-1.44.89,0,0,0,0,0,0l.19-1.61s0,0,0,0l.36-.36ZM11.01,6.57l-.21-.42s0,0,0,0c.04-.01.07-.02.11-.02.21,0,.37.17.37.37,0,.14-.05.26-.15.36,0,0,0,0,0,0-.04-.1-.08-.2-.12-.29ZM9.98,5.69s0,0,0,0l.56,1.12c.14.29.22.61.22.92,0,1.14-.93,2.07-2.07,2.07-.75,0-1.47-.36-1.93-.96l-.52-.69s0,0,0,0c.05-.05.1-.11.14-.17,0,0,0,0,0,0h.13c.35,0,.67-.15.89-.39.12-.13.07-.33-.08-.41h0c-.1-.05-.23-.03-.31.06-.11.13-.27.2-.45.22,0,0,0,0,0,0,0-.04,0-.07,0-.11v-.02c0-.38-.18-.72-.47-.93,0,0,0,0,0,0,.21-.31.35-.66.42-1.03,0,0,0,0,0,0l.24.19c.49.39,1.11.61,1.74.61.53,0,1.04-.16,1.48-.45ZM10.24,9.81c-.04.6-.56,1.07-1.17,1.03-.35-.02-.66-.21-.86-.51l-.04-.06s0,0,0,0c.17.03.35.05.53.05.58,0,1.11-.19,1.54-.51,0,0,0,0,0,0ZM7.13,12.56c-.02-.11-.03-.22-.03-.34v-.05c0-.25.06-.5.14-.74.04-.12-.01-.26-.13-.32h0c-.14-.07-.31,0-.36.14-.11.31-.17.63-.17.96h0c0,.15.01.29.03.43l.05.31s0,0,0,0l-.42.32s0,0,0,0l-1.11-1.11s0,0,0,0l.11-.91s0,0,0,0c.6-.56,1.28-.99,2.03-1.3,0,0,0,0,0,0,.03.02.05.03.08.04,0,0,0,0,0,0l.42.63c.29.43.76.72,1.28.74.94.05,1.71-.7,1.71-1.62v-.45s0,0,0,0c.03-.04.06-.08.09-.12,0,0,0,0,0,0,.34.57.91.98,1.58,1.11.85.16,1.47.9,1.47,1.76v.9s0,0,0,0h-2.09s0,0,0,0v-1.33c0-.05.08-.24.13-.39.04-.11.01-.22-.07-.3h0c-.14-.15-.38-.11-.47.07-.07.15-.11.32-.11.5v1.46c0,.29.23.52.52.52,0,0,0,0,0,0,0,.06,0,2.03,0,2.09,0,0,0,0,0,0h-4.22s0,0,0,0l-.46-2.99ZM12.33,15.55v-2.09s0,0,0,0h1.57s0,0,0,0v2.09s0,0,0,0h-1.57s0,0,0,0ZM14.43,13.29s0,0,0,0v-1.26c0-.55-.51-1.46-.51-1.46-.2-.29-.9-.63-1.38-.82-.61-.23-1.17-.56-1.37-1.17v-.03s0,0,0,0c.09-.26.14-.54.14-.83,0-.1,0-.21-.02-.31,0,0,0,0,0,0l.08-.06c.29-.19.46-.51.46-.86,0-.49-.4-.9-.9-.9-.12,0-.24.02-.34.07,0,0,0,0,0,0l-.16-.33s0,0,0,0c.09-.09.17-.18.25-.29h0s.02-.1-.02-.14l-.26-.2s-.1-.02-.14.02h0c-.41.54-1.05.86-1.73.86-.51,0-1.01-.18-1.41-.49l-1.04-.83s0,0,0,0v.54c0,.48-.15.94-.43,1.33,0,0,0,0,0,0-.07-.01-.14-.02-.21-.02-.39,0-.74.19-.96.5,0,0,0,0,0,0l-.1-.34c-.09-.3-.13-.62-.13-.94,0-1.88,1.53-3.41,3.41-3.41,1.76,0,3.37,1.11,3.99,2.76l.29.77c.66,1.75,1.66,3.3,2.98,4.62.38.38.59.89.59,1.43,0,.74-.4,1.41-1.04,1.77Z"></path>
      <path class="cls-2" d="M2.41,5.09l.65-.22c.11-.04.17-.15.13-.26l-.03-.1c-.04-.11-.15-.17-.26-.13l-1.46.49c-.15.05-.19.23-.08.34h0c.11.11.06.31-.1.35l-1.09.27c-.11.03-.18.14-.15.25l.03.11c.03.11.14.18.25.15l1.99-.5c.16-.04.21-.23.1-.35l-.05-.05c-.11-.11-.07-.29.08-.34Z"></path>
      <path class="cls-2" d="M2.65,3.27l.52.17c.1.03.21-.02.25-.12l.04-.12c.03-.1-.02-.21-.12-.25l-1.51-.5c-.15-.05-.3.09-.25.25h0c.05.16-.1.3-.25.25l-1.01-.38c-.1-.04-.21.01-.25.11l-.05.12c-.04.1.01.21.11.25l2.04.76c.15.06.31-.09.25-.25l-.02-.05c-.05-.15.09-.3.25-.25Z"></path>
      <path class="cls-2" d="M2.44,1.58l1.19.95c.1.08.24.06.32-.04l.05-.06c.08-.1.06-.24-.04-.32l-.43-.35c-.14-.11-.1-.33.07-.39h0c.17-.06.21-.28.07-.39L2.47.05c-.1-.08-.24-.06-.32.04l-.05.06c-.08.1-.06.24.04.32l.43.35c.14.11.1.33-.07.39h0c-.17.06-.21.28-.07.39Z"></path>
      <path class="cls-2" d="M8.46,7.06l.15.12c.35,0,.67-.15.9-.4.11-.13.07-.32-.08-.4h-.01c-.1-.06-.23-.03-.3.05-.13.14-.31.22-.5.22h0c-.11,0-.2.09-.2.2l.05.2h0Z"></path>
      <path class="cls-2" d="M8.02,8.99h0c-.05.07-.03.17.04.22l.17.11c.07.05.17.03.22-.04h0c.18-.28.47-.46.79-.52.12-.02.21-.13.21-.26h0c0-.16-.14-.29-.3-.26-.46.08-.87.35-1.13.74Z"></path>
    </g>
  </g>
</svg>
