<svg xmlns="http://www.w3.org/2000/svg" width="100" height="100" viewBox="0 0 100 100" fill="none"><rect width="100" height="100" rx="6" fill="#DAE7D6"></rect><path d="M45.7002 50.3912H53.4777C54.0052 50.3912 54.4326 49.9638 54.4326 49.4363C54.4326 46.7655 52.2597 44.5925 49.589 44.5925C46.9182 44.5925 44.7452 46.7655 44.7452 49.4363C44.7452 49.9638 45.1727 50.3912 45.7002 50.3912ZM49.589 46.5024C50.8726 46.5024 51.9663 47.331 52.3633 48.4815H46.8146C47.2116 47.3309 48.3054 46.5024 49.589 46.5024Z" fill="#0A3A3B" stroke="#0A3A3B" stroke-width="0.5"></path><path d="M42.6865 41.7308C42.7085 41.7248 42.8903 41.6738 43.1722 41.5628V41.6959C43.1722 42.2234 43.5997 42.6508 44.1272 42.6508C44.6545 42.6508 45.0821 42.2234 45.0821 41.6959V40.4851C45.3116 40.3098 45.5427 40.113 45.7677 39.892C46.1439 39.5224 46.1493 38.9178 45.7797 38.5416C45.41 38.1652 44.8057 38.1601 44.4293 38.5295C43.4129 39.5278 42.2075 39.8815 42.18 39.8892C41.6734 40.0296 41.3753 40.5533 41.5138 41.0608C41.6298 41.4855 42.0145 41.7645 42.4344 41.7645C42.5178 41.7647 42.6023 41.7538 42.6865 41.7308Z" fill="#0A3A3B" stroke="#0A3A3B" stroke-width="0.5"></path><path d="M53.3982 38.5417C53.0287 38.918 53.034 39.5225 53.4103 39.8921C53.6352 40.1131 53.8662 40.3098 54.0957 40.4851V41.696C54.0957 42.2235 54.5231 42.6509 55.0506 42.6509C55.5781 42.6509 56.0056 42.2235 56.0056 41.696V41.5629C56.2877 41.6739 56.4695 41.7249 56.4913 41.7309C56.5753 41.7537 56.6598 41.7648 56.7428 41.7648C57.1608 41.7648 57.5431 41.4873 57.6607 41.0646C57.8013 40.5581 57.504 40.0325 56.9982 39.8896C56.986 39.8861 55.7713 39.5345 54.7486 38.5296C54.3724 38.1602 53.7682 38.1655 53.3982 38.5417Z" fill="#0A3A3B" stroke="#0A3A3B" stroke-width="0.5"></path><path d="M44.1611 81.0901H39.8131V70.7859C39.8131 70.2584 39.3857 69.8309 38.8582 69.8309C38.3307 69.8309 37.9032 70.2584 37.9032 70.7859V75.2857H30.6905V71.8835C30.6905 67.9685 32.0567 64.1499 34.5374 61.131C36.7307 58.462 39.6992 56.5212 42.9907 55.5813C43.3845 58.8733 46.1924 61.4346 49.5889 61.4346C52.9854 61.4346 55.7933 58.8732 56.187 55.581C58.7159 56.3014 61.0545 57.6089 63.0069 59.4041C63.1902 59.5729 63.4219 59.6561 63.653 59.6561C63.9108 59.6561 64.1679 59.5523 64.356 59.3475C64.713 58.9593 64.6878 58.3554 64.2994 57.9984C62.3389 56.1957 60.0272 54.8366 57.526 53.9987C59.6929 52.3204 61.3172 49.9734 62.0848 47.2693C62.517 47.3978 62.9674 47.4648 63.4239 47.4648C66.0167 47.4648 68.126 45.3554 68.126 42.7626C68.126 41.748 67.8019 40.8083 67.2534 40.0392C69.6082 34.1936 69.619 28.5066 67.2652 24.3632C65.8169 21.814 63.5997 20.1644 61.1817 19.8377C58.6406 19.4947 56.6553 20.0643 55.6083 20.4859C55.3367 20.17 54.9477 19.8024 54.4036 19.4496C52.7876 18.4016 50.5442 17.9183 47.7347 18.0112C45.4051 18.0889 43.2156 19.0081 40.8441 20.9036C40.4321 21.2328 40.3651 21.8338 40.6944 22.2456C41.0235 22.6576 41.6246 22.7248 42.0364 22.3953C44.0702 20.7698 45.901 19.9831 47.7983 19.92C53.0579 19.7459 54.3175 21.9097 54.4033 22.0706C54.5011 22.3311 54.7021 22.5146 54.9646 22.6102C55.2309 22.7071 55.52 22.6585 55.7649 22.5162C55.7857 22.5042 57.8723 21.3171 60.9258 21.7301C62.7481 21.9762 64.4533 23.2798 65.6046 25.3063C66.561 26.9897 68.3976 31.551 65.7366 38.6709C65.0531 38.2831 64.2642 38.0604 63.4239 38.0604C63.1389 38.0604 62.8551 38.0875 62.576 38.1386V37.9823C62.576 36.6543 62.0254 35.3849 61.0655 34.4995C58.8869 32.4897 56.4188 28.9446 55.4588 27.5138C55.1857 27.1067 54.749 26.852 54.2605 26.8151C53.7682 26.7784 53.2956 26.9659 52.9618 27.3305C51.2624 29.1863 49.2391 30.7693 46.9329 32.0521C46.5495 29.2339 43.6537 27.2711 43.522 27.1832C43.2012 26.9694 42.7834 26.9694 42.4627 27.1832C42.3217 27.2772 39.0092 29.5216 39.0092 32.6644C39.0092 33.4641 39.2469 34.2088 39.6542 34.8334C39.405 34.8902 39.157 34.9441 38.9125 34.9918C37.5734 35.2535 36.6016 36.4349 36.6016 37.8009V38.1386C36.3225 38.0875 36.0388 38.0604 35.7538 38.0604C35.2405 38.0604 34.7468 38.1442 34.2839 38.2969C33.4244 36.893 31.4943 33.2405 31.289 28.4747C32.153 28.5628 33.3668 28.5899 34.5183 28.2793C36.1877 27.829 37.7521 26.3372 39.2649 24.8944C39.6467 24.5304 39.6609 23.926 39.297 23.5444C38.9332 23.1626 38.3288 23.1484 37.947 23.5122C36.6069 24.7902 35.2213 26.1116 34.0211 26.4353C32.4342 26.8632 30.5568 26.4323 30.5394 26.4284C30.2579 26.3615 29.9607 26.4257 29.732 26.6037C29.5034 26.7814 29.3678 27.0535 29.3636 27.3432C29.2787 33.1181 31.5577 37.5168 32.6259 39.2552C31.6607 40.1169 31.0516 41.3695 31.0516 42.7621C31.0516 45.3549 33.1609 47.4643 35.7537 47.4643C36.2103 47.4643 36.6606 47.3973 37.0928 47.2688C37.8604 49.9727 39.4844 52.3195 41.6511 53.9977C38.3148 55.1181 35.3187 57.1714 33.062 59.9178C30.3012 63.2775 28.7808 67.5267 28.7808 71.8829V82.0444C28.7808 82.5719 29.2082 82.9994 29.7357 82.9994H44.1611C44.6885 82.9994 45.1161 82.5719 45.1161 82.0444C45.1161 81.5176 44.6886 81.0901 44.1611 81.0901ZM63.4242 39.9703C64.9639 39.9703 66.2165 41.2229 66.2165 42.7626C66.2165 44.3025 64.9639 45.5551 63.4242 45.5551C63.0967 45.5551 62.7745 45.4975 62.4705 45.3869C62.5402 44.8431 62.5763 44.289 62.5763 43.7267V40.1025C62.8491 40.0156 63.1356 39.9703 63.4242 39.9703ZM42.1592 29.9917C42.453 29.6627 42.7505 29.3884 42.9925 29.1835C43.2345 29.3884 43.5319 29.6627 43.8258 29.9917C44.3915 30.625 45.0659 31.6028 45.0659 32.6645C45.0659 33.8078 44.1357 34.7379 42.9925 34.7379C41.8493 34.7379 40.9191 33.8078 40.9191 32.6645C40.9191 31.6028 41.5935 30.625 42.1592 29.9917ZM35.7538 45.5551C34.2141 45.5551 32.9615 44.3025 32.9615 42.7626C32.9615 41.2229 34.2141 39.9703 35.7538 39.9703C36.0423 39.9703 36.3288 40.0156 36.6016 40.1023V43.7266C36.6016 44.289 36.6376 44.8431 36.7073 45.3869C36.4035 45.4975 36.0813 45.5551 35.7538 45.5551ZM38.5115 43.7266V37.8011C38.5115 37.3462 38.8342 36.9533 39.2788 36.8663C39.9924 36.7269 40.7265 36.5498 41.4653 36.3428C41.9359 36.5389 42.4517 36.6477 42.9925 36.6477C44.5712 36.6477 45.9383 35.7246 46.5824 34.3897C49.477 32.9668 52.0031 31.1273 54.0987 28.9119C55.2209 30.5616 57.6018 33.9022 59.7709 35.9032C60.34 36.4282 60.6663 37.186 60.6663 37.9823V43.7265C60.6663 49.8347 55.697 54.804 49.5889 54.804C43.4808 54.8041 38.5115 49.8348 38.5115 43.7266ZM49.589 56.7139C51.2125 56.7139 52.7669 56.4135 54.2007 55.8671C53.7106 57.9606 51.8297 59.5247 49.589 59.5247C47.3481 59.5247 45.4672 57.9606 44.9772 55.8671C46.4111 56.4136 47.9655 56.7139 49.589 56.7139ZM37.9033 81.0901H30.6906V77.1955H37.9033V81.0901Z" fill="#0A3A3B" stroke="#0A3A3B" stroke-width="0.5"></path><path d="M65.6172 60.7812C65.1864 61.0856 65.0841 61.6816 65.3886 62.1121C67.4157 64.9796 68.4872 68.3584 68.4872 71.8835V75.2857H61.2745V70.7859C61.2745 70.2584 60.847 69.8309 60.3195 69.8309C59.792 69.8309 59.3646 70.2584 59.3646 70.7859V81.0901H47.977C47.4495 81.0901 47.0221 81.5176 47.0221 82.0451C47.0221 82.5726 47.4495 83 47.977 83H69.442C69.9694 83 70.3969 82.5726 70.3969 82.0451V71.8835C70.3969 67.9616 69.2043 64.2015 66.948 61.0097C66.6438 60.5792 66.0479 60.4767 65.6172 60.7812ZM68.4872 81.0901H61.2745V77.1955H68.4872V81.0901Z" fill="#0A3A3B" stroke="#0A3A3B" stroke-width="0.5"></path><path d="M56.4172 37.3077C56.9446 37.3077 57.3721 36.8803 57.3721 36.3528V35.4298C57.3721 34.9025 56.9446 34.4749 56.4172 34.4749C55.8897 34.4749 55.4622 34.9023 55.4622 35.4298V36.3528C55.4622 36.8803 55.8897 37.3077 56.4172 37.3077Z" fill="#0A3A3B" stroke="#0A3A3B" stroke-width="0.5"></path><path d="M53.6255 34.7163C54.1528 34.7163 54.5804 34.2889 54.5804 33.7614V32.8385C54.5804 32.311 54.153 31.8835 53.6255 31.8835C53.098 31.8835 52.6705 32.311 52.6705 32.8385V33.7614C52.6705 34.2889 53.098 34.7163 53.6255 34.7163Z" fill="#0A3A3B" stroke="#0A3A3B" stroke-width="0.5"></path><path d="M50.5068 36.8463C51.0343 36.8463 51.4618 36.4188 51.4618 35.8913V34.9684C51.4618 34.441 51.0343 34.0134 50.5068 34.0134C49.9795 34.0134 49.5519 34.4409 49.5519 34.9684V35.8913C49.5519 36.4188 49.9793 36.8463 50.5068 36.8463Z" fill="#0A3A3B" stroke="#0A3A3B" stroke-width="0.5"></path><path d="M34.7599 54.683C35.1978 54.3894 35.3149 53.7961 35.0212 53.3581C34.7275 52.9201 34.1342 52.8031 33.6964 53.0967C31.2579 54.7316 28.9952 57.1055 27.1526 59.9621C26.8667 60.4053 26.9943 60.9963 27.4375 61.2822C27.5974 61.3854 27.7769 61.4348 27.9542 61.4348C28.2677 61.4348 28.5748 61.2805 28.7575 60.9974C30.4601 58.3577 32.5358 56.1742 34.7599 54.683Z" fill="#0A3A3B" stroke="#0A3A3B" stroke-width="0.5"></path><path d="M72.0254 59.9621C70.1827 57.1055 67.9199 54.7315 65.4816 53.0967C65.0438 52.8034 64.4505 52.92 64.1567 53.3581C63.8631 53.7961 63.98 54.3894 64.4181 54.683C66.6421 56.1741 68.7176 58.3576 70.4206 60.9973C70.6033 61.2804 70.9104 61.4346 71.2239 61.4346C71.4013 61.4346 71.5807 61.3853 71.7406 61.282C72.1837 60.9961 72.3113 60.4052 72.0254 59.9621Z" fill="#0A3A3B" stroke="#0A3A3B" stroke-width="0.5"></path></svg>