<svg xmlns="http://www.w3.org/2000/svg" width="100" height="100" viewBox="0 0 100 100" fill="none"><rect width="100" height="100" rx="6" fill="#DAE7D6"></rect><path d="M49.9872 53.2865C41.6127 53.0135 39.6042 45.8433 39.1743 43.5284C38.3681 43.3416 37.6497 42.8853 37.138 42.235C36.5538 41.4299 36.2828 40.4397 36.3757 39.4493C36.3093 38.9157 36.3557 38.3741 36.5118 37.8596C36.6679 37.345 36.9302 36.869 37.2819 36.4622C37.4804 36.2587 37.7087 36.0865 37.9588 35.9515C36.4023 33.4386 35.6357 30.5164 35.7582 27.563C36.7276 20.636 42.31 19.9619 44.0584 19.9229C44.8631 18.987 45.8691 18.2451 47.001 17.7529C49.1213 16.8976 51.4648 16.7671 53.6671 17.3815C57.9959 18.5115 60.8828 20.6788 62.2524 23.8237C64.2023 28.2938 62.492 33.4388 61.5096 35.7491C61.8842 35.8708 62.2295 36.0691 62.5235 36.3313C62.9236 36.7374 63.2251 37.2301 63.4047 37.7711C63.5844 38.3122 63.6375 38.8873 63.5598 39.4521C63.6536 40.4424 63.3828 41.4329 62.7984 42.2378C62.2861 42.888 61.5675 43.3442 60.7612 43.5312C60.3312 45.8433 58.3274 53.0135 49.9872 53.2865ZM39.5104 37.4362C39.1811 37.4209 38.8589 37.5356 38.6134 37.7557C38.4435 37.9937 38.3224 38.2631 38.2572 38.5482C38.1921 38.8334 38.184 39.1286 38.2337 39.4168C38.2376 39.4788 38.2354 39.541 38.2272 39.6025C38.1767 40.1355 38.3144 40.6693 38.6162 41.1114C38.8045 41.3218 39.0329 41.4924 39.2881 41.6132C39.5432 41.7341 39.8199 41.8028 40.1019 41.8153C40.3142 41.8404 40.5114 41.938 40.6601 42.0916C40.8088 42.2452 40.8999 42.4454 40.9181 42.6584C40.9487 43.0038 41.7724 51.1611 49.9891 51.4304C58.1603 51.1611 58.9876 43.0038 59.0183 42.6565C59.0369 42.4438 59.1282 42.2441 59.2768 42.0908C59.4255 41.9376 59.6224 41.8403 59.8345 41.8153C60.1165 41.8029 60.3932 41.7342 60.6484 41.6134C60.9035 41.4925 61.1319 41.3218 61.3201 41.1114C61.6234 40.6671 61.761 40.1305 61.7092 39.5951C61.7015 39.5354 61.6993 39.4751 61.7027 39.415C61.7529 39.1173 61.7416 38.8124 61.6696 38.5193C61.5976 38.2261 61.4663 37.9507 61.2839 37.7102C60.9939 37.4966 60.633 37.4022 60.2755 37.4465C60.1037 37.4769 59.9267 37.4584 59.765 37.3929C59.6032 37.3274 59.4631 37.2177 59.3609 37.0763C59.2586 36.9349 59.1983 36.7675 59.1868 36.5933C59.1753 36.4192 59.2131 36.2453 59.2959 36.0917C59.3303 36.0267 62.7315 29.5714 60.5457 24.5545C59.4138 21.962 56.943 20.1523 53.2 19.1754C51.401 18.6663 49.4844 18.7642 47.7466 19.454C46.758 19.8799 45.8963 20.5542 45.2451 21.4114C45.1514 21.5389 45.0263 21.6401 44.882 21.7051C44.7378 21.7702 44.5791 21.7969 44.4215 21.7828C44.181 21.7633 38.4955 21.3956 37.6041 27.7515C37.6041 27.7515 37.3469 32.8074 40.2755 35.8716C40.4032 36.0051 40.4881 36.1735 40.5195 36.3554C40.551 36.5374 40.5274 36.7245 40.452 36.893C40.3824 37.0659 40.2598 37.2121 40.1018 37.3108C39.9437 37.4094 39.7584 37.4553 39.5726 37.4418L39.5104 37.4362Z" fill="#0A3A3B" stroke="#0A3A3B" stroke-width="0.5"></path><path d="M60.114 37.4585C59.8744 37.4587 59.6439 37.3663 59.4709 37.2005C59.2978 37.0347 59.1955 36.8084 59.1855 36.569C59.1743 36.3285 58.8865 30.7191 54.6987 30.1796C52.7833 30.4229 50.8384 30.2712 48.9838 29.734C47.1292 29.1968 45.4044 28.2854 43.9155 27.056C42.7316 27.9465 40.0036 30.6532 40.5282 36.426C40.5351 36.6623 40.4517 36.8923 40.2948 37.0692C40.138 37.2461 39.9196 37.3565 39.6842 37.3779C39.4488 37.3994 39.2141 37.3302 39.0279 37.1845C38.8417 37.0389 38.7181 36.8277 38.6822 36.5941C37.9125 28.1248 43.351 25.185 43.5822 25.0643C43.7543 24.9745 43.9502 24.9408 44.1424 24.9682C44.3346 24.9955 44.5134 25.0824 44.6537 25.2166C45.9772 26.4153 47.544 27.3141 49.2469 27.8514C50.9498 28.3888 52.7486 28.552 54.5205 28.33C54.6055 28.3162 54.6919 28.3131 54.7777 28.3207C59.4984 28.8119 60.9404 33.8836 61.0426 36.4919C61.0521 36.7376 60.9638 36.9771 60.7971 37.1577C60.6303 37.3384 60.3987 37.4456 60.153 37.4557L60.114 37.4585Z" fill="#0A3A3B" stroke="#0A3A3B" stroke-width="0.5"></path><path d="M76.0925 82H23.9285C23.6823 82 23.4461 81.9022 23.272 81.728C23.0978 81.5539 23 81.3177 23 81.0714V70.72C23.0066 67.4483 24.3105 64.3128 26.6255 62.001C28.9406 59.6893 32.078 58.3899 35.3497 58.388H37.1325C37.3788 58.388 37.6149 58.4858 37.7891 58.6599C37.9632 58.8341 38.061 59.0703 38.061 59.3165C38.061 59.5628 37.9632 59.799 37.7891 59.9731C37.6149 60.1472 37.3788 60.2451 37.1325 60.2451H35.3497C32.5704 60.2465 29.9051 61.35 27.9382 63.3137C25.9712 65.2773 24.8632 67.9407 24.8571 70.72V80.1429H75.1639V70.72C75.1607 67.9429 74.0561 65.2804 72.0923 63.3166C70.1286 61.3529 67.4661 60.2483 64.689 60.2451H62.778C62.5318 60.2451 62.2956 60.1472 62.1214 59.9731C61.9473 59.799 61.8495 59.5628 61.8495 59.3165C61.8495 59.0703 61.9473 58.8341 62.1214 58.6599C62.2956 58.4858 62.5318 58.388 62.778 58.388H64.689C67.9582 58.3926 71.0922 59.6934 73.4039 62.0051C75.7156 64.3168 77.0163 67.4508 77.021 70.72V81.0714C77.021 81.3177 76.9232 81.5539 76.749 81.728C76.5749 81.9022 76.3387 82 76.0925 82Z" fill="#0A3A3B" stroke="#0A3A3B" stroke-width="0.5"></path><path d="M53.1137 82C52.98 82 52.848 81.9712 52.7265 81.9155C52.605 81.8598 52.497 81.7785 52.4098 81.6772C52.3226 81.5759 52.2583 81.457 52.2213 81.3286C52.1843 81.2001 52.1754 81.0652 52.1954 80.9331L55.9532 56.0638C55.9731 55.9322 56.021 55.8065 56.0938 55.6951C56.1665 55.5837 56.2624 55.4892 56.3748 55.418C56.4873 55.3469 56.6137 55.3007 56.7455 55.2827C56.8774 55.2647 57.0115 55.2752 57.1389 55.3135L63.6239 57.2681C63.7531 57.3071 63.8722 57.3737 63.973 57.4634C64.0737 57.553 64.1538 57.6635 64.2075 57.7873C64.2613 57.911 64.2874 58.0449 64.2841 58.1798C64.2808 58.3146 64.2482 58.4471 64.1885 58.5681L61.6108 63.7401L63.1058 65.418C63.2383 65.5678 63.3189 65.7563 63.3356 65.9556C63.3523 66.1548 63.3043 66.3541 63.1986 66.5239L53.903 81.5599C53.8198 81.6944 53.7036 81.8054 53.5655 81.8824C53.4274 81.9594 53.2718 81.9999 53.1137 82ZM57.6301 57.4009L54.7099 76.7268L61.2589 66.1413L59.8076 64.5117C59.6841 64.3733 59.6049 64.201 59.5803 64.0171C59.5556 63.8333 59.5866 63.6462 59.6692 63.4801L62.0352 58.7315L57.6301 57.4009Z" fill="#0A3A3B" stroke="#0A3A3B" stroke-width="0.5"></path><path d="M46.8005 82C46.6422 82.0001 46.4865 81.9597 46.3482 81.8826C46.2099 81.8056 46.0936 81.6945 46.0103 81.5599L36.7118 66.5267C36.6062 66.3569 36.5581 66.1576 36.5749 65.9583C36.5916 65.7591 36.6722 65.5705 36.8047 65.4208L38.2996 63.7429L35.722 58.5709C35.6623 58.4499 35.6297 58.3174 35.6264 58.1826C35.6231 58.0477 35.6492 57.9138 35.7029 57.79C35.7567 57.6663 35.8367 57.5558 35.9375 57.4661C36.0383 57.3765 36.1574 57.3099 36.2866 57.2709L42.7715 55.3163C42.8989 55.2781 43.033 55.2677 43.1647 55.2858C43.2964 55.3039 43.4227 55.3501 43.535 55.4212C43.6474 55.4924 43.7431 55.5868 43.8158 55.6981C43.8885 55.8095 43.9364 55.9351 43.9563 56.0666L47.716 80.9359C47.7355 81.0676 47.7264 81.2019 47.6893 81.3298C47.6523 81.4577 47.5882 81.5761 47.5013 81.6771C47.4145 81.778 47.307 81.859 47.186 81.9148C47.0651 81.9705 46.9336 81.9996 46.8005 82ZM38.6553 66.1385L45.2043 76.724L42.284 57.4009L37.879 58.7287L40.244 63.4773C40.3268 63.6433 40.3579 63.8303 40.3334 64.0142C40.3089 64.1981 40.2299 64.3704 40.1066 64.5089L38.6553 66.1385Z" fill="#0A3A3B" stroke="#0A3A3B" stroke-width="0.5"></path><path d="M50.0263 64.6872C48.0185 64.6858 46.0127 64.5643 44.0195 64.3233C43.8959 64.3119 43.7758 64.2759 43.6664 64.2174C43.5569 64.1589 43.4603 64.079 43.3822 63.9825C43.3042 63.886 43.2463 63.7748 43.2119 63.6555C43.1776 63.5362 43.1675 63.4113 43.1823 63.288C43.197 63.1648 43.2364 63.0458 43.2979 62.938C43.3595 62.8302 43.4421 62.7359 43.5407 62.6605C43.6394 62.5852 43.7521 62.5304 43.8723 62.4994C43.9925 62.4685 44.1177 62.4619 44.2405 62.4801C48.0354 62.9468 51.8732 62.9468 55.6681 62.4801C55.9101 62.4539 56.1528 62.5238 56.3437 62.6748C56.5347 62.8257 56.6588 63.0456 56.6892 63.2872C56.7196 63.5287 56.654 63.7725 56.5065 63.9661C56.3589 64.1597 56.1412 64.2876 55.9003 64.3223C53.9518 64.5668 51.99 64.6887 50.0263 64.6872Z" fill="#0A3A3B" stroke="#0A3A3B" stroke-width="0.5"></path><path d="M56.8733 57.1307C56.7288 57.1302 56.5864 57.0959 56.4574 57.0306C56.3284 56.9653 56.2165 56.8708 56.1305 56.7547C54.7507 54.8892 54.5009 51.1917 54.4777 50.7767C54.4635 50.5309 54.5474 50.2896 54.7111 50.1057C54.8748 49.9219 55.1048 49.8105 55.3505 49.7961C55.5956 49.7846 55.8355 49.8695 56.0187 50.0327C56.202 50.1958 56.3141 50.4242 56.3311 50.669C56.3877 51.6458 56.7313 54.4454 57.6227 55.6506C57.7245 55.7886 57.7862 55.9521 57.8009 56.123C57.8155 56.2938 57.7825 56.4654 57.7056 56.6187C57.6287 56.772 57.5108 56.901 57.365 56.9913C57.2193 57.0817 57.0513 57.13 56.8798 57.1307H56.8733Z" fill="#0A3A3B" stroke="#0A3A3B" stroke-width="0.5"></path><path d="M43.0408 57.1307C42.8693 57.13 42.7014 57.0817 42.5556 56.9913C42.4099 56.901 42.292 56.772 42.215 56.6187C42.1381 56.4654 42.1051 56.2938 42.1198 56.123C42.1344 55.9521 42.1961 55.7886 42.298 55.6506C43.1912 54.4435 43.5339 51.6449 43.5905 50.669C43.5976 50.547 43.6286 50.4277 43.6818 50.3177C43.735 50.2078 43.8093 50.1094 43.9005 50.0282C43.9918 49.9469 44.0981 49.8845 44.2135 49.8444C44.3288 49.8042 44.451 49.7872 44.5729 49.7943C44.6948 49.8014 44.8142 49.8324 44.9241 49.8856C45.0341 49.9388 45.1325 50.0131 45.2137 50.1043C45.2949 50.1956 45.3574 50.3019 45.3975 50.4172C45.4377 50.5326 45.4547 50.6548 45.4476 50.7767C45.4244 51.1918 45.169 54.8892 43.7948 56.7547C43.7077 56.8724 43.5939 56.9678 43.4629 57.0331C43.3319 57.0985 43.1872 57.1319 43.0408 57.1307Z" fill="#0A3A3B" stroke="#0A3A3B" stroke-width="0.5"></path><path d="M68.7253 68.9855C68.4837 68.9856 68.2515 68.8915 68.0781 68.7231C67.9047 68.5547 67.8038 68.3254 67.7968 68.0839C67.6232 62.0372 65.3241 60.1346 65.3018 60.116C65.1099 59.9637 64.9855 59.7421 64.9553 59.499C64.9251 59.2559 64.9915 59.0107 65.1402 58.816C65.2879 58.6229 65.5058 58.4959 65.7466 58.4625C65.9874 58.4292 66.2316 58.4921 66.4263 58.6378C66.5488 58.7306 69.4505 60.9842 69.6539 68.03C69.6609 68.276 69.57 68.5147 69.4011 68.6937C69.2322 68.8726 68.9992 68.9773 68.7532 68.9846L68.7253 68.9855Z" fill="#0A3A3B" stroke="#0A3A3B" stroke-width="0.5"></path><path d="M68.7299 74.4676C68.0039 74.4678 67.2942 74.2527 66.6904 73.8495C66.0867 73.4463 65.6161 72.8731 65.3381 72.2024C65.0602 71.5317 64.9874 70.7936 65.1289 70.0816C65.2704 69.3695 65.6199 68.7154 66.1332 68.2019C66.6465 67.6885 67.3005 67.3388 68.0126 67.1971C68.7246 67.0554 69.4627 67.1281 70.1335 67.4058C70.8042 67.6836 71.3775 68.1541 71.7809 68.7577C72.1843 69.3614 72.3996 70.0711 72.3996 70.7971C72.3986 71.7701 72.0117 72.703 71.3237 73.3911C70.6358 74.0793 69.703 74.4664 68.7299 74.4676ZM68.7299 68.9836C68.3712 68.9834 68.0205 69.0896 67.7222 69.2888C67.4239 69.4879 67.1913 69.7711 67.0539 70.1025C66.9165 70.4338 66.8804 70.7985 66.9503 71.1503C67.0202 71.5021 67.1928 71.8253 67.4464 72.079C67.7 72.3328 68.0231 72.5056 68.3749 72.5756C68.7267 72.6457 69.0914 72.6098 69.4228 72.4726C69.7542 72.3353 70.0375 72.1029 70.2368 71.8047C70.4361 71.5064 70.5425 71.1558 70.5425 70.7971C70.542 70.3164 70.3509 69.8556 70.0111 69.5156C69.6713 69.1757 69.2106 68.9844 68.7299 68.9836Z" fill="#0A3A3B" stroke="#0A3A3B" stroke-width="0.5"></path><path d="M30.5872 68.9855C30.3519 68.9861 30.1252 68.8974 29.9529 68.7372C29.7805 68.5771 29.6753 68.3575 29.6586 68.1229C29.1526 60.9963 33.0794 58.7186 33.2465 58.6248C33.461 58.5037 33.7148 58.4729 33.9521 58.5389C34.1894 58.605 34.3906 58.7627 34.5117 58.9772C34.6327 59.1916 34.6636 59.4454 34.5975 59.6827C34.5314 59.92 34.3738 60.1213 34.1593 60.2423C34.0182 60.3259 31.0951 62.13 31.5102 67.992C31.5275 68.2376 31.4466 68.4801 31.2852 68.6661C31.1237 68.852 30.895 68.9663 30.6494 68.9836L30.5872 68.9855Z" fill="#0A3A3B" stroke="#0A3A3B" stroke-width="0.5"></path><path d="M28.7087 76.4204C28.565 76.421 28.4231 76.3883 28.2942 76.3248C28.1653 76.2614 28.0529 76.1688 27.9658 76.0545C27.5126 75.4593 27.1787 74.782 26.9825 74.06C26.5515 72.6537 26.6929 71.1341 27.376 69.8314C28.0592 68.5288 29.2288 67.5484 30.6308 67.1033C31.2958 66.9163 31.9913 66.8637 32.6769 66.9485C33.3624 67.0333 34.0242 67.2539 34.6235 67.5973C35.6739 68.2042 36.5141 69.1172 37.0318 70.2142C37.5494 71.3113 37.72 72.5403 37.5206 73.7369C37.4802 73.9798 37.345 74.1968 37.1446 74.34C36.9443 74.4832 36.6952 74.541 36.4523 74.5006C36.2094 74.4602 35.9924 74.325 35.8492 74.1246C35.706 73.9243 35.6482 73.6752 35.6886 73.4323C35.8249 72.6124 35.7091 71.7704 35.3566 71.0177C35.0041 70.265 34.4315 69.637 33.7145 69.2167C33.3279 68.9935 32.9006 68.8495 32.4577 68.7932C32.0148 68.7369 31.5652 68.7695 31.135 68.8889C30.2046 69.2001 29.4343 69.8656 28.9914 70.741C28.5485 71.6164 28.4686 72.6311 28.769 73.5651C28.9034 74.0594 29.1323 74.5229 29.4432 74.9301C29.5477 75.0677 29.6118 75.2317 29.6282 75.4038C29.6446 75.5759 29.6126 75.7491 29.5359 75.904C29.4592 76.0589 29.3408 76.1892 29.194 76.2805C29.0472 76.3717 28.8778 76.4202 28.705 76.4204H28.7087Z" fill="#0A3A3B" stroke="#0A3A3B" stroke-width="0.5"></path><path d="M36.6171 74.515C36.5809 74.515 36.5438 74.515 36.5066 74.5094L35.4602 74.3859C35.339 74.3715 35.2219 74.3334 35.1155 74.2738C35.0091 74.2141 34.9154 74.1341 34.84 74.0382C34.7645 73.9424 34.7086 73.8326 34.6755 73.7152C34.6425 73.5978 34.6328 73.475 34.6472 73.3538C34.6616 73.2327 34.6997 73.1156 34.7594 73.0091C34.819 72.9027 34.8991 72.8091 34.9949 72.7336C35.1885 72.5811 35.4346 72.5118 35.6793 72.5409L36.7258 72.6653C36.9608 72.6933 37.1763 72.8099 37.3282 72.9914C37.4801 73.1729 37.5569 73.4055 37.5431 73.6418C37.5292 73.878 37.4256 74.1001 37.2535 74.2625C37.0814 74.425 36.8538 74.5147 36.6171 74.515Z" fill="#0A3A3B" stroke="#0A3A3B" stroke-width="0.5"></path><path d="M28.7087 76.4287C28.4907 76.429 28.2795 76.3526 28.1122 76.2128C27.9448 76.073 27.832 75.8789 27.7935 75.6643C27.755 75.4497 27.7932 75.2284 27.9014 75.0391C28.0097 74.8499 28.1811 74.7048 28.3856 74.6292L29.4998 74.2178C29.6141 74.1752 29.7357 74.1554 29.8577 74.1597C29.9796 74.164 30.0995 74.1923 30.2105 74.243C30.3216 74.2937 30.4215 74.3657 30.5047 74.455C30.5879 74.5443 30.6526 74.649 30.6953 74.7634C30.738 74.8777 30.7577 74.9993 30.7534 75.1212C30.7491 75.2432 30.7208 75.3631 30.6702 75.4741C30.6195 75.5851 30.5475 75.6851 30.4582 75.7682C30.3689 75.8514 30.2641 75.9162 30.1498 75.9589L29.0355 76.3711C28.9309 76.4098 28.8202 76.4293 28.7087 76.4287Z" fill="#0A3A3B" stroke="#0A3A3B" stroke-width="0.5"></path></svg>