<svg xmlns="http://www.w3.org/2000/svg" width="100" height="100" viewBox="0 0 100 100" fill="none"><rect width="100" height="100" rx="6" fill="#DAE7D6"></rect><path d="M79.693 76.6633H76.039L76.3758 76.2621C78.101 74.2076 78.6374 71.4572 77.8108 68.905L74.5096 58.7126C73.6814 56.1555 71.6314 54.2355 69.0256 53.5763L67.3852 53.1614C66.7406 52.2565 65.7275 51.6314 64.5663 51.5089L64.5673 47.4494C64.5674 46.9239 64.1415 46.4978 63.616 46.4977C63.6159 46.4977 63.6159 46.4977 63.6158 46.4977C63.0903 46.4977 62.6644 46.9235 62.6643 47.4489L62.6633 51.4864H60.7633L58.4097 50.8911C57.814 50.7403 57.3706 50.2503 57.2802 49.6426L56.7395 46.0111C58.9205 44.2942 60.5363 41.9813 61.0242 39.2179H61.8091C62.1083 39.2179 62.3964 39.1694 62.6664 39.0811L62.6654 42.9929C62.6653 43.5185 63.0912 43.9445 63.6167 43.9446H63.6169C64.1424 43.9446 64.5683 43.5188 64.5684 42.9934C64.5689 42.2346 64.5716 33.3446 64.5716 30.415C64.5776 23.5555 59.0282 18 52.1674 18H48.694L48.6532 18.0001C48.6457 18.0001 48.6384 18.0008 48.6307 18.0008C41.7934 18.0347 36.2838 23.5819 36.2896 30.4145C36.2896 33.61 36.2877 30.3266 36.2951 51.5088C35.1338 51.6314 34.1208 52.2564 33.4762 53.1613L31.8357 53.5762C29.23 54.2353 27.18 56.1554 26.3517 58.7125L23.0506 68.9049C22.224 71.4572 22.7604 74.2075 24.4854 76.2618L24.8223 76.6631H21.1684C19.4214 76.6631 18 78.0845 18 79.8315C18 81.5786 19.4212 83 21.1684 83H79.6931C81.4401 83 82.8615 81.5786 82.8615 79.8316C82.8614 78.0846 81.4401 76.6633 79.693 76.6633ZM72.6992 59.2987L76.0003 69.4912C76.6237 71.4155 76.2192 73.4892 74.9184 75.0383L73.5542 76.6633H71.8011C71.9947 76.1433 72.097 75.5887 72.097 75.0202C72.097 73.9322 71.2119 73.0471 70.1239 73.0471H68.1213V55.4616C68.1213 55.4107 68.1194 55.3601 68.1175 55.3096C68.2435 55.3753 71.5594 55.7796 72.6992 59.2987ZM70.124 74.9502C70.1626 74.9502 70.194 74.9815 70.194 75.0201C70.194 75.6165 70.0043 76.1867 69.6588 76.6631H31.2026C30.8571 76.1866 30.6674 75.6164 30.6674 75.0201C30.6674 74.9814 30.6987 74.9502 30.7373 74.9502H70.124ZM62.6671 36.486C62.6507 36.9457 62.2726 37.3148 61.8091 37.3148H61.1737L61.1834 33.4578H61.8105C62.2771 33.4578 62.6572 33.8323 62.6677 34.2963L62.6671 36.486ZM46.0462 22.5619C46.0462 21.1069 47.2084 19.9193 48.6469 19.9043C48.6626 19.9043 48.6782 19.9032 48.694 19.9032H52.1674C57.9744 19.9032 62.6737 24.6049 62.6686 30.414L62.6683 31.5548C61.36 31.5548 58.8762 31.5548 54.9825 31.5548C50.055 31.5548 46.0464 27.546 46.0464 22.6186L46.0462 22.5619ZM46.3404 29.1519C48.3212 31.7657 51.4575 33.4578 54.9823 33.4578H59.2801L59.2699 37.5155C59.2699 40.7448 57.379 43.1988 55.247 44.766C55.2331 44.7739 52.6917 46.7078 50.4306 46.7708C48.3418 46.7125 45.724 44.8285 45.6162 44.7672C43.4834 43.1994 41.5912 40.7439 41.5912 37.511C41.5696 32.7497 41.5906 37.3595 41.5681 32.4028C41.5659 31.9161 41.9591 31.5209 42.4461 31.5209C44.138 31.521 45.6084 30.5581 46.3404 29.1519ZM56.0552 51.4864H44.8062C45.1455 51.0384 45.3771 50.5051 45.4638 49.9229L45.8708 47.1891C47.597 48.1736 49.2769 48.6498 50.4104 48.674C50.4172 48.6742 50.424 48.6743 50.4308 48.6743C50.4377 48.6743 50.4444 48.6742 50.4512 48.674C51.5847 48.6498 53.2647 48.1737 54.9908 47.1891L55.3979 49.9229C55.4843 50.5051 55.7159 51.0384 56.0552 51.4864ZM39.0524 39.2179H39.8376C40.3251 41.9785 41.938 44.2917 44.122 46.0111L43.5813 49.6426C43.4909 50.2503 43.0475 50.7403 42.4519 50.891L40.0981 51.4863H38.1981L38.1949 39.0811C38.4651 39.1696 38.753 39.2179 39.0524 39.2179ZM38.1943 36.486L38.1938 34.2963C38.2043 33.8323 38.5844 33.4578 39.051 33.4578H39.6699L39.6874 37.3148H39.0524C38.5887 37.3149 38.2107 36.9457 38.1943 36.486ZM44.5081 20.7702C44.2736 21.3208 44.1432 21.9264 44.1432 22.5618C44.156 22.6922 44.0534 24.4986 44.9315 26.6692V27.1326C44.9315 28.503 43.8166 29.6179 42.4462 29.6179C41.195 29.6179 40.1515 30.4376 39.7968 31.5547H39.051C38.7515 31.5547 38.4633 31.6032 38.1932 31.6918L38.1928 30.4133C38.189 26.0545 40.8219 22.3729 44.5081 20.7702ZM24.8612 69.4913L28.1623 59.2989C29.3016 55.7812 32.6156 55.3765 32.744 55.3097C32.7421 55.3603 32.7401 55.4107 32.7401 55.4617V61.1011C32.7401 61.6267 33.1662 62.0526 33.6917 62.0526C34.2172 62.0526 34.6432 61.6267 34.6432 61.1011V55.4617C34.6432 54.3191 35.5727 53.3896 36.7153 53.3896H64.1463C65.2889 53.3896 66.2184 54.3191 66.2184 55.4617V73.0471H34.643V65.5495C34.643 65.0239 34.217 64.598 33.6915 64.598C33.1659 64.598 32.74 65.0239 32.74 65.5495V73.0471H30.7375C29.6495 73.0471 28.7644 73.9322 28.7644 75.0202C28.7644 75.5887 28.8668 76.1434 29.0603 76.6633H27.3073L25.9429 75.0381C24.6423 73.4893 24.2378 71.4155 24.8612 69.4913ZM79.693 81.0968H21.1684C20.4706 81.0968 19.9032 80.5292 19.9032 79.8316C19.9032 79.1339 20.4708 78.5664 21.1684 78.5664H79.6931C80.3909 78.5664 80.9583 79.134 80.9583 79.8316C80.9583 80.5292 80.3907 81.0968 79.693 81.0968Z" fill="#0A3A3B" stroke="#0A3A3B" stroke-width="0.5"></path><path d="M50.4307 67.6804C52.8333 67.6804 54.7879 65.7257 54.7879 63.3233C54.7879 60.9208 52.8333 58.966 50.4307 58.966C48.0281 58.966 46.0735 60.9207 46.0735 63.3232C46.0735 65.7256 48.0281 67.6804 50.4307 67.6804ZM50.4307 60.8692C51.7839 60.8692 52.8848 61.97 52.8848 63.3233C52.8848 64.6766 51.7839 65.7774 50.4307 65.7774C49.0775 65.7774 47.9766 64.6766 47.9766 63.3233C47.9766 61.97 49.0775 60.8692 50.4307 60.8692Z" fill="#0A3A3B" stroke="#0A3A3B" stroke-width="0.5"></path></svg>