<svg width="48" height="44" viewBox="0 0 48 44" fill="none" xmlns="http://www.w3.org/2000/svg">
<path d="M46.721 18.0475L42.9292 22.8367C42.3875 23.516 41.3987 23.6278 40.7194 23.0947L35.9302 19.3028C35.2595 18.7783 35.1478 17.8067 35.6809 17.1447C36.2053 16.4826 37.1684 16.3708 37.839 16.8953L40.0488 18.6493C40.0488 18.6493 40.1176 18.6493 40.109 18.615C39.2749 14.204 36.8674 10.2316 33.3335 7.4544C25.2855 1.12607 13.6349 2.52759 7.32375 10.5842C1.00402 18.6322 2.41414 30.2742 10.4621 36.5939C15.6641 40.6781 22.3793 41.5379 28.1746 39.44C28.828 39.2078 29.5417 39.2336 30.1436 39.5603C31.1324 40.0934 31.055 41.5466 30.0146 41.9593C23.093 44.7279 14.9332 43.8079 8.66508 38.8553C4.68408 35.7083 1.94983 31.2544 0.935235 26.2846C-1.42929 14.6512 6.077 3.30143 17.7105 0.936906C29.3439 -1.42762 40.6421 6.04428 43.041 17.6348C43.041 17.6691 43.084 17.6777 43.1012 17.652L44.2361 16.2332C44.7262 15.6228 45.5947 15.3648 46.2739 15.7603C47.0994 16.2332 47.2885 17.3252 46.7124 18.0475H46.721Z" fill="#0B3B3C" stroke="#0B3B3C"/>
<path d="M34.8639 30.0766C35.1304 29.5263 35.268 28.933 35.2594 28.3225C35.268 27.7551 35.1132 27.2048 34.8123 26.7319C34.4941 26.259 34.0556 25.8892 33.5311 25.6657C32.9207 25.4077 32.2586 25.2788 31.5965 25.296C30.9774 25.296 30.3584 25.3991 29.7737 25.5969C29.1976 25.7861 28.6559 26.0612 28.1658 26.4137C28.0282 26.4997 27.9165 26.6201 27.8305 26.7663C27.7617 26.921 27.7273 27.0844 27.7273 27.2564C27.7273 27.5143 27.8047 27.7637 27.9594 27.9614C28.0884 28.1506 28.2948 28.2624 28.5183 28.2624C28.6301 28.2624 28.7419 28.2452 28.8451 28.2022C28.9826 28.1334 29.1202 28.0646 29.2492 27.9872C29.6189 27.7637 30.0058 27.5659 30.4014 27.3939C30.7453 27.2564 31.115 27.1876 31.4847 27.1876C31.8631 27.1618 32.2328 27.2822 32.5251 27.5229C32.7745 27.7809 32.9035 28.1334 32.8777 28.4945C32.7917 29.3629 32.379 30.1626 31.7255 30.7301L28.312 34.3499C28.0282 34.6165 27.8649 34.9862 27.8649 35.3731C27.8649 35.6397 27.9594 35.9062 28.1486 36.0954C28.355 36.2931 28.6301 36.3963 28.9139 36.3877H34.6919C35.4571 36.3877 35.8441 36.061 35.8441 35.4075C35.8441 34.7541 35.4657 34.4359 34.6919 34.4445H31.0892L33.5311 31.8822C34.0556 31.3491 34.5027 30.7387 34.8639 30.0766Z" fill="#0B3B3C"/>
<path d="M43.5394 25.6742C43.3072 25.4678 43.0063 25.3474 42.6967 25.356C42.4904 25.356 42.2926 25.399 42.1035 25.485C41.9143 25.571 41.7595 25.7086 41.6392 25.8805L37.0133 32.5012C36.8327 32.7505 36.7295 33.0601 36.7209 33.3696C36.7209 33.6362 36.8155 33.9027 37.0047 34.0919C37.2024 34.2896 37.4862 34.3928 37.7613 34.3842H41.536V35.2698C41.493 35.9233 41.9917 36.4822 42.6366 36.5252C43.29 36.5682 43.8489 36.0695 43.8919 35.4246C43.8919 35.373 43.8919 35.3214 43.8919 35.2698V34.3842H44.468C45.2246 34.3842 45.603 34.0747 45.603 33.447C45.603 32.8193 45.2246 32.5184 44.468 32.527H43.8919V26.5426C43.9091 26.2073 43.7801 25.8891 43.5308 25.6656L43.5394 25.6742ZM41.536 32.5356H39.1543L41.536 29.1221V32.5356Z" fill="#0B3B3C"/>
<path d="M30.642 11.8481L21.2183 21.2718L16.9019 16.9555C16.2485 16.302 15.1995 16.302 14.546 16.9555C13.8925 17.609 13.8925 18.658 14.546 19.3114L20.0403 24.8057C20.3498 25.1153 20.7798 25.2958 21.2183 25.2958C21.6568 25.2958 22.0867 25.1239 22.3962 24.8057L32.9979 14.2041C33.6514 13.5506 33.6514 12.5016 32.9979 11.8481C32.3444 11.1947 31.2954 11.1947 30.642 11.8481Z" fill="#0B3B3C"/>
</svg>
