<svg width="832" height="689" viewBox="0 0 832 689" fill="none" xmlns="http://www.w3.org/2000/svg">
<g clip-path="url(#clip0_185_281)">
<path d="M420.29 193.05C413.4 216.42 415.01 241.13 424.43 263.5C436.39 291.88 456.35 297.44 467.82 312.29C478.78 326.49 481.76 345.67 474.49 362.62C467.04 379.98 451.28 389.24 433.08 389.25L263.21 389.39C239.16 389.41 216.97 372.86 216.89 347.3L216.25 159.34C219.42 156.32 222.84 154.26 226.89 154.55C230.84 154.82 234.32 157.18 237.21 160.21L237.23 343.78C237.23 356.28 246.49 367.52 259.39 367.53L433.05 367.68C447.41 367.69 458.04 356.04 457.08 341.75C456.45 332.26 451.25 323.31 443.38 317.61C410.83 294.04 397.02 262.04 397.05 221.86C397.06 203.68 400.08 186.42 408.67 170.32C422.39 144.6 448.48 127.7 478.24 127.78L505.49 127.85L482.15 145.33C452.64 145.41 428.5 165.19 420.29 193.05Z" fill="#001C50"/>
<path d="M133.14 579.77L109.11 580.33L94.62 561.26L24.48 469.42L24.37 579.97L0 580.01V428.9L24.15 428.92L85.59 509.36L108.43 538.65L108.71 428.99L133.07 428.87L133.14 579.77Z" fill="#001C50"/>
<path d="M435.57 22.02L259.29 21.97C247.69 21.97 237.61 31.81 237.54 42.95L237.2 98.92C246.69 103.62 251.42 112.83 250.17 123.23C249.05 132.53 241.88 141.04 231.78 143.62C219.63 146.72 208.38 139.45 204.24 128.28C200.06 117 205.31 104.85 216.26 98.8L216.74 41.36C216.94 16.53 238.08 -0.0199819 262.25 1.81068e-05L434.1 0.160018C457.36 0.180018 477.75 17.33 477.86 40.93L478.19 111.53L457.45 114L456.77 42.03C456.67 31.39 446.9 22.03 435.57 22.03V22.02Z" fill="#001C50"/>
<path d="M549.81 519.7L506.98 519.59L507.1 498.5L572.51 498.34V554.91C565.7 562.07 558.54 567.74 550.05 572.83C527.34 584.35 500.98 586.35 477.09 576.87C450.35 566.26 433.5 541.61 430.72 513.28C427.67 482.12 441.44 452.27 468.53 436.21C498.01 418.73 541.78 422.88 565.84 448.46L551.23 463.98C535.88 449.01 514.64 443.28 494.26 448.89C459.05 458.17 446.38 497.53 458.69 529.29C463.23 541.02 471.58 549.85 482.61 555.41C504.8 566.59 531.41 563.21 549.62 546.21L549.81 519.71V519.7Z" fill="#E70001"/>
<path d="M398.79 326.99L259.91 327.13C260.03 316.03 260.6 305.58 263.75 295.3C274.95 258.72 318.23 249.81 353.54 258.43C369.77 262.39 383.11 272.44 391.08 286.88C396.68 299.22 398.61 311.76 398.79 326.98V326.99Z" fill="#001C50"/>
<path d="M215.44 561.26C231.18 566.25 246.79 560.96 258.38 549.73L273.18 562.88C261.88 576.6 245.65 582.37 228.16 582.99C205.87 583.77 184.97 573.54 174.65 553.37C167.56 539.5 166.19 523.6 169.92 508.54C175.78 484.88 195.9 468.83 220.15 467.63C245.4 466.39 266.03 477.43 274.7 501.3C278.31 511.24 278.68 521.7 277.76 532.73L192.08 532.8C193.22 546.39 201.99 556.99 215.44 561.25V561.26ZM255.25 515.7C254.22 498.63 241.15 487.46 225.15 487.52C207.87 486.17 193.66 498.61 192.24 515.8L255.25 515.69V515.7Z" fill="#001C50"/>
<path d="M646.39 561.99C661.93 566.18 677.27 561.04 688.06 549.76L701.9 562.96C678.55 590.89 629.08 589.68 609.48 558.49C598.57 541.12 597.07 519.39 604.76 500.62C613.65 478.94 634.07 466.83 657.12 467.74C681.18 468.69 700.08 484.43 704.93 508.16C706.57 516.17 706.82 524.34 706.43 532.69L622.59 532.54C623.88 546.51 632.54 558.24 646.39 561.98V561.99ZM684.77 516C684.22 499.61 671.71 487.44 654.98 487.14C638.05 486.84 624.35 498.55 622.73 516.06L684.77 515.99V516Z" fill="#E70001"/>
<path d="M803.07 495.36C795.13 487.03 783.56 485.98 773.11 490C764.09 493.47 756.04 502.6 755.99 513.88L755.69 579.67L733.77 579.87L733.7 470.33L755.72 470.18L756.11 486.19C764.11 475.28 775.62 468.58 789.02 467.94C814.37 466.74 831.5 484.62 831.54 509.1L831.66 579.85L809.72 579.79L809.56 514.27C809.54 507.74 807.91 500.43 803.08 495.36H803.07Z" fill="#E70001"/>
<path d="M408.78 579.5L380.14 580.22L352.14 540.29L323.37 580.42L295.92 579.89L338.02 524.22L297.65 470.4L325.97 469.96L352.26 506.62L378.28 470.01L406.56 470.38L366.83 524.07L408.78 579.5Z" fill="#001C50"/>
<path d="M490.49 315.41C504.11 321.14 516.12 325.92 530.16 325.96L591.14 326.13C616.07 323.47 634.08 310.57 635.47 285.07C625.01 279.77 620.36 269.05 623.36 258.66C626.36 248.26 635.55 241.17 646.61 241.78C656.82 242.34 666.31 250.13 667.78 260.95C669.23 271.61 663.9 280.79 654.01 284.99C653.2 302.22 646.55 318.09 633.14 328.87C622.44 337.47 609.34 342.16 595.5 342.19L538.17 342.31C518.47 342.35 500.73 333.07 490.48 315.4L490.49 315.41Z" fill="#E70001"/>
<path d="M363.63 214.07C360.18 233.84 340.7 246.46 321.82 242.15C303.8 238.04 292.87 221.11 295.41 203.49C297.89 186.33 312.84 172.61 331.23 173.63C351.6 174.76 367.26 193.26 363.64 214.07H363.63Z" fill="#001C50"/>
<path d="M94.5902 686.4C90.8202 687.52 87.7202 687.15 84.3402 686.7L84.2902 657.71L50.3202 657.66L50.2402 686.73C46.7102 687.2 43.6902 687.28 40.2002 686.73V619.02L50.1802 619.05L50.2802 647.86L84.2802 647.89L84.3602 619.05H94.4802L94.5902 686.4Z" fill="#001C50"/>
<path d="M466.25 686.83L465.87 655.29C465.79 648.43 460.6 644.24 454.14 644.2C447.09 644.16 440.93 648.95 440.82 656.51L440.38 686.58C436.84 687.26 433.71 687.39 430.64 686.36L430.53 617.32C434.09 616.58 437.26 616.54 440.66 617.24L440.71 643.54C444.6 638.55 448.26 636.28 453.58 635.29C464.64 633.22 475.64 640.38 475.74 652.14L476.06 686.69L466.26 686.82L466.25 686.83Z" fill="#001C50"/>
<path d="M153.72 676.76C161.37 681.39 170.64 679.31 176.06 672.74C179.01 674.62 180.85 676.72 183.09 679.08C177.57 685.99 169.14 688.54 160.08 688.14C145.19 687.48 135.36 674.47 136.18 659.79C136.85 647.7 144.2 637.93 155.53 635.55C166.88 633.16 178.68 638.69 182.97 649.97C184.77 654.71 184.89 659.74 184.42 665.03L146.9 665.13C147.86 670.22 149.69 674.31 153.73 676.76H153.72ZM174.41 656.86C173.71 647.75 167 643.73 159.83 644.01C152.66 644.29 147.66 649.45 146.93 657.03L174.41 656.86Z" fill="#001C50"/>
<path d="M788.71 672.81C791.72 674.51 793.52 676.47 795.61 678.77C791.08 684.96 784.42 687.4 777.19 688.12C760.71 689.76 748.23 677.15 748.76 660.76C749.09 650.47 754.17 641.09 763.2 637.18C772.71 633.06 784.12 634.75 791.21 642.66C796.66 648.73 798.27 656.74 797.05 664.96L759.29 665.03C759.91 668.95 761.11 673.05 764.38 675.59C771.65 681.23 782.32 680.23 788.71 672.81ZM787.27 656.76C786.54 647.79 779.95 643.96 772.73 644.07C765.76 644.18 760.17 649.27 759.14 657.04L787.26 656.76H787.27Z" fill="#001C50"/>
<path d="M605.33 684.21C600.38 680.47 598.99 674.35 599.8 669.11C601.78 656.41 619.07 653.29 633.18 656.35C633.91 651.72 632.37 647.1 628.51 645.45C621.63 642.52 614.03 644.59 608.02 649.07C605.89 647.17 604.73 645.08 602.86 642.13C610.65 635.43 622.17 632.98 632.02 636.8C639.39 639.67 643.52 646.12 643.54 653.82L643.62 686.32C640.56 687.38 637.54 687.23 634.4 686.65L633.88 680.81C627.2 689.24 614.39 691.04 605.32 684.2L605.33 684.21ZM631.48 674.83C634.28 671.44 633.62 667.01 633.69 663.86L616.35 663.92C613.04 663.93 610.53 667.08 609.95 669.48C609.18 672.69 609.96 676.29 613.11 677.94C618.78 680.93 627.08 680.15 631.49 674.82L631.48 674.83Z" fill="#001C50"/>
<path d="M237.68 688.05C229.18 687.29 223.44 682.12 222.14 675.11C220.65 667.08 224.59 659.8 232.59 657.21C240.24 654.73 248.07 654.84 255.98 656.09C256.87 649.63 253.15 644.61 246.91 644C240.67 643.39 235.06 645.21 230 649.06C227.67 647.12 226.23 644.76 225.02 641.68C233.71 635.18 244.87 633.07 255.17 636.92C261.75 639.38 265.92 645.82 265.95 652.96L266.1 686.57C263.12 687.26 260.13 687.5 257.24 686.54C256.36 685.88 256.85 683.33 255.97 681.34C251.48 686.87 245.15 688.71 237.68 688.04V688.05ZM256.06 663.9L239.98 663.45C234.94 663.31 231.48 667.52 231.95 672.27C232.36 676.44 235.66 679.18 240.45 679.6C244.99 679.99 249.94 678.92 252.78 675.89C255.76 672.71 256.76 668.53 256.06 663.9Z" fill="#001C50"/>
<path d="M554.82 672.67C557.96 674.13 559.88 675.85 562.55 677.98C557.12 685.9 548.55 688.88 539.01 688.08C523.77 686.8 513.91 672.94 515.96 657.74C517.4 647.06 524.67 638.79 534.22 636.13C544.63 633.22 555.64 636.18 562.56 644.85L554.87 650.91C550.3 644.8 543.54 642.91 536.28 645.32C530.38 647.28 526.36 653.67 526.02 660.83C525.67 668.09 529.14 674.74 535.12 677.53C541.9 680.7 549.77 679.35 554.83 672.67H554.82Z" fill="#001C50"/>
<path d="M389.14 677.68C390.38 680.42 390.54 682.73 390.86 685.91C386.41 688.27 380.72 689 375.56 687.36C370.24 685.67 367.06 680.4 367.07 674.86L367.12 644.89L360.23 644.72C359.71 641.67 359.71 639.01 360.32 636.12L367.13 635.92L367.18 622.06C370.64 621.81 373.52 621.7 376.79 622.26L377.07 635.94L389.69 636.21C390.21 639.13 390.11 641.66 389.8 644.67L377.05 644.84V673.84C377.05 675.97 378.2 678.19 380.3 678.69C383.08 679.34 385.55 678.89 389.14 677.67V677.68Z" fill="#001C50"/>
<path d="M325.37 678.65C326.54 679.72 326.82 684.79 325.72 686.54C322.9 688.9 317.79 688.51 314.09 686.67C311.2 685.23 308.48 681.19 308.47 676.65L308.34 617.15L318.18 617.07L318.16 673.82C318.16 675.64 318.62 677.2 319.59 677.98C320.68 678.85 322.5 678.88 325.38 678.65H325.37Z" fill="#001C50"/>
<path d="M696.24 686.56C693.02 687.35 690.29 687.12 686.48 686.9V636.33C689.81 635.67 692.64 635.88 695.93 636.12L696.41 643.92C699.99 637.65 706.55 634.64 714.13 635.11L714.151 645.53C704.671 643.79 696.48 649.47 696.42 658.91L696.24 686.56Z" fill="#001C50"/>
<path d="M655.19 229.86C649.1 232.42 642.56 232.2 636.81 229.01L636.64 208.97C636.34 175.35 613.56 145.37 582.99 145.36L482.35 145.33H482.15L505.5 127.85L585.01 128.07C624.52 128.17 655.05 164.12 655.13 204.91L655.19 229.86Z" fill="#E70001"/>
<path d="M540.71 183.32H513.13C511.468 183.32 510.12 184.667 510.12 186.33V277.61C510.12 279.272 511.468 280.62 513.13 280.62H540.71C542.373 280.62 543.72 279.272 543.72 277.61V186.33C543.72 184.667 542.373 183.32 540.71 183.32Z" fill="#E70001"/>
<path d="M572.55 215.17H481.27C479.607 215.17 478.26 216.518 478.26 218.18V245.76C478.26 247.422 479.607 248.77 481.27 248.77H572.55C574.212 248.77 575.56 247.422 575.56 245.76V218.18C575.56 216.518 574.212 215.17 572.55 215.17Z" fill="#E70001"/>
</g>
<defs>
<clipPath id="clip0_185_281">
<rect width="831.66" height="688.4" fill="white"/>
</clipPath>
</defs>
</svg>
