<svg xmlns="http://www.w3.org/2000/svg" width="100" height="100" viewBox="0 0 100 100" fill="none"><rect width="100" height="100" rx="6" fill="#DAE7D6"></rect><path d="M44.5383 74.3358C44.2319 72.8011 43.5999 71.3499 42.6849 70.0803C41.7699 68.8106 40.5933 67.7519 39.2344 66.9756C37.9281 66.2335 36.5303 65.6654 35.0767 65.2856C36.3724 64.3127 37.3293 62.9569 37.8118 61.41C38.2944 59.8632 38.2781 58.2037 37.7652 56.6667C37.2524 55.1296 36.2691 53.7928 34.9545 52.8455C33.6398 51.8983 32.0605 51.3885 30.4402 51.3885C28.8198 51.3885 27.2405 51.8983 25.9259 52.8455C24.6113 53.7928 23.6279 55.1296 23.1151 56.6667C22.6023 58.2037 22.586 59.8632 23.0685 61.41C23.551 62.9569 24.5079 64.3127 25.8037 65.2856C24.3512 65.6657 22.9546 66.2338 21.6492 66.9756C20.2905 67.7518 19.114 68.8104 18.199 70.0798C17.2841 71.3493 16.652 72.8002 16.3454 74.3347L15.0216 80.9679C14.9703 81.2231 15.011 81.4882 15.1364 81.7163C15.2617 81.9444 15.4637 82.1209 15.7066 82.2144C25.1915 85.8681 35.6955 85.8681 45.1803 82.2144C45.4232 82.1209 45.6252 81.9444 45.7506 81.7163C45.876 81.4882 45.9166 81.2231 45.8654 80.9679L44.5383 74.3358ZM24.9278 59.1257C24.9278 58.0348 25.2513 56.9684 25.8573 56.0613C26.4634 55.1543 27.3249 54.4473 28.3327 54.0299C29.3406 53.6124 30.4496 53.5032 31.5195 53.716C32.5895 53.9288 33.5723 54.4541 34.3437 55.2255C35.1151 55.9969 35.6404 56.9797 35.8532 58.0496C36.066 59.1196 35.9568 60.2286 35.5393 61.2365C35.1219 62.2443 34.4149 63.1058 33.5078 63.7118C32.6008 64.3179 31.5344 64.6414 30.4435 64.6414C28.9812 64.6396 27.5792 64.058 26.5452 63.024C25.5112 61.9899 24.9295 60.588 24.9278 59.1257ZM17.368 80.4814L18.5119 74.7671C18.7566 73.5419 19.2613 72.3834 19.9918 71.3699C20.7224 70.3564 21.6619 69.5113 22.7469 68.8918C25.0991 67.5771 27.7488 66.8868 30.4435 66.8868C33.1382 66.8868 35.7879 67.5771 38.1401 68.8918C39.2253 69.5114 40.1648 70.3566 40.8954 71.3703C41.626 72.3841 42.1306 73.5428 42.3751 74.7682L43.519 80.4814C35.065 83.5096 25.822 83.5096 17.368 80.4814Z" fill="#0A3A3B" stroke="#0A3A3B" stroke-width="0.5"></path><path d="M85.5784 80.9679L84.2546 74.3314C83.9482 72.7967 83.3162 71.3455 82.4012 70.0759C81.4863 68.8062 80.3096 67.7475 78.9507 66.9712C77.6431 66.2304 76.2442 65.6637 74.7897 65.2856C76.0854 64.3127 77.0423 62.9569 77.5248 61.41C78.0074 59.8632 77.9911 58.2037 77.4782 56.6667C76.9654 55.1296 75.9821 53.7928 74.6675 52.8455C73.3528 51.8983 71.7735 51.3885 70.1532 51.3885C68.5328 51.3885 66.9535 51.8983 65.6389 52.8455C64.3243 53.7928 63.3409 55.1296 62.8281 56.6667C62.3153 58.2037 62.299 59.8632 62.7815 61.41C63.264 62.9569 64.2209 64.3127 65.5167 65.2856C64.0642 65.6657 62.6676 66.2338 61.3623 66.9756C60.0035 67.7518 58.827 68.8104 57.9121 70.0798C56.9971 71.3493 56.365 72.8002 56.0584 74.3347L54.7346 80.9679C54.6834 81.2231 54.724 81.4882 54.8494 81.7163C54.9747 81.9444 55.1767 82.1209 55.4196 82.2144C64.9045 85.8681 75.4085 85.8681 84.8933 82.2144C85.1363 82.1209 85.3382 81.9444 85.4636 81.7163C85.589 81.4882 85.6296 81.2231 85.5784 80.9679ZM64.6408 59.1257C64.6408 58.0348 64.9643 56.9684 65.5704 56.0613C66.1764 55.1543 67.0379 54.4473 68.0457 54.0299C69.0536 53.6124 70.1626 53.5032 71.2326 53.716C72.3025 53.9288 73.2853 54.4541 74.0567 55.2255C74.8281 55.9969 75.3534 56.9797 75.5662 58.0496C75.779 59.1196 75.6698 60.2286 75.2523 61.2365C74.8349 62.2443 74.1279 63.1058 73.2209 63.7118C72.3138 64.3179 71.2474 64.6414 70.1565 64.6414C68.6942 64.6396 67.2923 64.058 66.2582 63.024C65.2242 61.9899 64.6425 60.588 64.6408 59.1257ZM57.081 80.4814L58.2249 74.7671C58.4696 73.5419 58.9743 72.3834 59.7048 71.3699C60.4354 70.3564 61.3749 69.5113 62.4599 68.8918C64.8121 67.5771 67.4618 66.8868 70.1565 66.8868C72.8512 66.8868 75.5009 67.5771 77.8531 68.8918C78.9383 69.5114 79.8779 70.3566 80.6084 71.3703C81.339 72.3841 81.8436 73.5428 82.0881 74.7682L83.232 80.4814C74.778 83.5096 65.535 83.5096 57.081 80.4814Z" fill="#0A3A3B" stroke="#0A3A3B" stroke-width="0.5"></path><path d="M57.9536 41.4136L62.6078 48.6943C62.7257 48.8792 62.896 49.0248 63.097 49.1124C63.298 49.2 63.5205 49.2258 63.7362 49.1864C63.9519 49.147 64.151 49.0441 64.308 48.8911C64.465 48.738 64.5728 48.5416 64.6177 48.327L66.2051 40.7914C74.5393 38.9867 80.0848 34.0038 80.0848 28.2377C80.0848 20.9382 70.9287 15 59.6767 15C48.4247 15 39.2686 20.9382 39.2686 28.2377C39.2686 35.1301 47.4319 40.8466 57.9536 41.4136ZM59.6767 17.2063C69.7153 17.2063 77.8785 22.155 77.8785 28.2377C77.8785 33.001 72.611 37.3309 65.07 38.7661C64.8561 38.8066 64.6591 38.9096 64.5036 39.0619C64.3481 39.2142 64.2412 39.4091 64.1963 39.6221L63.0137 45.226L59.5046 39.739C59.4083 39.5886 59.2768 39.4638 59.1215 39.3754C58.9663 39.287 58.7918 39.2377 58.6133 39.2316C49.0027 38.8929 41.4749 34.0623 41.4749 28.2377C41.4749 22.155 49.6381 17.2063 59.6767 17.2063Z" fill="#0A3A3B" stroke="#0A3A3B" stroke-width="0.5"></path><path d="M56.8858 43.6519C56.8505 43.5114 56.7878 43.3792 56.7014 43.2629C56.615 43.1466 56.5065 43.0484 56.3821 42.9741C56.2577 42.8997 56.1199 42.8505 55.9766 42.8294C55.8332 42.8083 55.6871 42.8157 55.5466 42.8511C51.9704 43.7337 48.258 43.921 44.6112 43.4026C44.3515 43.3648 44.0869 43.4224 43.8665 43.5648L38.7171 46.8367L39.529 43.1809C39.5861 42.9241 39.5495 42.6554 39.426 42.4232C39.3024 42.191 39.0999 42.0106 38.855 41.9145C33.5886 39.8494 30.4435 36.3856 30.4435 32.6503C30.4435 28.9824 33.486 25.5538 38.5814 23.4799C38.7156 23.4253 38.8378 23.3448 38.9409 23.243C39.044 23.1412 39.126 23.02 39.1823 22.8865C39.2386 22.753 39.268 22.6097 39.2689 22.4648C39.2698 22.3199 39.2422 22.1762 39.1876 22.042C39.133 21.9078 39.0524 21.7856 38.9506 21.6825C38.8488 21.5794 38.7277 21.4974 38.5941 21.4411C38.4606 21.3848 38.3173 21.3554 38.1724 21.3545C38.0275 21.3535 37.8838 21.3812 37.7496 21.4358C31.7938 23.8605 28.2372 28.0535 28.2372 32.6503C28.2372 37.1015 31.5588 41.1445 37.1727 43.6056L35.9824 48.958C35.9348 49.1712 35.9515 49.3937 36.0304 49.5974C36.1094 49.801 36.247 49.9767 36.4259 50.102C36.6048 50.2274 36.8168 50.2968 37.0352 50.3015C37.2536 50.3062 37.4684 50.246 37.6525 50.1285L44.7126 45.6365C48.5107 46.1283 52.3671 45.9091 56.0849 44.9901C56.3685 44.9187 56.6122 44.7377 56.7623 44.4868C56.9125 44.2359 56.9569 43.9356 56.8858 43.6519Z" fill="#0A3A3B" stroke="#0A3A3B" stroke-width="0.5"></path><path d="M52.5062 22.722H58.0219V24.9283H52.5062V22.722Z" fill="#0A3A3B" stroke="#0A3A3B" stroke-width="0.5"></path><path d="M60.2283 22.722H62.4346V24.9283H60.2283V22.722Z" fill="#0A3A3B" stroke="#0A3A3B" stroke-width="0.5"></path><path d="M64.6408 22.722H70.1565V24.9283H64.6408V22.722Z" fill="#0A3A3B" stroke="#0A3A3B" stroke-width="0.5"></path><path d="M49.1968 27.1345H62.4345V29.3408H49.1968V27.1345Z" fill="#0A3A3B" stroke="#0A3A3B" stroke-width="0.5"></path><path d="M64.6408 27.1345H70.1565V29.3408H64.6408V27.1345Z" fill="#0A3A3B" stroke="#0A3A3B" stroke-width="0.5"></path><path d="M49.1968 31.5471H53.6094V33.7533H49.1968V31.5471Z" fill="#0A3A3B" stroke="#0A3A3B" stroke-width="0.5"></path><path d="M55.8157 31.5471H67.9503V33.7533H55.8157V31.5471Z" fill="#0A3A3B" stroke="#0A3A3B" stroke-width="0.5"></path></svg>