<svg xmlns="http://www.w3.org/2000/svg" id="Layer_2" viewBox="0 0 20.46 20.77"><defs><style>      .cls-1 {        fill: #0b3b3c;      }    </style></defs><g id="Layer_1-2" data-name="Layer_1"><g><path class="cls-1" d="M6.31,11.59c-.68-.56-1.04-1.28-1.2-2.1-.01-.07-.07-.17-.13-.19-.37-.16-.66-.42-.85-.76-.17-.31-.33-.64-.43-.97-.2-.69.02-1.12.67-1.39-.08-.36-.18-.72-.25-1.08-.45-2.25.84-4.04,2.63-4.74,1.7-.67,3.28-.37,4.66.85.65.58.97,1.33.97,2.19,0,.84-.07,1.69-.11,2.53,0,.07,0,.14-.01.22.73.14.95.78.75,1.46-.15.52-.38.99-.78,1.37-.05.05-.1.12-.17.14-.39.12-.47.43-.55.78-.16.65-.49,1.19-1,1.63-.05.04-.08.15-.06.22.05.2.12.39.2.58.03.07.12.15.19.17.06.01.15-.06.2-.12,1.08-1.38,2.49-2.09,4.23-2.09,3.02,0,5.42,2.62,5.19,5.63-.21,2.74-2.44,4.85-5.2,4.86-4.74.01-9.48,0-14.22,0-.34,0-.59-.14-.77-.42-.19-.28-.26-.6-.26-.93,0-.88,0-1.77,0-2.65-.01-1.06.42-1.9,1.25-2.55.79-.61,1.7-.95,2.63-1.24.6-.19,1.21-.36,1.83-.53.15-.04.24-.11.3-.25.09-.21.19-.41.3-.62ZM5.4,13.18c-.48.14-.95.27-1.42.42-.81.26-1.6.55-2.29,1.06-.72.54-1.1,1.24-1.08,2.15.02.85,0,1.69,0,2.54,0,.16.03.33.08.49.06.22.2.32.45.32,3.78,0,7.55,0,11.33,0h.25c-1.97-1.21-2.86-2.93-2.74-5.19-1.82,1.03-3.97.18-4.59-1.79ZM10.59,15.52c0,2.53,2.07,4.62,4.59,4.63,2.58.01,4.67-2.07,4.68-4.64,0-2.52-2.08-4.62-4.6-4.63-2.59,0-4.66,2.05-4.67,4.64ZM8.79,4.93c.11.12.16.18.22.24.07.07.14.13.2.2.18.21.1.47-.17.51-.21.04-.44.05-.65.04-.69-.03-1.23-.33-1.57-.95-.13-.24-.22-.5-.32-.76-.13-.34-.24-.39-.55-.18-.12.08-.24.2-.31.33-.11.19-.22.39-.25.6-.08.51-.1,1.03-.16,1.54-.02.16-.09.35-.2.46-.14.13-.29.01-.42-.09-.15-.12-.3-.07-.35.12-.02.1-.03.21,0,.3.1.41.25.8.54,1.11.12.13.27.26.44.31.4.13.41.11.46.53.26,2.06,2.59,3.1,4.28,1.89.68-.49.96-1.2,1.06-2,.03-.29.09-.35.36-.41.12-.03.26-.08.35-.16.42-.37.62-.85.72-1.39.01-.06,0-.14-.02-.19-.04-.07-.09-.17-.15-.19-.06-.02-.17.04-.22.1-.1.11-.2.19-.36.15-.17-.05-.21-.2-.24-.36-.08-.53-.16-1.07-.27-1.59-.07-.34-.2-.67-.31-1.01-.02,0-.04,0-.06,0-.46.76-1.16.96-2.04.84ZM11.76,4.56c0-.41.03-.89,0-1.36-.05-.66-.34-1.22-.85-1.64-1.26-1.03-2.67-1.24-4.12-.55-1.43.68-2.2,1.85-2.13,3.48,0,.15.04.3.07.47.13-.32.23-.6.37-.86.18-.35.46-.6.84-.73.59-.2.89-.06,1.11.51.1.26.2.53.32.79.18.36.48.57.91.62-.09-.14-.17-.26-.23-.39-.15-.33.03-.61.39-.61.18,0,.36.02.54.04.75.07,1.12-.13,1.47-.79.03-.05.05-.11.08-.16.15-.28.41-.31.58-.04.24.41.46.84.66,1.21ZM6.02,13.01c.03.1.06.2.09.29.44,1.05,1.55,1.65,2.67,1.45.96-.17,1.62-.8,1.77-1.72-.31-.02-.41-.25-.49-.5-.06-.21-.14-.41-.22-.6-1.02.39-2.01.38-2.99,0-.32.35-.27.94-.84,1.09Z"></path><path class="cls-1" d="M14.14,16.61c-.45,0-.87,0-1.29,0-.36,0-.5-.14-.5-.5,0-.35,0-.7,0-1.05,0-.31.15-.46.46-.46.43,0,.86,0,1.29,0,0,0,.01,0,.04-.03,0-.39,0-.79,0-1.2,0-.38.14-.52.51-.52.35,0,.7,0,1.05,0,.31,0,.45.14.45.46,0,.42,0,.84,0,1.29.42,0,.83,0,1.23,0,.4,0,.52.12.52.53,0,.34,0,.67,0,1.01,0,.34-.14.48-.47.48-.41,0-.83,0-1.28,0,0,.2,0,.4,0,.59,0,.26,0,.51,0,.77,0,.29-.15.43-.43.44-.38,0-.76,0-1.14,0-.29,0-.44-.16-.44-.45,0-.22,0-.44,0-.66,0-.22,0-.44,0-.69ZM15.54,17.78c0-.43,0-.85,0-1.26,0-.39.13-.52.53-.52.17,0,.34,0,.5,0h.71v-.79h-.86c-.88,0-.88,0-.88-.87v-.86h-.79c0,.42,0,.83,0,1.24,0,.36-.13.49-.48.49-.22,0-.44,0-.66,0-.22,0-.43,0-.64,0v.79c.44,0,.87,0,1.3,0,.35,0,.49.13.49.49,0,.43,0,.86,0,1.29h.79Z"></path></g></g></svg>