<svg width="100" height="100" viewBox="0 0 100 100" fill="none" xmlns="http://www.w3.org/2000/svg">
<rect width="100" height="100" rx="6" fill="#DAE7D6"/>
<path d="M44.4068 31.4238C43.7026 31.341 43.0291 31.0865 42.4446 30.6825C42.2473 30.546 42.1118 30.3363 42.0682 30.0993C42.0245 29.8623 42.076 29.6176 42.2116 29.4189C42.3471 29.2203 42.5555 29.0839 42.7908 29.0399C43.0262 28.996 43.2692 29.0479 43.4666 29.1843C43.9796 29.5419 44.6055 29.6965 45.2246 29.6187C45.2356 29.6172 45.2468 29.6158 45.2579 29.6145C45.8982 29.5233 46.4914 29.2236 46.9466 28.7611C47.1178 28.5927 47.3485 28.4996 47.5878 28.5024C47.8272 28.5052 48.0556 28.6036 48.2229 28.776C48.3902 28.9484 48.4826 29.1806 48.4798 29.4216C48.4771 29.6626 48.3793 29.8926 48.2081 30.0611C47.649 30.6192 46.9632 31.0316 46.21 31.2625C46.1947 32.5214 46.5369 33.7834 47.248 35.0981C47.3625 35.3098 47.3888 35.5587 47.3211 35.7899C47.2534 36.0211 47.0973 36.2158 46.887 36.3311C46.7829 36.3882 46.6687 36.4241 46.5508 36.4367C46.4329 36.4494 46.3137 36.4385 46.2 36.4048C45.9703 36.3366 45.7769 36.1794 45.6624 35.9677C44.8452 34.4544 44.4244 32.9305 44.4068 31.4238ZM40.7367 35.9523C40.5312 35.8286 40.2854 35.7921 40.0533 35.8509C39.8212 35.9097 39.6217 36.0589 39.4989 36.2657C39.376 36.4725 39.3398 36.72 39.3982 36.9537C39.4566 37.1874 39.6048 37.3882 39.8102 37.5119C40.3513 37.8276 40.7746 38.3132 41.0154 38.8943C41.2445 39.4547 41.2579 40.0809 41.0529 40.6507C40.9725 40.8778 40.9851 41.1276 41.0877 41.3454C41.1903 41.5631 41.3747 41.7309 41.6002 41.8118C41.8257 41.8927 42.0739 41.8801 42.2902 41.7767C42.5065 41.6734 42.6731 41.4878 42.7534 41.2607C43.1039 40.2707 43.0806 39.1854 42.6882 38.2115C42.3009 37.2636 41.6153 36.4699 40.7367 35.9523ZM48.893 42.6308C48.0321 42.2779 47.0796 42.2207 46.1832 42.4683C45.2643 42.7255 44.4717 43.3144 43.9565 44.1225C43.8275 44.3255 43.7838 44.5718 43.8351 44.8072C43.8865 45.0426 44.0285 45.2479 44.2302 45.3778C44.4318 45.5077 44.6764 45.5517 44.9102 45.5C45.144 45.4484 45.3479 45.3053 45.4769 45.1023C45.7511 44.6685 46.1762 44.3533 46.6691 44.2186C47.186 44.0793 47.7341 44.1151 48.2288 44.3205C48.4514 44.4092 48.6998 44.4052 48.9195 44.3095C49.1392 44.2138 49.3121 44.0341 49.4002 43.8101C49.4883 43.586 49.4844 43.3359 49.3893 43.1147C49.2942 42.8936 49.1158 42.7195 48.8932 42.6308H48.893ZM60.8075 29.4183C60.7404 29.32 60.6548 29.2359 60.5554 29.1708C60.456 29.1058 60.3449 29.0611 60.2283 29.0393C60.1118 29.0176 59.9921 29.0191 59.8762 29.0439C59.7602 29.0687 59.6503 29.1162 59.5526 29.1838C59.0395 29.5413 58.4136 29.6959 57.7944 29.6182C57.7835 29.6165 57.7724 29.6152 57.7613 29.6139C57.1209 29.5229 56.5278 29.2231 56.0726 28.7606C55.9878 28.6772 55.8875 28.6114 55.7775 28.567C55.6675 28.5226 55.5499 28.5005 55.4313 28.5019C55.3128 28.5032 55.1957 28.5281 55.0867 28.5751C54.9777 28.622 54.879 28.6901 54.7962 28.7754C54.7133 28.8608 54.648 28.9617 54.6039 29.0725C54.5598 29.1833 54.5378 29.3017 54.5392 29.4211C54.5406 29.5404 54.5653 29.6583 54.6119 29.768C54.6585 29.8777 54.7262 29.9771 54.8109 30.0605C55.3701 30.6186 56.0559 31.031 56.809 31.262C56.8242 32.5209 56.4821 33.7829 55.7711 35.0976C55.6565 35.3093 55.6302 35.5581 55.6979 35.7894C55.7656 36.0206 55.9217 36.2153 56.132 36.3306C56.3423 36.4459 56.5894 36.4724 56.8191 36.4043C57.0487 36.3361 57.2421 36.1789 57.3566 35.9672C58.175 34.4543 58.5958 32.9302 58.6132 31.4237C59.3175 31.3409 59.9911 31.0864 60.5756 30.6824C60.6733 30.6147 60.7567 30.5284 60.8212 30.4283C60.8857 30.3282 60.93 30.2163 60.9515 30.099C60.973 29.9816 60.9714 29.8612 60.9467 29.7445C60.922 29.6278 60.8747 29.5172 60.8075 29.4189V29.4183ZM56.8358 42.4681C55.9399 42.2243 54.9894 42.2816 54.1288 42.6313C53.9063 42.7204 53.7282 42.8948 53.6335 43.1161C53.5388 43.3375 53.5353 43.5876 53.6238 43.8116C53.7123 44.0355 53.8855 44.2149 54.1054 44.3102C54.3252 44.4055 54.5737 44.4091 54.7961 44.32C55.2894 44.1167 55.8351 44.081 56.3504 44.2185C56.8435 44.3528 57.2688 44.6681 57.5427 45.1023C57.6066 45.2028 57.6895 45.2897 57.7867 45.3579C57.884 45.4262 57.9936 45.4744 58.1094 45.5C58.2251 45.5256 58.3448 45.528 58.4615 45.507C58.5781 45.486 58.6896 45.4421 58.7894 45.3778C58.8892 45.3135 58.9755 45.23 59.0433 45.1321C59.111 45.0342 59.159 44.9238 59.1844 44.8072C59.2098 44.6907 59.2122 44.5702 59.1913 44.4527C59.1705 44.3352 59.1269 44.2231 59.063 44.1225C58.5482 43.3138 57.7552 42.7247 56.8358 42.4681ZM83 38.5384C82.9994 40.3558 82.586 42.1489 81.7915 43.7808C80.997 45.4127 79.8425 46.84 78.4161 47.9538C76.9898 49.0676 75.3293 49.8382 73.5618 50.2068C71.7943 50.5755 69.9664 50.5323 68.218 50.0807C67.5261 50.7018 66.7126 51.1701 65.83 51.4554C64.9475 51.7407 64.0153 51.8368 63.0936 51.7373C62.9942 53.0679 62.4772 54.3323 61.6175 55.3478C60.7577 56.3633 59.5996 57.0774 58.3104 57.3869C57.0212 57.6965 55.6677 57.5855 54.4453 57.0699C53.2228 56.5544 52.1948 55.661 51.5096 54.5188C50.8244 55.661 49.7963 56.5544 48.5739 57.0699C47.3515 57.5855 45.9979 57.6965 44.7088 57.3869C43.4196 57.0774 42.2615 56.3633 41.4017 55.3478C40.5419 54.3323 40.025 53.0679 39.9256 51.7373C38.8233 51.8549 37.7093 51.6937 36.6845 51.2682C35.6598 50.8428 34.7567 50.1665 34.0572 49.3008C33.3577 48.4351 32.8839 47.4073 32.6787 46.3106C32.4735 45.2138 32.5434 44.0829 32.8821 43.0203C31.9382 42.4125 31.1609 41.5759 30.6213 40.5873C30.0818 39.5987 29.7972 38.4895 29.7937 37.3615C29.7893 36.0973 30.1419 34.8578 30.8102 33.7875C31.4786 32.7172 32.4353 31.8602 33.5688 31.3162C33.259 30.3126 33.1879 29.2496 33.3612 28.2132C33.5345 27.1768 33.9473 26.1958 34.5664 25.3496C35.1854 24.5033 35.9934 23.8154 36.9251 23.3413C37.8567 22.8673 38.886 22.6203 39.9299 22.6204C39.9976 22.6204 40.0653 22.6216 40.1328 22.6236C40.457 21.4371 41.1196 20.3724 42.0386 19.5612C42.9575 18.75 44.0926 18.2278 45.3032 18.0593C46.5139 17.8908 47.7471 18.0833 48.8502 18.6132C49.9533 19.143 50.8779 19.9868 51.5096 21.0401C52.1413 19.9868 53.0659 19.143 54.169 18.6132C55.2721 18.0833 56.5053 17.8908 57.7159 18.0593C58.9266 18.2278 60.0616 18.75 60.9806 19.5612C61.8996 20.3724 62.5621 21.4371 62.8863 22.6236C62.9539 22.6216 63.0215 22.6204 63.0892 22.6204C64.4106 22.6211 65.702 23.0172 66.7994 23.7584C67.8968 24.4995 68.7506 25.5523 69.2525 26.783C70.9456 26.5042 72.6786 26.5993 74.3316 27.0616C75.9846 27.524 77.518 28.3426 78.8256 29.4607C80.1332 30.5789 81.1838 31.9698 81.9046 33.5373C82.6254 35.1047 82.9991 36.8111 83 38.5384ZM50.6071 24.2935C50.6072 23.2188 50.2233 22.1798 49.5254 21.3665C48.8275 20.5532 47.8623 20.0199 46.8061 19.864C45.7498 19.7081 44.6732 19.94 43.7728 20.5174C42.8724 21.0948 42.2084 21.979 41.9021 23.0086C42.5722 23.3079 43.1398 23.7995 43.5338 24.4219C43.9278 25.0443 44.1307 25.7699 44.1172 26.5079C44.1116 26.7451 44.0141 26.9707 43.8455 27.1365C43.6768 27.3022 43.4505 27.395 43.2148 27.395H43.1929C43.0744 27.3921 42.9576 27.3658 42.8492 27.3175C42.7408 27.2693 42.6429 27.1999 42.5611 27.1136C42.4793 27.0272 42.4153 26.9254 42.3726 26.8141C42.3298 26.7028 42.3093 26.5841 42.3122 26.4648C42.3345 25.5195 41.6778 24.7317 40.6765 24.4978C40.4295 24.4573 40.1797 24.4371 39.9294 24.4375C38.6425 24.4385 37.4084 24.9534 36.498 25.8693C35.5877 26.7852 35.0753 28.0272 35.0733 29.323C35.0719 30.0503 35.2335 30.7687 35.546 31.4245C35.9764 32.2694 36.932 32.6481 37.9276 32.3662C38.158 32.301 38.4048 32.3306 38.6135 32.4485C38.8223 32.5664 38.976 32.763 39.0408 32.995C39.1056 33.227 39.0762 33.4754 38.9591 33.6856C38.842 33.8958 38.6467 34.0505 38.4163 34.1158C38.0487 34.2206 37.6685 34.2741 37.2864 34.2748C36.7355 34.28 36.1902 34.1629 35.6895 33.9316C35.1887 33.7004 34.7448 33.3608 34.3893 32.937C33.5529 33.3291 32.8456 33.9541 32.351 34.7382C31.8564 35.5222 31.5952 36.4325 31.5983 37.3614C31.6009 38.1688 31.801 38.9632 32.181 39.6743C32.5609 40.3855 33.1091 40.9914 33.7769 41.4385C34.2794 40.8931 34.9316 40.5102 35.6506 40.3384C36.3697 40.1667 37.1232 40.2138 37.8156 40.4738C37.9265 40.5161 38.028 40.5799 38.1144 40.6616C38.2008 40.7434 38.2703 40.8415 38.319 40.9503C38.3678 41.0591 38.3948 41.1765 38.3984 41.2958C38.4021 41.4151 38.3824 41.534 38.3404 41.6456C38.2985 41.7572 38.2351 41.8595 38.1539 41.9464C38.0727 42.0334 37.9753 42.1034 37.8672 42.1525C37.7591 42.2016 37.6425 42.2287 37.524 42.2324C37.4055 42.2361 37.2875 42.2163 37.1766 42.174C36.304 41.8417 35.3574 42.194 34.8046 43.0498C34.4679 43.7939 34.3221 44.6113 34.3807 45.4268C34.4392 46.2424 34.7002 47.0301 35.1397 47.7177C35.5792 48.4054 36.1832 48.9709 36.8962 49.3624C37.6092 49.754 38.4084 49.959 39.2206 49.9587C39.6751 49.9578 40.1274 49.8939 40.5646 49.7686H40.5677L40.5738 49.7665C41.4861 49.5174 42.0519 48.6503 41.9815 47.6076C41.9735 47.4886 41.9888 47.3691 42.0267 47.256C42.0645 47.1429 42.1241 47.0384 42.202 46.9485C42.2799 46.8586 42.3747 46.7851 42.4809 46.732C42.587 46.679 42.7025 46.6475 42.8208 46.6395C42.939 46.6314 43.0577 46.6468 43.17 46.6849C43.2823 46.723 43.3861 46.783 43.4754 46.8614C43.5647 46.9399 43.6378 47.0353 43.6904 47.1422C43.7431 47.2491 43.7744 47.3654 43.7824 47.4844C43.8935 49.1302 43.0651 50.5943 41.7126 51.2665C41.7282 52.4437 42.2036 53.5674 43.036 54.3943C43.8684 55.2212 44.9908 55.6847 46.1601 55.6846C47.3295 55.6844 48.4517 55.2206 49.2839 54.3935C50.1161 53.5665 50.5913 52.4427 50.6066 51.2654L50.6071 24.2935ZM66.1664 49.3381C64.0154 48.3296 62.2152 46.6932 60.9997 44.6415C59.7841 42.5898 59.2094 40.2175 59.3501 37.8327C59.4908 35.4479 60.3405 33.1608 61.7887 31.2683C63.2369 29.3759 65.2169 27.9657 67.4714 27.2206C67.0761 26.3878 66.4549 25.6845 65.6794 25.1919C64.904 24.6994 64.0061 24.4378 63.0892 24.4372C62.8329 24.4368 62.5769 24.4579 62.324 24.5003C61.3341 24.7417 60.6842 25.5307 60.7066 26.4642C60.7095 26.5836 60.689 26.7023 60.6463 26.8136C60.6036 26.925 60.5396 27.0268 60.4578 27.1132C60.376 27.1996 60.2781 27.2689 60.1697 27.3172C60.0613 27.3655 59.9445 27.3918 59.826 27.3947H59.8039C59.5682 27.3948 59.3419 27.302 59.1733 27.1363C59.0047 26.9706 58.9071 26.745 58.9015 26.5079C58.8653 24.997 59.7461 23.6519 61.1168 23.0089C60.8106 21.9792 60.1466 21.0948 59.2462 20.5174C58.3458 19.9399 57.269 19.7079 56.2127 19.8638C55.1564 20.0197 54.1911 20.5531 53.4932 21.3665C52.7953 22.1799 52.4114 23.2189 52.4117 24.2938V51.2637C52.4283 52.4401 52.9042 53.5627 53.7363 54.3886C54.5685 55.2146 55.6901 55.6776 56.8586 55.6776C58.0271 55.6776 59.1487 55.2146 59.9809 54.3886C60.813 53.5627 61.2889 52.4401 61.3055 51.2637C59.9536 50.5899 59.1246 49.1243 59.2359 47.4825C59.2522 47.2421 59.3627 47.018 59.543 46.8596C59.7234 46.7012 59.9589 46.6214 60.1977 46.6378C60.4365 46.6542 60.6591 46.7654 60.8164 46.947C60.9738 47.1286 61.053 47.3657 61.0367 47.6062C60.9666 48.642 61.5286 49.5087 62.4354 49.7629C62.4375 49.7629 62.4393 49.7642 62.4412 49.7648C62.4453 49.7659 62.4494 49.7664 62.4541 49.7675C62.8913 49.8928 63.3435 49.9568 63.7981 49.9577C64.6273 49.96 65.443 49.7466 66.1662 49.3381H66.1664ZM81.1953 38.5384C81.1953 36.5411 80.607 34.5886 79.5049 32.9279C78.4027 31.2672 76.8362 29.9728 75.0034 29.2085C73.1706 28.4441 71.1539 28.2441 69.2082 28.6338C67.2625 29.0234 65.4753 29.9853 64.0725 31.3976C62.6697 32.8099 61.7145 34.6093 61.3274 36.5683C60.9404 38.5272 61.139 40.5577 61.8982 42.403C62.6574 44.2483 63.943 45.8255 65.5925 46.9352C67.2419 48.0448 69.1812 48.6371 71.165 48.6371C73.8244 48.6346 76.3742 47.5698 78.2547 45.6765C80.1352 43.7832 81.1928 41.216 81.1953 38.5384ZM75.1809 64.0295C76.1464 67.3571 73.7363 68.5948 72.1415 69.4138C71.933 69.5209 71.7362 69.6215 71.5485 69.7253L71.528 69.7361L50.5211 80.5448C49.6087 81.0208 48.5953 81.2669 47.5677 81.2621C46.0927 81.2621 44.6414 80.7965 43.1763 80.2582L33.7317 76.7828L31.6594 77.3279L32.0848 78.7919C32.1598 79.051 32.1833 79.3224 32.1541 79.5907C32.1249 79.859 32.0435 80.1189 31.9145 80.3554C31.7855 80.592 31.6115 80.8007 31.4024 80.9696C31.1934 81.1385 30.9533 81.2643 30.6959 81.3398L25.3447 82.9179C24.8256 83.0702 24.2678 83.0091 23.7935 82.7479C23.3191 82.4867 22.967 82.0469 22.8143 81.5247L17.0811 61.7981C16.9302 61.2751 16.9915 60.7133 17.2515 60.2357C17.5116 59.7582 17.9491 59.404 18.4681 59.2508L23.8213 57.6725C24.0787 57.597 24.3483 57.5732 24.6148 57.6026C24.8813 57.632 25.1394 57.7139 25.3744 57.8438C25.6094 57.9736 25.8168 58.1488 25.9845 58.3593C26.1523 58.5698 26.2772 58.8115 26.3522 59.0706L26.6709 60.1669L33.4881 57.9492C35.3842 57.3303 37.6841 56.859 40.3599 58.0611L51.3407 63.0022C52.958 63.7271 53.8731 65.3243 54.189 66.8948L70.4488 61.1381C70.4636 61.1329 70.4787 61.128 70.4939 61.1236C70.9371 60.9964 71.401 60.9592 71.8587 61.014C72.3163 61.0687 72.7586 61.2145 73.1599 61.4427C74.1457 62.0032 74.872 62.9329 75.1809 64.0295ZM30.3521 79.3011L24.6194 59.5798C24.611 59.5495 24.5967 59.5213 24.5773 59.4968C24.5578 59.4723 24.5337 59.4519 24.5062 59.437C24.4793 59.4218 24.4495 59.4121 24.4188 59.4087C24.388 59.4053 24.3569 59.4081 24.3273 59.417L18.9756 60.995H18.9741C18.9445 61.0038 18.9169 61.0185 18.8929 61.0381C18.8689 61.0577 18.849 61.0818 18.8342 61.1092C18.8193 61.136 18.8098 61.1656 18.8063 61.1962C18.8027 61.2267 18.8052 61.2577 18.8136 61.2873L24.5467 81.0137C24.5654 81.0732 24.6064 81.1231 24.6609 81.1527C24.7154 81.1824 24.7793 81.1896 24.8389 81.1729L30.1905 79.5949C30.2507 79.5775 30.3015 79.5367 30.3318 79.4815C30.3621 79.4263 30.3694 79.3613 30.3521 79.3007V79.3011ZM73.4478 64.5385C73.2741 63.9044 72.8591 63.3648 72.2928 63.0368C71.9084 62.8131 71.4522 62.7502 71.0222 62.8616L54.2791 68.7889C54.2304 69.2363 54.1265 69.6759 53.9697 70.0974C53.2642 71.9726 51.6612 73.0298 49.7575 73.0298C49.042 73.0236 48.3335 72.8876 47.666 72.6283L40.2779 69.836C40.0538 69.7513 39.8723 69.5805 39.7733 69.361C39.6743 69.1416 39.666 68.8916 39.7501 68.666C39.8342 68.4403 40.0039 68.2576 40.2219 68.158C40.4398 68.0583 40.6881 68.0499 40.9122 68.1346L48.3007 70.9269C49.6844 71.4499 51.5568 71.3785 52.2807 69.4543C52.4361 69.0313 52.5141 68.5835 52.5108 68.1325C52.5072 66.5899 51.7238 65.1625 50.6054 64.6612L39.6238 59.7199C37.9173 58.9534 36.3005 58.9412 34.044 59.6775L27.1781 61.9118L31.1528 75.583L33.5491 74.9526C33.7268 74.906 33.9145 74.915 34.087 74.9786L43.7958 78.5509C46.3063 79.4724 47.991 79.8061 49.6998 78.9265L70.6968 68.1227C70.903 68.0104 71.1155 67.901 71.3217 67.7951C73.0779 66.8927 73.9702 66.3382 73.4478 64.5385ZM77.9597 40.7299L71.8027 46.9288C71.7189 47.0132 71.6194 47.0801 71.5099 47.1258C71.4005 47.1714 71.2831 47.195 71.1646 47.195C71.0461 47.195 70.9287 47.1714 70.8193 47.1258C70.7098 47.0801 70.6103 47.0132 70.5265 46.9288L64.3694 40.7299C63.4869 39.8414 62.9911 38.6363 62.991 37.3797C62.991 36.1231 63.4868 34.918 64.3693 34.0295C65.2518 33.1409 66.4487 32.6417 67.6968 32.6417C68.9449 32.6417 70.1418 33.1408 71.0243 34.0293L71.1645 34.1704L71.3047 34.0293C71.7417 33.5894 72.2605 33.2404 72.8314 33.0023C73.4024 32.7642 74.0143 32.6417 74.6323 32.6417C75.2503 32.6417 75.8622 32.7643 76.4331 33.0024C77.0041 33.2405 77.5228 33.5895 77.9598 34.0295C78.3968 34.4694 78.7434 34.9917 78.9799 35.5666C79.2163 36.1414 79.338 36.7575 79.338 37.3797C79.338 38.0019 79.2163 38.618 78.9798 39.1928C78.7433 39.7676 78.3966 40.2899 77.9597 40.7299ZM76.6835 35.3142C76.1382 34.7689 75.4008 34.4629 74.6323 34.4629C73.8638 34.4629 73.1265 34.7689 72.5812 35.3142L71.8028 36.0979C71.719 36.1823 71.6196 36.2492 71.5101 36.2948C71.4006 36.3405 71.2832 36.364 71.1647 36.364C71.0462 36.364 70.9289 36.3405 70.8194 36.2948C70.7099 36.2492 70.6104 36.1823 70.5266 36.0979L69.7481 35.3142C69.4788 35.043 69.159 34.8279 68.807 34.6811C68.4551 34.5343 68.0779 34.4588 67.6969 34.4588C67.316 34.4588 66.9388 34.5343 66.5868 34.6811C66.2349 34.8279 65.9151 35.043 65.6457 35.3142C65.3764 35.5854 65.1627 35.9074 65.0169 36.2617C64.8711 36.6161 64.7961 36.9959 64.7961 37.3794C64.7961 37.763 64.8711 38.1427 65.0169 38.4971C65.1627 38.8514 65.3764 39.1734 65.6457 39.4446L71.1646 45.0011L76.6835 39.4447C77.2267 38.8966 77.5319 38.1539 77.5319 37.3795C77.5319 36.6051 77.2267 35.8624 76.6835 35.3142Z" fill="#0A3A3B" stroke="#0A3A3B" stroke-width="0.5"/>
</svg>
