<?xml version="1.0" encoding="UTF-8"?>
<svg xmlns="http://www.w3.org/2000/svg" width="55" height="56" viewBox="0 0 55 56" fill="none">
  <path d="M51.4615 43.3846H47.4885C47.572 43.1447 47.6149 42.8925 47.6154 42.6385V28.7692C47.6154 28.5652 47.5343 28.3696 47.3901 28.2253C47.2458 28.081 47.0502 28 46.8462 28C46.6421 28 46.4465 28.081 46.3022 28.2253C46.158 28.3696 46.0769 28.5652 46.0769 28.7692V42.6385C46.0769 42.8364 45.9983 43.0261 45.8584 43.1661C45.7184 43.306 45.5287 43.3846 45.3308 43.3846H38.3846V41.0462C38.3688 38.023 37.3673 35.0876 35.532 32.6852C33.6968 30.2829 31.128 28.5448 28.2154 27.7346C29.3085 27.089 30.2169 26.1727 30.8528 25.0739C31.4888 23.9751 31.8309 22.731 31.8462 21.4615V11.8462C31.8081 10.8382 31.3906 9.88193 30.6774 9.16872C29.9642 8.45552 29.0079 8.03807 28 8H21.0769C20.069 8.03807 19.1127 8.45552 18.3995 9.16872C17.6863 9.88193 17.2688 10.8382 17.2308 11.8462V21.4615C17.2459 22.7339 17.5896 23.9807 18.2284 25.0811C18.8672 26.1815 19.7796 27.0982 20.8769 27.7423C18.643 28.3775 16.6066 29.5684 14.9577 31.2038C13.6136 32.5277 12.5448 34.1043 11.8127 35.843C11.0807 37.5817 10.6999 39.4481 10.6923 41.3346V43.3846H9.9C9.70211 43.3846 9.51232 43.306 9.37239 43.1661C9.23246 43.0261 9.15385 42.8364 9.15385 42.6385V17.9769C9.15385 17.779 9.23246 17.5892 9.37239 17.4493C9.51232 17.3094 9.70211 17.2308 9.9 17.2308H14.9231C15.1271 17.2308 15.3227 17.1497 15.467 17.0055C15.6113 16.8612 15.6923 16.6656 15.6923 16.4615C15.6923 16.2575 15.6113 16.0619 15.467 15.9176C15.3227 15.7734 15.1271 15.6923 14.9231 15.6923H9.9C9.29595 15.6983 8.71833 15.9409 8.29118 16.3681C7.86403 16.7953 7.6214 17.3729 7.61538 17.9769V42.6385C7.61591 42.8925 7.65881 43.1447 7.74231 43.3846H3.76923C3.56522 43.3846 3.36956 43.4657 3.2253 43.6099C3.08104 43.7542 3 43.9498 3 44.1538V44.3462C3 46.0769 4.39615 48 6.26923 48H48.9615C50.8346 48 52.2308 46.0769 52.2308 44.3462V44.1538C52.2308 43.9498 52.1497 43.7542 52.0055 43.6099C51.8612 43.4657 51.6656 43.3846 51.4615 43.3846ZM18.7692 11.8462C18.8057 11.246 19.0605 10.68 19.4857 10.2549C19.9108 9.82977 20.4768 9.57493 21.0769 9.53846H28C28.6001 9.57493 29.1661 9.82977 29.5913 10.2549C30.0164 10.68 30.2712 11.246 30.3077 11.8462V15.6923H18.7692V11.8462ZM18.7692 21.4615V17.2308H30.3077V21.4615C30.2697 22.9797 29.6497 24.4251 28.5758 25.4989C27.502 26.5727 26.0566 27.1928 24.5385 27.2308C23.0203 27.1928 21.5749 26.5727 20.5011 25.4989C19.4273 24.4251 18.8072 22.9797 18.7692 21.4615ZM12.2308 41.3346C12.2384 39.6524 12.5784 37.9882 13.2312 36.4378C13.884 34.8873 14.8367 33.4811 16.0346 32.3C17.1226 31.2271 18.3991 30.364 19.8 29.7538C19.4154 30.7885 19.1 31.9808 18.9231 32.6692C18.1162 32.7958 17.3828 33.2111 16.8593 33.838C16.3358 34.4648 16.0577 35.2604 16.0769 36.0769V41.0769C16.0769 41.2809 16.158 41.4766 16.3022 41.6209C16.4465 41.7651 16.6421 41.8462 16.8462 41.8462H17.6154C17.8194 41.8462 18.0151 41.7651 18.1593 41.6209C18.3036 41.4766 18.3846 41.2809 18.3846 41.0769C18.3846 40.8729 18.3036 40.6773 18.1593 40.533C18.0151 40.3887 17.8194 40.3077 17.6154 40.3077V36.0769C17.6062 35.8219 17.6497 35.5678 17.7431 35.3303C17.8365 35.0929 17.9779 34.8772 18.1583 34.6968C18.3387 34.5163 18.5544 34.375 18.7918 34.2816C19.0293 34.1882 19.2835 34.1447 19.5385 34.1538C19.7935 34.1447 20.0476 34.1882 20.2851 34.2816C20.5225 34.375 20.7382 34.5163 20.9186 34.6968C21.0991 34.8772 21.2404 35.0929 21.3338 35.3303C21.4272 35.5678 21.4707 35.8219 21.4615 36.0769V40.3077C21.2575 40.3077 21.0619 40.3887 20.9176 40.533C20.7734 40.6773 20.6923 40.8729 20.6923 41.0769C20.6923 41.2809 20.7734 41.4766 20.9176 41.6209C21.0619 41.7651 21.2575 41.8462 21.4615 41.8462H22.2308C22.4348 41.8462 22.6304 41.7651 22.7747 41.6209C22.919 41.4766 23 41.2809 23 41.0769V36.0769C23.0176 35.3207 22.7801 34.5806 22.3259 33.9757C21.8718 33.3708 21.2272 32.9364 20.4962 32.7423C20.8 31.5885 21.3038 29.8923 21.7385 29.1615C21.7385 29.1385 21.7577 29.1154 21.7692 29.0962C22.745 28.8618 23.7466 28.752 24.75 28.7692C26.0489 28.7927 27.3357 29.0238 28.5615 29.4538C29.35 30.8769 29.7154 32.9154 29.85 33.9423C29.1924 34.1397 28.6285 34.5684 28.2625 35.1492C27.8964 35.7301 27.753 36.4238 27.8587 37.1022C27.9644 37.7805 28.312 38.3977 28.8374 38.8397C29.3628 39.2817 30.0304 39.5185 30.7168 39.5065C31.4033 39.4945 32.0622 39.2344 32.5718 38.7743C33.0814 38.3143 33.4072 37.6853 33.4891 37.0036C33.571 36.322 33.4034 35.6337 33.0173 35.066C32.6311 34.4984 32.0525 34.0896 31.3885 33.9154C31.2403 32.7237 30.9828 31.5483 30.6192 30.4038C32.4942 31.4796 34.0534 33.0296 35.1402 34.8982C36.2271 36.7668 36.8035 38.8883 36.8115 41.05L36.8462 43.3846H12.2308V41.3346ZM30.6923 35.3577C30.9502 35.3577 31.2023 35.4342 31.4167 35.5774C31.6311 35.7207 31.7982 35.9243 31.8969 36.1626C31.9956 36.4008 32.0214 36.663 31.9711 36.9159C31.9208 37.1688 31.7966 37.4012 31.6143 37.5835C31.4319 37.7658 31.1996 37.89 30.9467 37.9403C30.6938 37.9906 30.4316 37.9648 30.1933 37.8661C29.9551 37.7675 29.7515 37.6003 29.6082 37.3859C29.4649 37.1715 29.3885 36.9194 29.3885 36.6615C29.3885 36.3157 29.5258 35.9841 29.7703 35.7396C30.0149 35.4951 30.3465 35.3577 30.6923 35.3577ZM48.9615 46.4615H6.26923C5.51923 46.4615 4.85769 45.6923 4.62692 44.9231H50.6038C50.3731 45.7115 49.7115 46.4615 48.9615 46.4615Z" fill="#0D3738"></path>
  <path d="M49.9231 11.0769H37.6154C37.0033 11.0769 36.4164 11.3201 35.9836 11.7528C35.5508 12.1856 35.3077 12.7726 35.3077 13.3846V18.9C35.3077 21.9346 34.4231 23.9423 32.6154 25.0346C32.4728 25.121 32.3622 25.2514 32.3001 25.4062C32.2381 25.5609 32.228 25.7317 32.2714 25.8926C32.3148 26.0536 32.4093 26.1961 32.5407 26.2987C32.6721 26.4013 32.8333 26.4585 33 26.4615H49.9231C50.5351 26.4615 51.1221 26.2184 51.5548 25.7856C51.9876 25.3529 52.2308 24.7659 52.2308 24.1538V13.3846C52.2308 12.7726 51.9876 12.1856 51.5548 11.7528C51.1221 11.3201 50.5351 11.0769 49.9231 11.0769ZM50.6923 24.1538C50.6923 24.3579 50.6113 24.5535 50.467 24.6978C50.3227 24.842 50.1271 24.9231 49.9231 24.9231H35.0769C36.2654 23.4923 36.8461 21.5 36.8461 18.9V13.3846C36.8461 13.1806 36.9272 12.9849 37.0714 12.8407C37.2157 12.6964 37.4114 12.6154 37.6154 12.6154H49.9231C50.1271 12.6154 50.3227 12.6964 50.467 12.8407C50.6113 12.9849 50.6923 13.1806 50.6923 13.3846V24.1538Z" fill="#0D3738"></path>
  <path d="M46.8461 15.6923H40.6923C40.4883 15.6923 40.2926 15.7733 40.1484 15.9176C40.0041 16.0619 39.9231 16.2575 39.9231 16.4615C39.9231 16.6655 40.0041 16.8612 40.1484 17.0055C40.2926 17.1497 40.4883 17.2308 40.6923 17.2308H46.8461C47.0502 17.2308 47.2458 17.1497 47.3901 17.0055C47.5343 16.8612 47.6154 16.6655 47.6154 16.4615C47.6154 16.2575 47.5343 16.0619 47.3901 15.9176C47.2458 15.7733 47.0502 15.6923 46.8461 15.6923Z" fill="#0D3738"></path>
  <path d="M45.3077 20.3077H40.6923C40.4883 20.3077 40.2926 20.3887 40.1484 20.533C40.0041 20.6773 39.9231 20.8729 39.9231 21.0769C39.9231 21.2809 40.0041 21.4766 40.1484 21.6209C40.2926 21.7651 40.4883 21.8462 40.6923 21.8462H45.3077C45.5117 21.8462 45.7074 21.7651 45.8516 21.6209C45.9959 21.4766 46.0769 21.2809 46.0769 21.0769C46.0769 20.8729 45.9959 20.6773 45.8516 20.533C45.7074 20.3887 45.5117 20.3077 45.3077 20.3077Z" fill="#0D3738"></path>
  <path d="M25.6923 11.8462H25.3077V11.4615C25.3077 11.2575 25.2267 11.0619 25.0824 10.9176C24.9381 10.7734 24.7425 10.6923 24.5385 10.6923C24.3345 10.6923 24.1388 10.7734 23.9945 10.9176C23.8503 11.0619 23.7692 11.2575 23.7692 11.4615V11.8462H23.3846C23.1806 11.8462 22.9849 11.9272 22.8407 12.0715C22.6964 12.2157 22.6154 12.4114 22.6154 12.6154C22.6154 12.8194 22.6964 13.0151 22.8407 13.1593C22.9849 13.3036 23.1806 13.3846 23.3846 13.3846H23.7692V13.7692C23.7692 13.9732 23.8503 14.1689 23.9945 14.3132C24.1388 14.4574 24.3345 14.5385 24.5385 14.5385C24.7425 14.5385 24.9381 14.4574 25.0824 14.3132C25.2267 14.1689 25.3077 13.9732 25.3077 13.7692V13.3846H25.6923C25.8963 13.3846 26.092 13.3036 26.2362 13.1593C26.3805 13.0151 26.4615 12.8194 26.4615 12.6154C26.4615 12.4114 26.3805 12.2157 26.2362 12.0715C26.092 11.9272 25.8963 11.8462 25.6923 11.8462Z" fill="#0D3738"></path>
</svg>
