<svg xmlns="http://www.w3.org/2000/svg" width="100" height="100" viewBox="0 0 100 100" fill="none"><rect width="100" height="100" rx="6" fill="#DAE7D6"></rect><path d="M40.5203 70.3703H47.0843C48.2759 70.3703 48.3301 68.466 47.0843 68.466H40.5203C39.3287 68.466 39.2745 70.3703 40.5203 70.3703Z" fill="#0A3A3B" stroke="#0A3A3B" stroke-width="0.5"></path><path d="M30.5152 70.3703C31.7068 70.3703 31.761 68.466 30.5152 68.466H23.9511C22.7595 68.466 22.7053 70.3703 23.9511 70.3703H30.5152Z" fill="#0A3A3B" stroke="#0A3A3B" stroke-width="0.5"></path><path d="M81.7141 71.5561C80.6674 70.3515 78.7579 70.221 77.5555 71.2751L74.5466 73.9131L66.7492 64.9395L68.56 63.352C69.4559 62.5664 68.2416 61.0991 67.3045 61.9201L57.1473 70.8252C56.1512 71.6989 54.7865 70.1174 55.7838 69.243L71.0512 55.8578C72.0476 54.9846 73.4121 56.5657 72.4147 57.44L70.8884 58.7781C69.9925 59.5636 71.2067 61.031 72.1439 60.21L73.6701 58.8719C76.4933 56.3966 72.6914 51.8876 69.7957 54.4258L68.1118 55.9021L63.9631 51.1277L62.6653 49.6339C62.6652 49.6338 62.665 49.6337 62.6649 49.6334L45.6579 30.0614C44.6325 28.8814 42.7617 28.7534 41.5838 29.7862L40.8975 30.3878L38.6685 27.8224C37.6431 26.6422 35.7724 26.5146 34.5944 27.5471L34.4032 27.7147L26.2367 18.3165C25.4549 17.4172 23.9823 18.6252 24.7994 19.5656L32.9713 28.9701L32.7739 29.1432C31.5771 30.1925 31.4522 32.0227 32.4955 33.2233L34.7301 35.795L34.0376 36.4021C32.8408 37.4514 32.7159 39.2817 33.7592 40.4824L38.4726 45.9068C38.2177 46.0777 38.0498 46.3683 38.0498 46.6981V50.1952C38.0498 50.721 38.476 51.1473 39.002 51.1473H40.0897V53.3427L35.7124 58.5001C35.5825 58.8298 35.4526 58.8298 35.3229 58.5001L30.9455 53.3427V51.1473H32.0333C32.5592 51.1473 32.9854 50.721 32.9854 50.1952V46.6981C32.9854 46.1723 32.5592 45.746 32.0333 45.746H22.4328C21.9069 45.746 21.4807 46.1723 21.4807 46.6981V50.1952C21.4807 50.721 21.9069 51.1473 22.4328 51.1473H23.5206V53.3427L19.1432 58.5001C18.406 59.3686 18 60.4738 18 61.612V66.9172C18 68.1088 19.9043 68.163 19.9043 66.9172V64.7807H34.5618V73.6221H19.9043V72.0044C19.9043 70.8128 18 70.7586 18 72.0044V79.6468C18 81.4898 19.5019 82.9891 21.348 82.9891H33.1182C34.0586 82.9891 34.909 82.5995 35.5176 81.9742C36.1264 82.5995 36.9768 82.9891 37.917 82.9891H49.6874C51.5334 82.9891 53.0353 81.4898 53.0353 79.6468V62.6661L56.2184 66.3293L54.5284 67.811C51.6729 70.3147 55.5412 74.7656 58.4027 72.257L65.3172 66.1948L73.1146 75.1684L70.0995 77.8117C67.2439 80.3153 71.1124 84.7663 73.9739 82.2579L81.4297 75.7212C82.6517 74.6502 82.7791 72.7817 81.7141 71.5561ZM62.8811 60.488L60.2804 57.4951L64.0793 54.1646L66.6799 57.1576L62.8811 60.488ZM52.8257 59.5214L61.8552 51.6051L62.8303 52.7271L53.8007 60.6436L52.8257 59.5214ZM33.9329 31.9742C33.5754 31.5628 33.6185 30.9351 34.0294 30.5751L35.8499 28.979C36.254 28.6248 36.8722 28.6585 37.2311 29.0715L39.4659 31.6433L36.1622 34.5397L33.9329 31.9742ZM35.2931 37.8341L42.8393 31.2182C43.3256 30.8654 43.7861 30.8962 44.2205 31.3107L46.0106 33.3707L44.8201 34.4144C43.9146 35.2085 45.1717 36.6386 46.0756 35.8463L47.2595 34.8082L49.5275 37.4184L46.7523 39.8514C45.8468 40.6455 47.104 42.0758 48.0078 41.2833L50.7769 38.8556L53.0449 41.4656L51.8545 42.5093C50.9489 43.3034 52.206 44.7335 53.1099 43.9412L54.294 42.9031L56.562 45.5133L53.7866 47.9466C52.881 48.7407 54.1382 50.1709 55.042 49.3785L57.8111 46.9508L60.6064 50.1676L51.5766 58.0839L47.5147 53.3426V51.1472H48.6024C49.1284 51.1472 49.5546 50.7209 49.5546 50.1951V46.698C49.5546 46.1722 49.1284 45.7459 48.6024 45.7459H40.8555L35.1964 39.2333C34.8391 38.8218 34.8824 38.1942 35.2931 37.8341ZM39.9543 47.6503H47.6504V49.243H46.5627H41.042H39.9543V47.6503ZM45.6104 51.1473V52.7401H41.9941V51.1473H45.6104ZM51.1311 73.622H36.4736V64.7806H51.1311V73.622ZM23.385 47.6503H31.0811V49.243H29.9934H24.4727H23.385V47.6503ZM29.0412 51.1473V52.7401H25.4249V51.1473H29.0412ZM19.9043 62.8763C19.8492 61.7902 19.8515 60.6084 20.5949 59.7322L24.9135 54.6443H29.5526L33.8712 59.7322C34.6146 60.6083 34.617 61.7901 34.5618 62.8763H19.9043ZM33.1182 81.0845H21.348C20.5519 81.0845 19.9043 80.4395 19.9043 79.6465V75.5263H34.5618V79.6467C34.5618 80.4395 33.9142 81.0845 33.1182 81.0845ZM49.6875 81.0845H37.9172C37.121 81.0845 36.4736 80.4395 36.4736 79.6465V75.5263H51.1311V79.6467C51.1311 80.4395 50.4835 81.0845 49.6875 81.0845ZM50.4403 59.7323C51.1838 60.6084 51.1862 61.7902 51.131 62.8764H36.4736C36.4185 61.7903 36.4208 60.6085 37.1642 59.7323L41.4828 54.6444H46.065L50.4403 59.7323ZM55.0496 62.0809L58.8484 58.7504L61.4492 61.7434L57.6504 65.0738L55.0496 62.0809ZM80.1744 74.2894L72.7186 80.8261C71.7225 81.6996 70.3576 80.1182 71.3551 79.2439L78.8109 72.7072C79.8125 71.8293 81.1851 73.4034 80.1744 74.2894Z" fill="#0A3A3B" stroke="#0A3A3B" stroke-width="0.5"></path></svg>