<svg width="100" height="100" viewBox="0 0 100 100" fill="none" xmlns="http://www.w3.org/2000/svg">
<rect width="100" height="100" rx="6" fill="#DAE7D6"/>
<path fill-rule="evenodd" clip-rule="evenodd" d="M30.8431 23.5552H22.9419C22.4238 23.5552 22.0022 23.9788 22.0022 24.4995V72.6144C22.0022 73.1351 22.4254 73.5588 22.9419 73.5588H51.4764C52.029 73.5588 52.4775 74.0097 52.4775 74.5649C52.4775 75.1201 52.029 75.571 51.4764 75.571H22.9419C21.3249 75.571 20 74.2447 20 72.6144V24.4995C20 22.8692 21.3197 21.5431 22.9419 21.5431H30.8431V20.1732C30.8431 19.6176 31.2913 19.1671 31.8442 19.1671H36.0504C36.5156 16.7901 38.5985 15 41.0975 15C43.5962 15 45.6819 16.7902 46.1478 19.1671H50.3541C50.907 19.1671 51.3552 19.6176 51.3552 20.1732V21.5431H59.253C60.8752 21.5431 62.1949 22.8692 62.1949 24.4995V37.7333C62.1949 38.2885 61.7463 38.7394 61.1938 38.7394C60.6414 38.7394 60.1927 38.2885 60.1927 37.7333V24.4995C60.1927 23.9788 59.7711 23.5552 59.253 23.5552H51.3552V25.4439H57.3122C57.8651 25.4439 58.3133 25.8943 58.3133 26.45V39.0841C58.3133 39.6393 57.8648 40.0901 57.3122 40.0901C56.7597 40.0901 56.3111 39.6393 56.3111 39.0841V27.456H25.8839V69.6579H52.0853C52.6378 69.6579 53.0864 70.1087 53.0864 70.6639C53.0864 71.2193 52.6378 71.67 52.0853 71.67H24.8828C24.3299 71.67 23.8817 71.2196 23.8817 70.6639V26.45C23.8817 25.8943 24.3299 25.4439 24.8828 25.4439H30.8431V23.5552ZM49.3531 25.4439V21.1793H45.2441C44.6912 21.1793 44.243 20.7289 44.243 20.1732C44.243 18.4261 42.8334 17.0121 41.0975 17.0121C39.3619 17.0121 37.9555 18.4264 37.9555 20.1732C37.9555 20.7289 37.5073 21.1793 36.9544 21.1793H32.8453V25.4439H49.3531ZM41.0975 21.2696C40.4952 21.2696 40.0066 20.7784 40.0066 20.1732C40.0066 19.568 40.4952 19.0736 41.0975 19.0736C41.6997 19.0736 42.1918 19.568 42.1918 20.1732C42.1918 20.7784 41.6997 21.2696 41.0975 21.2696ZM44.067 55.9766H39.4131C38.8605 55.9766 38.412 55.5257 38.412 54.9705C38.412 54.4152 38.8605 53.9644 39.4131 53.9644H44.5614C45.1136 53.1117 46.068 52.5454 47.1561 52.5391H47.1619H76.8974H76.9031C78.6234 52.5492 80.01 53.9588 79.9999 55.6877L79.9995 55.7797C79.9895 57.5085 78.5867 58.902 76.8664 58.8919C76.8651 58.8919 76.8638 58.8919 76.8627 58.8919L69.6288 58.8219V67.6391L71.5347 81.9268C71.659 82.8585 71.41 83.8017 70.8422 84.5487C70.2746 85.296 69.4348 85.7858 68.5078 85.9107L68.0809 85.9683C66.3139 86.2063 64.6479 85.0817 64.199 83.3475L61.9281 74.5737L59.657 83.3475C59.2082 85.0817 57.5421 86.2063 55.7751 85.9683L55.3483 85.9107C54.4212 85.7858 53.5814 85.296 53.0138 84.5487C52.4461 83.8017 52.197 82.8585 52.3213 81.9268L54.2274 67.6391V63.011C54.1111 63.4372 53.7225 63.7508 53.2617 63.7508H39.4131C38.8605 63.7508 38.412 63.3001 38.412 62.7447C38.412 62.1895 38.8605 61.7386 39.4131 61.7386H53.2617C53.7225 61.7386 54.1111 62.0522 54.2274 62.4784V58.8215L47.197 58.8919C47.1956 58.8919 47.1941 58.8919 47.1928 58.8919C45.5383 58.9015 44.1775 57.613 44.067 55.9766ZM60.8721 70.6603C61.062 69.5722 62.7724 69.5335 62.9839 70.6603L66.1367 82.841C66.3307 83.5907 67.0509 84.0769 67.8149 83.974L68.2417 83.9165C68.6425 83.8624 69.0055 83.6506 69.2509 83.3277C69.4963 83.0047 69.604 82.597 69.5503 82.1941L67.6354 67.8399C67.6294 67.7956 67.6266 67.7509 67.6266 67.7062V57.8061C67.6266 57.5376 67.7333 57.2802 67.9232 57.0912C68.113 56.9023 68.3701 56.7974 68.6373 56.8L76.8791 56.8797C77.4932 56.8828 77.9938 56.3852 77.9973 55.7679L77.9979 55.6761C78.0015 55.059 77.5071 54.5559 76.8934 54.5513C76.5056 54.5513 47.5538 54.5513 47.1637 54.5513C46.551 54.557 46.0579 55.0598 46.0613 55.6761L46.0619 55.7679C46.0655 56.3852 46.566 56.8828 47.18 56.8797L55.2185 56.7993C55.4858 56.7967 55.7429 56.9015 55.9328 57.0905C56.1227 57.2793 56.2296 57.5369 56.2296 57.8053V67.7062C56.2296 67.7509 56.2266 67.7956 56.2207 67.8399L54.3057 82.1941C54.252 82.597 54.3597 83.0047 54.6051 83.3277C54.8505 83.6506 55.2135 83.8624 55.6143 83.9165L56.0412 83.974C56.805 84.0769 57.5253 83.5907 57.7193 82.841L60.8721 70.6603ZM32.1071 29.3384H36.1844C36.7373 29.3384 37.1855 29.7888 37.1855 30.3445V32.583H39.4131C39.9659 32.583 40.4141 33.0334 40.4141 33.589V37.6868C40.4141 38.2424 39.9659 38.6928 39.4131 38.6928H37.1855V40.9315C37.1855 41.4871 36.7373 41.9376 36.1844 41.9376H32.1071C31.5542 41.9376 31.106 41.4871 31.106 40.9315V38.6928H28.8784C28.3255 38.6928 27.8773 38.2424 27.8773 37.6868V33.589C27.8773 33.0334 28.3255 32.583 28.8784 32.583H31.106V30.3445C31.106 29.7888 31.5542 29.3384 32.1071 29.3384ZM33.1082 31.3505V33.589C33.1082 34.1447 32.66 34.5951 32.1071 34.5951H29.8795V36.6807H32.1071C32.66 36.6807 33.1082 37.1311 33.1082 37.6868V39.9254H35.1833V37.6868C35.1833 37.1311 35.6315 36.6807 36.1844 36.6807H38.412V34.5951H36.1844C35.6315 34.5951 35.1833 34.1447 35.1833 33.589V31.3505H33.1082ZM39.2001 48.2022C38.6476 48.2022 38.199 47.7515 38.199 47.1962C38.199 46.641 38.6476 46.1901 39.2001 46.1901H53.0489C53.6014 46.1901 54.05 46.641 54.05 47.1962C54.05 47.7515 53.6014 48.2022 53.0489 48.2022H39.2001ZM43.3908 41.9376C42.8384 41.9376 42.3897 41.4867 42.3897 40.9315C42.3897 40.3761 42.8384 39.9254 43.3908 39.9254H53.2617C53.8142 39.9254 54.2628 40.3761 54.2628 40.9315C54.2628 41.4867 53.8142 41.9376 53.2617 41.9376H43.3908ZM43.3908 31.3505C42.8384 31.3505 42.3897 30.8997 42.3897 30.3445C42.3897 29.7891 42.8384 29.3384 43.3908 29.3384H53.2617C53.8142 29.3384 54.2628 29.7891 54.2628 30.3445C54.2628 30.8997 53.8142 31.3505 53.2617 31.3505H43.3908ZM43.3908 36.6441C42.8384 36.6441 42.3897 36.1932 42.3897 35.638C42.3897 35.0826 42.8384 34.6319 43.3908 34.6319H53.2617C53.8142 34.6319 54.2628 35.0826 54.2628 35.638C54.2628 36.1932 53.8142 36.6441 53.2617 36.6441H43.3908ZM29.0025 47.5737C28.6097 47.1834 28.606 46.5458 28.9944 46.1509C29.383 45.756 30.0172 45.7525 30.4102 46.1428L31.545 47.2703L33.7087 44.9921C34.0901 44.5904 34.7242 44.5756 35.1239 44.9589C35.5237 45.3423 35.5385 45.9797 35.157 46.3814L32.29 49.4003C32.1046 49.5955 31.8489 49.7077 31.5804 49.7116C31.3118 49.7157 31.0531 49.6109 30.862 49.4212L29.0025 47.5737ZM29.0025 55.3479C28.6097 54.9576 28.606 54.32 28.9944 53.9252C29.383 53.5302 30.0172 53.5267 30.4102 53.917L31.545 55.0447L33.7087 52.7664C34.0901 52.3646 34.7242 52.3498 35.1239 52.7332C35.5237 53.1166 35.5385 53.7539 35.157 54.1556L32.29 57.1745C32.1046 57.3699 31.8489 57.482 31.5804 57.486C31.3118 57.4899 31.0531 57.3852 30.862 57.1954L29.0025 55.3479ZM29.0025 63.1221C28.6097 62.7318 28.606 62.0944 28.9944 61.6994C29.383 61.3046 30.0172 61.3009 30.4102 61.6914L31.545 62.8189L33.7087 60.5407C34.0901 60.139 34.7242 60.124 35.1239 60.5075C35.5237 60.8908 35.5385 61.5282 35.157 61.9298L32.29 64.9489C32.1046 65.1441 31.8489 65.2563 31.5804 65.2602C31.3118 65.2641 31.0531 65.1594 30.862 64.9697L29.0025 63.1221ZM62.0296 39.4897C65.541 39.4897 68.3917 42.3545 68.3917 45.8834C68.3917 49.4121 65.541 52.2771 62.0296 52.2771C58.5183 52.2771 55.6675 49.4121 55.6675 45.8834C55.6675 42.3545 58.5183 39.4897 62.0296 39.4897ZM62.0296 41.5018C59.6233 41.5018 57.6697 43.4651 57.6697 45.8834C57.6697 48.3015 59.6233 50.265 62.0296 50.265C64.436 50.265 66.3895 48.3015 66.3895 45.8834C66.3895 43.4651 64.436 41.5018 62.0296 41.5018Z" fill="#0A3A3B" stroke="#0A3A3B" stroke-width="0.3"/>
</svg>
