<?xml version="1.0" encoding="UTF-8"?>
<svg xmlns="http://www.w3.org/2000/svg" width="66" height="66" viewBox="0 0 66 66" fill="none">
  <g clip-path="url(#clip0_88_9347)">
    <path d="M52.229 38.9841C52.229 38.3706 52.0287 37.7822 51.6406 37.2815L51.6281 37.2564L44.7677 29.7576V5.59598V4.8824V4.86988V4.34408H44.7427C44.4673 1.90288 42.4016 0 39.8978 0H18.6531C16.1368 0 14.0712 1.90288 13.7958 4.34408H13.7708V4.86988V5.58346V45.7693V49.9131C13.7708 52.6047 15.9616 54.7955 18.6531 54.7955H34.427C34.8402 55.9723 35.4786 56.8111 35.8041 57.1741V59.2398V66H52.2541V59.2398V38.9841H52.229ZM18.6531 1.2519H39.8978C41.7131 1.2519 43.2154 2.59143 43.4783 4.34408H15.0602C15.3231 2.59143 16.8254 1.2519 18.6531 1.2519ZM38.8212 11.6552V15.9366H36.6554V13.9712H31.8982V15.9366H31.0344V15.2356H29.9578V15.9366H26.9407V13.9712H22.1835V15.9366H19.9676V11.7052H27.3038V10.6036H18.866V15.9366H15.0226V5.59598H43.5158V15.9492H39.9229V10.566H31.5727V11.6677H38.8212V11.6552ZM32.9748 17.1885H35.5788V17.6517H32.9748V17.1885ZM32.9748 15.9366V15.0478H35.5788V15.9366H32.9748ZM23.2476 17.1885H25.8516V17.6517H23.2476V17.1885ZM23.2476 15.9366V15.0478H25.8516V15.9366H23.2476ZM15.0226 17.1885H18.866V18.9537H19.9676V17.1885H22.171V18.7284H26.9282V17.1885H29.9453V17.827H28.8686V18.9036H27.792V19.5671H28.8686V20.5937H27.8045V20.6062H25.6387V19.5296H24.5621V20.6062H23.4855V21.6829H24.487V22.772H25.6387V21.6829H26.6653V22.772H27.8045V21.6829H28.8937V20.6563H29.9578V18.9036H31.0344V17.1885H31.8982V18.7284H36.6554V17.1885H38.8212V19.0038H39.9229V17.1885H43.5158V28.3805V30.2333V38.7462L40.4487 35.1783C39.3595 33.8388 37.3815 33.5884 35.9293 34.6149C35.2032 35.1282 34.7275 35.8794 34.6023 36.7181C34.4771 37.5319 34.6774 38.3331 35.1657 38.9966L39.3971 44.9181C39.3595 45.1184 39.322 45.4063 39.2844 45.7693H15.0226V17.1885ZM34.1141 53.5436H18.6531C16.6501 53.5436 15.0226 51.9162 15.0226 49.9131V47.0212H39.1843C39.1217 48.2606 39.1592 49.7754 39.5348 51.0273C39.8352 51.9913 40.1858 52.805 40.5864 53.4685C40.4987 53.481 40.3986 53.5061 40.2984 53.5061C40.2609 53.5061 40.2108 53.5186 40.1733 53.5186C40.1482 53.5186 40.1232 53.5186 40.0981 53.5186C40.023 53.5186 39.9604 53.5311 39.8853 53.5311H35.366H34.1141V53.5436ZM35.7666 54.7955H39.8978C39.9855 54.7955 40.0731 54.7955 40.1607 54.783H40.2358C40.3235 54.783 40.3986 54.7705 40.4737 54.758H40.4987C40.5363 54.758 40.5864 54.7454 40.6239 54.7454H40.649C40.7116 54.7329 40.7616 54.7204 40.8242 54.7204H40.8493C40.8994 54.7079 40.9369 54.7079 40.9745 54.6954C41.0997 54.6703 41.2123 54.6328 41.3375 54.5952C42.5393 56.0725 43.8914 56.6859 44.8428 57.1115L45.0557 57.2117L45.5814 56.0725L45.3686 55.9723C44.5549 55.6093 43.4908 55.121 42.5268 54.0444C42.2639 53.7565 42.0135 53.4184 41.7757 53.0429C41.3876 52.4169 41.0245 51.6407 40.7366 50.6893C40.3986 49.5876 40.3736 48.198 40.4487 47.0463C40.4737 46.5706 40.5238 46.1449 40.5613 45.7944C40.6239 45.2561 40.6865 44.9181 40.6865 44.9055L40.7366 44.6426L36.1797 38.2705L36.1672 38.258C35.8792 37.8699 35.7541 37.3942 35.8292 36.9184C35.9168 36.4052 36.2047 35.9545 36.6429 35.6415C37.3565 35.1282 38.3204 35.1282 39.009 35.5664L37.9824 36.4302C37.7195 36.6555 37.682 37.0436 37.9073 37.3065C38.0325 37.4568 38.2078 37.5319 38.383 37.5319C38.5208 37.5319 38.671 37.4818 38.7836 37.3816L39.8853 36.4552L43.5033 40.6741L44.7552 42.1388L45.1808 42.6271L45.3311 42.6897C45.3561 42.7022 47.2715 43.4158 48.1729 45.8194L49.3497 45.3813C48.4107 42.8524 46.5079 41.8384 45.932 41.588L44.7552 40.2234V31.6104L50.6516 38.0577C50.8519 38.3331 50.9646 38.6461 50.9646 38.9841V58.6138H37.0435V56.6734L36.8557 56.4856C36.8432 56.4731 36.2173 55.8471 35.7666 54.7955ZM50.9771 64.7481H37.0435V59.8657H50.9896V64.7481H50.9771Z" fill="#0B3B3C"></path>
    <path d="M31.8982 28.4556H36.6554V23.6984H31.8982V28.4556ZM32.9748 24.7751H35.5788V27.379H32.9748V24.7751Z" fill="#0B3B3C"></path>
    <path d="M26.9281 23.6984H22.1709V28.4556H26.9281V23.6984ZM25.8515 27.379H23.2475V24.7751H25.8515V27.379Z" fill="#0B3B3C"></path>
    <path d="M22.3962 21.6703H23.4604V22.747H22.3962V21.6703Z" fill="#0B3B3C"></path>
    <path d="M32.111 20.6438H29.9452V22.7595H27.8044V24.9128H28.8686V27.0535H29.9452V28.1427H31.0218V27.0535V24.9002H29.9577V23.8862H31.0218L31.0343 21.733H32.111V20.6438Z" fill="#0B3B3C"></path>
    <path d="M34.2769 21.6328V22.8096H35.3535V21.733H36.4302V20.6438H35.3535H33.1877V21.6328H34.2769Z" fill="#0B3B3C"></path>
    <path d="M27.7795 27.0535H28.8562V28.1301H27.7795V27.0535Z" fill="#0B3B3C"></path>
    <path d="M20.894 19.5671H21.9707V20.6438H20.894V19.5671Z" fill="#0B3B3C"></path>
    <path d="M36.4302 19.5671H37.5068V20.6438H36.4302V19.5671Z" fill="#0B3B3C"></path>
    <path d="M27.792 13.7458H28.8686V14.8225H27.792V13.7458Z" fill="#0B3B3C"></path>
    <path d="M32.1111 19.5671H33.1877V20.6438H32.1111V19.5671Z" fill="#0B3B3C"></path>
    <path d="M28.8687 29.382H29.9453V30.4587H28.8687V29.382Z" fill="#0B3B3C"></path>
    <path d="M39.923 23.448H38.8213V30.6965H31.4727V31.7981H39.923V23.448Z" fill="#0B3B3C"></path>
    <path d="M19.9676 23.4105H18.866V31.8482H27.2161V30.7466H19.9676V23.4105Z" fill="#0B3B3C"></path>
    <path d="M26.6401 49.8005H29.9827V51.0524H26.6401V49.8005Z" fill="#0B3B3C"></path>
    <path d="M37.9072 61.681H39.3219V62.9329H37.9072V61.681Z" fill="#0B3B3C"></path>
  </g>
  <defs>
    <clipPath id="clip0_88_9347">
      <rect width="66" height="66" fill="white"></rect>
    </clipPath>
  </defs>
</svg>
