<svg width="100" height="100" viewBox="0 0 100 100" fill="none" xmlns="http://www.w3.org/2000/svg">
<rect width="100" height="100" rx="6" fill="#DAE7D6"/>
<path d="M63.5699 48.3171H78.3068C78.6851 48.3171 79.0479 48.1668 79.3154 47.8993C79.5829 47.6318 79.7332 47.269 79.7332 46.8907V33.7834C79.7332 33.4051 79.5829 33.0423 79.3154 32.7748C79.0479 32.5073 78.6851 32.357 78.3068 32.357H76.008L79.5597 24.9096C79.7228 24.5843 79.7605 24.2104 79.6658 23.859C79.5712 23.5076 79.3506 23.2033 79.0462 23.0039C78.8757 22.9002 78.6854 22.8333 78.4874 22.8077C78.2895 22.7821 78.0884 22.7983 77.8971 22.8553C77.7058 22.9123 77.5286 23.0088 77.377 23.1386C77.2253 23.2684 77.1026 23.4285 77.0167 23.6087L69.8768 38.5852C69.7962 38.7543 69.7497 38.9376 69.7399 39.1247C69.7302 39.3118 69.7573 39.499 69.8199 39.6756C69.8825 39.8522 69.9792 40.0147 70.1046 40.1539C70.23 40.2931 70.3816 40.4062 70.5507 40.4868C70.7198 40.5675 70.9031 40.614 71.0902 40.6238C71.2773 40.6335 71.4645 40.6063 71.641 40.5438C71.8176 40.4812 71.9802 40.3845 72.1194 40.2591C72.2586 40.1337 72.3717 39.9821 72.4523 39.813L74.6478 35.2098H76.881V45.4644H63.5699C63.1916 45.4644 62.8288 45.6146 62.5613 45.8821C62.2938 46.1496 62.1436 46.5124 62.1436 46.8907C62.1436 47.269 62.2938 47.6318 62.5613 47.8993C62.8288 48.1668 63.1916 48.3171 63.5699 48.3171Z" fill="#0A3A3B" stroke="#DAE7D6" stroke-width="0.3"/>
<path d="M78.7118 77.145H76.9688V51.8752H78.7118C79.0901 51.8752 79.4529 51.7249 79.7204 51.4574C79.9879 51.1899 80.1382 50.8271 80.1382 50.4488C80.1382 50.0705 79.9879 49.7077 79.7204 49.4402C79.4529 49.1727 79.0901 49.0225 78.7118 49.0225H41.5243C41.146 49.0225 40.7832 49.1727 40.5157 49.4402C40.2482 49.7077 40.0979 50.0705 40.0979 50.4488C40.0979 50.8271 40.2482 51.1899 40.5157 51.4574C40.7832 51.7249 41.146 51.8752 41.5243 51.8752H55.8298V77.145H54.0873C53.709 77.145 53.3462 77.2953 53.0787 77.5628C52.8112 77.8303 52.6609 78.1931 52.6609 78.5714C52.6609 78.9497 52.8112 79.3125 53.0787 79.58C53.3462 79.8475 53.709 79.9978 54.0873 79.9978H78.7118C79.0901 79.9978 79.4529 79.8475 79.7204 79.58C79.9879 79.3125 80.1382 78.9497 80.1382 78.5714C80.1382 78.1931 79.9879 77.8303 79.7204 77.5628C79.4529 77.2953 79.0901 77.145 78.7118 77.145ZM74.116 77.145H58.6825V51.8752H74.116V77.145Z" fill="#0A3A3B" stroke="#DAE7D6" stroke-width="0.3"/>
<path d="M48.7059 57.5351C48.6134 56.4618 48.1365 55.4581 47.363 54.7084C46.5895 53.9587 45.5714 53.5134 44.4958 53.4545L37.43 53.0756L37.8043 46.0852C38.8073 46.6574 39.9302 46.987 41.0833 47.0477L48.8371 47.4636C49.7291 47.5149 50.6088 47.2364 51.3088 46.6811C52.0087 46.1258 52.48 45.3325 52.633 44.4523C52.7065 43.9625 52.6768 43.4629 52.5458 42.9853C52.4149 42.5077 52.1855 42.0628 51.8726 41.679C51.5596 41.2952 51.1699 40.9811 50.7284 40.7567C50.2869 40.5324 49.8035 40.4028 49.309 40.3762L43.5213 40.0653C42.1124 39.9892 40.7543 39.5143 39.605 38.6959L36.3893 36.4035C35.4997 35.7454 34.4434 35.3501 33.3403 35.2624L30.7934 35.126C29.9995 35.0824 29.2066 35.2273 28.4796 35.5489C27.7525 35.8705 27.1118 36.3596 26.6101 36.9763C25.9197 37.8428 25.5247 38.9074 25.4826 40.0145L24.7158 54.3171C24.6603 55.3498 24.8088 56.3832 25.1527 57.3584C25.4966 58.3337 26.0293 59.2316 26.7203 60.001C27.4113 60.7703 28.2471 61.396 29.1799 61.8423C30.1127 62.2886 31.1244 62.5468 32.157 62.6021L41.7041 63.1156L44.4376 78.2781C44.5101 78.6452 44.7239 78.9692 45.033 79.1801C45.3421 79.391 45.7218 79.472 46.09 79.4056C46.4583 79.3392 46.7857 79.1307 47.0017 78.8252C47.2177 78.5196 47.305 78.1413 47.2447 77.772L44.3115 61.497C44.2544 61.1808 44.0922 60.8932 43.8512 60.6807C43.6103 60.4682 43.3046 60.3433 42.9838 60.3262L32.3099 59.7556C31.6514 59.7204 31.0063 59.5558 30.4115 59.2712C29.8167 58.9867 29.2837 58.5877 28.843 58.0972C28.4024 57.6066 28.0627 57.034 27.8433 56.4122C27.624 55.7903 27.5293 55.1314 27.5646 54.4729L28.336 40.0898C28.3643 39.5052 28.6223 38.9554 29.0538 38.5601C29.4854 38.1647 30.0556 37.9558 30.6404 37.9788L33.277 38.1203C34.2184 38.1705 35.2791 39.1182 36.0379 39.6608L37.9521 41.0249C39.5426 42.1575 41.4226 42.8143 43.3724 42.9186L49.1589 43.229C49.2517 43.2344 49.3424 43.2581 49.426 43.2987C49.5095 43.3393 49.5842 43.3961 49.6457 43.4658C49.7071 43.5354 49.7542 43.6166 49.7842 43.7045C49.8141 43.7924 49.8264 43.8854 49.8202 43.9781C49.7845 44.1677 49.6805 44.3375 49.5279 44.4555C49.3753 44.5735 49.1847 44.6314 48.9923 44.6183L41.2385 44.2024C39.698 44.1196 38.5455 43.1582 37.3462 42.3047C37.1334 42.159 36.8856 42.073 36.6283 42.0556C36.3711 42.0382 36.1139 42.09 35.8835 42.2057C35.653 42.3213 35.4578 42.4966 35.3181 42.7133C35.1784 42.93 35.0993 43.1802 35.0891 43.4378L34.5065 54.3468C34.4965 54.5339 34.5234 54.7211 34.5858 54.8977C34.6481 55.0743 34.7446 55.237 34.8698 55.3763C34.995 55.5157 35.1465 55.629 35.3154 55.7098C35.4844 55.7906 35.6677 55.8374 35.8547 55.8474L44.3451 56.3038C44.7597 56.3268 45.1488 56.5111 45.4292 56.8173C45.6936 57.1366 45.853 57.5297 45.8856 57.943L49.1007 77.2882C49.1664 77.658 49.3752 77.987 49.682 78.2038C49.9887 78.4205 50.3686 78.5076 50.7391 78.446C51.1096 78.3844 51.4409 78.1791 51.661 77.8747C51.8811 77.5704 51.9722 77.1915 51.9147 76.8203L48.7059 57.5351Z" fill="#0A3A3B" stroke="#DAE7D6" stroke-width="0.3"/>
<path d="M31.7194 33.6203C35.3738 33.6203 38.1044 29.8004 38.1044 26.3851C38.1044 24.6916 37.4317 23.0676 36.2343 21.8701C35.0368 20.6727 33.4128 20 31.7194 20C30.0259 20 28.4019 20.6727 27.2044 21.8701C26.007 23.0676 25.3343 24.6916 25.3343 26.3851C25.3343 29.8015 28.065 33.6203 31.7194 33.6203ZM31.7194 22.8528C32.6557 22.8541 33.5532 23.2266 34.2154 23.8887C34.8775 24.5507 35.2501 25.4482 35.2517 26.3845C35.2517 28.3575 33.6216 30.7669 31.7194 30.7669C29.8171 30.7669 28.1871 28.3569 28.1871 26.3845C28.1887 25.4483 28.5614 24.5509 29.2235 23.889C29.8857 23.2271 30.7831 22.8547 31.7194 22.8533V22.8528Z" fill="#0A3A3B" stroke="#DAE7D6" stroke-width="0.3"/>
<path d="M36.9028 77.145H32.9786V68.5867H35.974C36.3523 68.5867 36.7151 68.4364 36.9826 68.1689C37.2501 67.9014 37.4004 67.5386 37.4004 67.1603C37.4004 66.782 37.2501 66.4192 36.9826 66.1517C36.7151 65.8842 36.3523 65.734 35.974 65.734H31.0529C28.6129 65.734 26.2728 64.7647 24.5474 63.0393C22.8221 61.3139 21.8528 58.9738 21.8528 56.5338V46.7631C21.8528 46.3848 21.7025 46.0219 21.435 45.7544C21.1675 45.487 20.8047 45.3367 20.4264 45.3367C20.0481 45.3367 19.6853 45.487 19.4178 45.7544C19.1503 46.0219 19 46.3848 19 46.7631V56.5338C19.0041 59.5679 20.1515 62.489 22.2136 64.7146C24.2757 66.9403 27.1008 68.307 30.1258 68.5422V77.1473H26.2032C25.8249 77.1473 25.4621 77.2976 25.1946 77.5651C24.9271 77.8326 24.7769 78.1954 24.7769 78.5737C24.7769 78.952 24.9271 79.3148 25.1946 79.5823C25.4621 79.8498 25.8249 80.0001 26.2032 80.0001H36.9028C37.2811 80.0001 37.6439 79.8498 37.9114 79.5823C38.1789 79.3148 38.3292 78.952 38.3292 78.5737C38.3292 78.1954 38.1789 77.8326 37.9114 77.5651C37.6439 77.2976 37.2811 77.1473 36.9028 77.1473V77.145Z" fill="#0A3A3B" stroke="#DAE7D6" stroke-width="0.3"/>
</svg>
