<svg width="100" height="100" viewBox="0 0 100 100" fill="none" xmlns="http://www.w3.org/2000/svg">
<rect width="100" height="100" rx="6" fill="#DAE7D6"/>
<path d="M50.5 31H61.3333V33.1667H50.5V31Z" fill="#0A3A3B" stroke="#0A3A3B" stroke-width="0.5"/>
<path d="M50.5 35.333H61.3333V37.4997H50.5V35.333Z" fill="#0A3A3B" stroke="#0A3A3B" stroke-width="0.5"/>
<path d="M50.5 39.6667H61.3333V41.8334H50.5V39.6667Z" fill="#0A3A3B" stroke="#0A3A3B" stroke-width="0.5"/>
<path d="M50.5 44H61.3333V46.1667H50.5V44Z" fill="#0A3A3B" stroke="#0A3A3B" stroke-width="0.5"/>
<path d="M38.4447 32.9694C39.2381 33.2323 40.0952 33.2323 40.8887 32.9694C41.0808 33.6475 41.4882 34.2448 42.0494 34.6711C42.6106 35.0975 43.2952 35.3299 44 35.3333H45.0833C45.3707 35.3333 45.6462 35.4474 45.8494 35.6506C46.0525 35.8537 46.1667 36.1293 46.1667 36.4166V39.6666H48.3333V36.4166C48.3333 35.5546 47.9909 34.728 47.3814 34.1185C46.7719 33.509 45.9453 33.1666 45.0833 33.1666H44C43.7127 33.1666 43.4371 33.0524 43.234 32.8493C43.0308 32.6461 42.9167 32.3706 42.9167 32.0833V31.6694C43.6109 30.8874 43.9961 29.879 44 28.8333V26.6666C44 25.5173 43.5435 24.4151 42.7308 23.6025C41.9181 22.7898 40.8159 22.3333 39.6667 22.3333C38.5174 22.3333 37.4152 22.7898 36.6025 23.6025C35.7899 24.4151 35.3333 25.5173 35.3333 26.6666V28.8333C35.3373 29.879 35.7224 30.8874 36.4167 31.6694V32.0833C36.4167 32.3706 36.3025 32.6461 36.0994 32.8493C35.8962 33.0524 35.6207 33.1666 35.3333 33.1666H34.25C33.388 33.1666 32.5614 33.509 31.9519 34.1185C31.3424 34.728 31 35.5546 31 36.4166V39.6666H33.1667V36.4166C33.1667 36.1293 33.2808 35.8537 33.484 35.6506C33.6871 35.4474 33.9627 35.3333 34.25 35.3333H35.3333C36.0381 35.3299 36.7227 35.0975 37.2839 34.6711C37.8451 34.2448 38.2525 33.6475 38.4447 32.9694ZM37.5 26.6666C37.5 26.0919 37.7283 25.5408 38.1346 25.1345C38.5409 24.7282 39.092 24.4999 39.6667 24.4999C40.2413 24.4999 40.7924 24.7282 41.1987 25.1345C41.6051 25.5408 41.8333 26.0919 41.8333 26.6666V28.8333C41.8333 29.4079 41.6051 29.959 41.1987 30.3653C40.7924 30.7716 40.2413 30.9999 39.6667 30.9999C39.092 30.9999 38.5409 30.7716 38.1346 30.3653C37.7283 29.959 37.5 29.4079 37.5 28.8333V26.6666Z" fill="#0A3A3B" stroke="#0A3A3B" stroke-width="0.5"/>
<path d="M51.5833 28.8333H60.25C60.5373 28.8333 60.8129 28.7191 61.016 28.516C61.2192 28.3128 61.3333 28.0372 61.3333 27.7499V23.4166C61.3333 23.1293 61.2192 22.8537 61.016 22.6506C60.8129 22.4474 60.5373 22.3333 60.25 22.3333H51.5833C51.296 22.3333 51.0205 22.4474 50.8173 22.6506C50.6141 22.8537 50.5 23.1293 50.5 23.4166V27.7499C50.5 28.0372 50.6141 28.3128 50.8173 28.516C51.0205 28.7191 51.296 28.8333 51.5833 28.8333ZM52.6667 24.4999H59.1667V26.6666H52.6667V24.4999Z" fill="#0A3A3B" stroke="#0A3A3B" stroke-width="0.5"/>
<path d="M83 46.1667C82.9983 44.4433 82.3129 42.791 81.0943 41.5724C79.8757 40.3538 78.2234 39.6684 76.5 39.6667H70V23.4167C70 23.1293 69.8859 22.8538 69.6827 22.6506C69.4795 22.4475 69.204 22.3333 68.9167 22.3333H65.6667V19.0833C65.6667 18.796 65.5525 18.5205 65.3494 18.3173C65.1462 18.1141 64.8706 18 64.5833 18H27.75C27.4627 18 27.1871 18.1141 26.984 18.3173C26.7808 18.5205 26.6667 18.796 26.6667 19.0833V42.9167H23.4167C21.9806 42.9184 20.6039 43.4896 19.5884 44.5051C18.573 45.5205 18.0017 46.8973 18 48.3333V77.5833C18.0017 79.0194 18.573 80.3961 19.5884 81.4116C20.6039 82.427 21.9806 82.9983 23.4167 83H68.9167C70.31 82.9951 71.6479 82.4535 72.6523 81.4877C73.6566 80.5219 74.2501 79.2062 74.3095 77.8141L82.961 46.4548C82.9869 46.361 83 46.264 83 46.1667ZM67.8333 24.5V48.3333H65.6667V24.5H67.8333ZM28.8333 20.1667H63.5V48.3333H42.2818L37.1826 43.2341C36.9795 43.0309 36.704 42.9167 36.4167 42.9167H28.8333V20.1667ZM72.1667 77.5833C72.1667 78.4453 71.8243 79.2719 71.2148 79.8814C70.6053 80.4909 69.7786 80.8333 68.9167 80.8333H23.4167C22.5547 80.8333 21.7281 80.4909 21.1186 79.8814C20.5091 79.2719 20.1667 78.4453 20.1667 77.5833V48.3333C20.1667 47.4714 20.5091 46.6447 21.1186 46.0352C21.7281 45.4257 22.5547 45.0833 23.4167 45.0833H35.9682L41.0674 50.1826C41.2705 50.3858 41.546 50.4999 41.8333 50.5H68.9167C69.7786 50.5 70.6053 50.8424 71.2148 51.4519C71.8243 52.0614 72.1667 52.888 72.1667 53.75V77.5833ZM74.3333 69.5829V53.75C74.3318 52.5018 73.8999 51.2923 73.1105 50.3253C72.3212 49.3584 71.2226 48.6931 70 48.4417V41.8333H76.5C77.6256 41.8328 78.7073 42.2702 79.5161 43.0531C80.3249 43.836 80.7973 44.9029 80.8333 46.028L74.3333 69.5829Z" fill="#0A3A3B" stroke="#0A3A3B" stroke-width="0.5"/>
<path d="M57 60.25H51.5833V54.8333C51.5833 54.546 51.4692 54.2705 51.266 54.0673C51.0629 53.8641 50.7873 53.75 50.5 53.75H41.8333C41.546 53.75 41.2705 53.8641 41.0673 54.0673C40.8641 54.2705 40.75 54.546 40.75 54.8333V60.25H35.3333C35.046 60.25 34.7705 60.3641 34.5673 60.5673C34.3641 60.7705 34.25 61.046 34.25 61.3333V70C34.25 70.2873 34.3641 70.5629 34.5673 70.766C34.7705 70.9692 35.046 71.0833 35.3333 71.0833H40.75V76.5C40.75 76.7873 40.8641 77.0629 41.0673 77.266C41.2705 77.4692 41.546 77.5833 41.8333 77.5833H50.5C50.7873 77.5833 51.0629 77.4692 51.266 77.266C51.4692 77.0629 51.5833 76.7873 51.5833 76.5V71.0833H57C57.2873 71.0833 57.5629 70.9692 57.766 70.766C57.9692 70.5629 58.0833 70.2873 58.0833 70V61.3333C58.0833 61.046 57.9692 60.7705 57.766 60.5673C57.5629 60.3641 57.2873 60.25 57 60.25ZM55.9167 68.9167H50.5C50.2127 68.9167 49.9371 69.0308 49.734 69.234C49.5308 69.4371 49.4167 69.7127 49.4167 70V75.4167H42.9167V70C42.9167 69.7127 42.8025 69.4371 42.5994 69.234C42.3962 69.0308 42.1207 68.9167 41.8333 68.9167H36.4167V62.4167H41.8333C42.1207 62.4167 42.3962 62.3025 42.5994 62.0994C42.8025 61.8962 42.9167 61.6207 42.9167 61.3333V55.9167H49.4167V61.3333C49.4167 61.6207 49.5308 61.8962 49.734 62.0994C49.9371 62.3025 50.2127 62.4167 50.5 62.4167H55.9167V68.9167Z" fill="#0A3A3B" stroke="#0A3A3B" stroke-width="0.5"/>
</svg>
