<?xml version="1.0" encoding="UTF-8"?>
<svg xmlns="http://www.w3.org/2000/svg" width="55" height="56" viewBox="0 0 55 56" fill="none">
  <path d="M43.5401 34.7536C43.5171 34.7475 43.4938 34.743 43.4704 34.7399C43.2677 34.7009 43.0616 34.6651 42.852 34.6325V34.5965C43.5514 34.1433 44.1297 33.506 44.5312 32.7457C44.9326 31.9855 45.1436 31.1279 45.1441 30.2556V30.0814C45.4069 30.0059 45.6531 29.8753 45.8682 29.6974C46.0832 29.5194 46.2629 29.2976 46.3967 29.0449C46.5803 28.707 46.6745 28.3224 46.6693 27.932C46.6642 27.5416 46.5598 27.16 46.3674 26.8277C46.281 26.677 46.1781 26.5378 46.0609 26.4129V25.9915C46.0603 24.9714 45.818 23.968 45.3565 23.0744C44.895 22.1807 44.2292 21.4257 43.4208 20.8794C43.4029 20.0309 43.074 19.2235 42.5044 18.6301C41.9348 18.0368 41.1699 17.7047 40.3734 17.705C39.5769 17.7052 38.8121 18.0377 38.2428 18.6314C37.6735 19.225 37.345 20.0326 37.3276 20.8812C36.5199 21.4277 35.8547 22.1825 35.3937 23.0758C34.9326 23.9691 34.6906 24.972 34.69 25.9915V26.4085C34.4438 26.6786 34.2657 27.0107 34.1721 27.3738C34.0431 27.8451 34.0686 28.3493 34.2444 28.8031C34.4202 29.2569 34.7359 29.6333 35.1395 29.8703C35.2868 29.9589 35.4437 30.0279 35.6068 30.0759V30.2552C35.6073 31.129 35.8191 31.9881 36.2219 32.7493C36.6248 33.5105 37.2049 34.1482 37.9064 34.6008V34.6311C35.7971 34.9552 33.57 35.6332 32.1906 37.7191C31.7566 37.5868 31.3017 37.4767 30.8283 37.3842C30.8186 37.3823 30.8089 37.38 30.7992 37.3786C30.5691 37.334 30.3347 37.2934 30.096 37.2568V37.1574C30.842 36.6792 31.4593 36.0035 31.888 35.196C32.3167 34.3885 32.5421 33.4767 32.5426 32.549V32.3296C32.8232 32.2532 33.0863 32.117 33.3162 31.9292C33.546 31.7414 33.7378 31.506 33.88 31.2371C34.0719 30.8834 34.1703 30.4809 34.1647 30.0723C34.1592 29.6638 34.05 29.2644 33.8486 28.9167C33.756 28.7552 33.6454 28.6063 33.5191 28.4733V26.4539C33.5191 25.1325 32.976 23.8856 32.0664 23.1182C31.6605 22.7726 31.1852 22.5315 30.6776 22.4136C30.1699 22.2958 29.6436 22.3044 29.1396 22.4388C28.763 22.5341 28.3446 22.3344 27.9475 22.1215C26.5159 21.3575 24.954 21.4072 23.6618 22.2574C22.9932 22.7021 22.4414 23.3204 22.0582 24.0544C21.6749 24.7884 21.4728 25.614 21.4707 26.4539V28.4615C21.2058 28.7463 21.0141 29.0988 20.9139 29.4853C20.7781 29.9791 20.8042 30.5075 20.9879 30.9834C21.1716 31.4593 21.5021 31.8543 21.9247 32.1033C22.0896 32.2027 22.2661 32.2785 22.4496 32.3287V32.5495C22.4501 33.4786 22.6764 34.3918 23.1064 35.2001C23.5365 36.0084 24.1557 36.6843 24.9036 37.1618V37.2573C24.1966 37.3613 23.497 37.5159 22.8095 37.7199C21.4318 35.6335 19.2039 34.9558 17.0931 34.6316V34.5982C17.7932 34.1452 18.3722 33.5077 18.7741 32.7471C19.176 31.9865 19.3873 31.1285 19.3877 30.2556V30.0814C19.6508 30.0057 19.8971 29.8749 20.1123 29.6967C20.3275 29.5185 20.5073 29.2965 20.6412 29.0435C20.8237 28.7051 20.917 28.3205 20.9113 27.9302C20.9056 27.54 20.801 27.1586 20.6086 26.8265C20.5222 26.6758 20.4193 26.5367 20.302 26.4119V25.9923C20.3015 24.9728 20.0595 23.9699 19.5984 23.0766C19.1373 22.1833 18.4721 21.4285 17.6644 20.882C17.647 20.0335 17.3185 19.2259 16.7493 18.6323C16.18 18.0387 15.4152 17.7061 14.6187 17.7059C13.8223 17.7057 13.0573 18.0377 12.4878 18.6311C11.9182 19.2244 11.5893 20.0317 11.5714 20.8803C10.7631 21.4266 10.0972 22.1816 9.63574 23.0752C9.17424 23.9689 8.93199 24.9723 8.93145 25.9923V26.4106C8.6872 26.6788 8.5101 27.0081 8.41641 27.3683C8.28527 27.8401 8.30941 28.3456 8.48484 28.8008C8.66026 29.256 8.97644 29.6337 9.38093 29.8712C9.52902 29.9601 9.68683 30.0293 9.85079 30.0772V30.2558C9.85124 31.1297 10.0631 31.9887 10.4659 32.7499C10.8687 33.5111 11.4489 34.1488 12.1504 34.6015V34.6323C11.9415 34.6647 11.7362 34.7004 11.5345 34.7392C11.508 34.7425 11.4818 34.7476 11.4559 34.7546C7.75328 35.4859 5.28874 37.3722 5.0009 43.0138C4.99519 43.1263 5.01676 43.2384 5.06351 43.3393C5.11026 43.4403 5.18062 43.5267 5.26782 43.5903C8.79586 46.141 13.1069 47.1546 17.3146 46.4225C17.3583 46.552 17.439 46.6636 17.5454 46.7415C20.4832 48.8649 23.9514 50 27.5013 50C31.0512 50 34.5193 48.8649 37.4571 46.7415C37.5635 46.6637 37.6442 46.5523 37.6879 46.423C41.8949 47.1543 46.205 46.1406 49.7324 43.5903C49.8195 43.5267 49.8898 43.4403 49.9366 43.3394C49.9833 43.2385 50.0048 43.1264 49.9991 43.014C49.7137 37.3695 47.2468 35.484 43.5401 34.7536ZM45.1441 27.2925C45.2113 27.3551 45.2693 27.4282 45.316 27.5093C45.3935 27.6422 45.4355 27.7951 45.4374 27.9516C45.4393 28.1081 45.4009 28.2621 45.3266 28.397C45.2789 28.4849 45.2171 28.5632 45.1441 28.6284V27.2925ZM32.5427 29.3014C32.6453 29.3817 32.7319 29.4828 32.7976 29.5989C32.8843 29.7474 32.9312 29.9183 32.9333 30.0931C32.9354 30.2679 32.8926 30.44 32.8095 30.5908C32.7431 30.7155 32.6521 30.8232 32.5427 30.9066V29.3014ZM19.3877 27.2949C19.4541 27.3564 19.5112 27.4283 19.5573 27.5082C19.635 27.6411 19.6773 27.7941 19.6796 27.9507C19.6819 28.1073 19.6441 28.2616 19.5703 28.397C19.5226 28.485 19.4608 28.5634 19.3877 28.6287V27.2949ZM40.376 19.0176C40.7333 19.0181 41.0825 19.1306 41.3802 19.3412C41.6779 19.5518 41.9107 19.8511 42.0498 20.2018C40.9583 19.8439 39.791 19.8442 38.6997 20.2027C38.839 19.8515 39.0723 19.5519 39.3704 19.3412C39.6685 19.1304 40.0182 19.0179 40.376 19.0176ZM35.607 28.628C35.4869 28.5207 35.3991 28.3779 35.3548 28.2176C35.3104 28.0574 35.3115 27.8867 35.3579 27.7271C35.4009 27.559 35.4872 27.4071 35.607 27.2885V28.628ZM36.2501 25.7671H36.2488C36.2371 25.7659 36.2255 25.7644 36.2137 25.7641C36.1177 25.7614 36.0216 25.7657 35.9262 25.7769C35.9613 24.9668 36.1905 24.1798 36.5918 23.4908C36.9931 22.8017 37.5532 22.2336 38.2188 21.8405C38.2342 21.8323 38.249 21.8233 38.2636 21.8137C38.9098 21.442 39.6323 21.2467 40.3666 21.2452C41.1009 21.2436 41.8241 21.4359 42.4717 21.8049C42.4953 21.8212 42.52 21.8358 42.5455 21.8485C43.2076 22.2425 43.7644 22.81 44.1633 23.4972C44.5622 24.1844 44.79 24.9687 44.8252 25.776C44.7462 25.7669 44.6667 25.7629 44.5872 25.7639C43.5118 25.511 42.7809 24.9678 42.3559 24.1028C42.3128 24.0151 42.2517 23.9389 42.177 23.88C42.1024 23.8211 42.0161 23.7809 41.9249 23.7626C41.8336 23.7442 41.7396 23.7482 41.6499 23.774C41.5602 23.7999 41.4772 23.8471 41.4071 23.9121C39.9554 25.2565 38.2676 25.8612 36.2501 25.7675V25.7671ZM36.838 30.2556V27.0861C38.6454 27.0486 40.264 26.4738 41.664 25.3722C42.2038 26.1108 42.9569 26.6337 43.9135 26.9335V30.2553C43.9129 30.9471 43.7339 31.6253 43.3959 32.2159C43.058 32.8065 42.5743 33.2868 41.9975 33.6042C41.9728 33.6155 41.9488 33.6286 41.9258 33.6434C41.4465 33.8928 40.9205 34.0234 40.3872 34.0253C39.8538 34.0272 39.327 33.9003 38.8462 33.6543C38.8163 33.6344 38.785 33.6173 38.7524 33.6032C38.1761 33.2857 37.6927 32.8055 37.3551 32.2152C37.0175 31.6248 36.8386 30.947 36.838 30.2556ZM42.4843 35.9031L40.3805 40.6389L38.2744 35.9022C38.3596 35.8897 38.4459 35.8776 38.5333 35.866C38.6381 35.8521 38.7378 35.8097 38.8228 35.7428C38.9078 35.6759 38.9752 35.5869 39.0185 35.4842C39.0625 35.3791 39.0945 35.2687 39.1136 35.1554C39.942 35.3989 40.8169 35.3981 41.6449 35.1533C41.6639 35.2673 41.6959 35.3784 41.7401 35.4842C41.7835 35.5869 41.8509 35.6759 41.9358 35.7428C42.0208 35.8097 42.1205 35.8521 42.2254 35.866C42.3138 35.8773 42.3985 35.8902 42.4843 35.9027V35.9031ZM32.6373 44.0237C32.7416 44.0234 32.8437 44.056 32.9307 44.1175C33.0176 44.179 33.0854 44.2666 33.1256 44.3692C33.1658 44.4718 33.1765 44.5848 33.1565 44.6939C33.1364 44.803 33.0864 44.9033 33.0128 44.9821C32.9392 45.0609 32.8453 45.1146 32.743 45.1366C32.6407 45.1585 32.5346 45.1476 32.4382 45.1053C32.3417 45.0629 32.2592 44.9911 32.2011 44.8987C32.1429 44.8064 32.1118 44.6978 32.1116 44.5866C32.1118 44.4378 32.1671 44.2952 32.2656 44.1897C32.3641 44.0842 32.4977 44.0246 32.6373 44.0237ZM22.4499 30.9077C22.2914 30.7936 22.1717 30.6281 22.1084 30.4358C22.0452 30.2434 22.0419 30.0345 22.0989 29.84C22.149 29.6452 22.2514 29.4702 22.3937 29.3367C22.4131 29.3247 22.4319 29.3116 22.4499 29.2973V30.9077ZM22.7016 27.8206V26.4539C22.703 25.8375 22.8511 25.2315 23.1321 24.6927C23.4132 24.1539 23.8179 23.6999 24.3085 23.3732C25.243 22.7583 26.3397 22.7303 27.3955 23.2937C27.8091 23.5154 28.5786 23.9282 29.4226 23.7151C29.746 23.6282 30.0839 23.6218 30.4099 23.6966C30.736 23.7715 31.0415 23.9254 31.3026 24.1465C31.92 24.6673 32.2885 25.5299 32.2885 26.4539V27.8241C32.166 27.8058 32.0423 27.7987 31.9187 27.803C31.9072 27.803 31.896 27.8052 31.8846 27.8063C29.7269 27.9061 27.9237 27.2561 26.3688 25.8179C26.2986 25.753 26.2156 25.7059 26.126 25.68C26.0363 25.6542 25.9423 25.6503 25.851 25.6687C25.7598 25.6871 25.6736 25.7273 25.599 25.7862C25.5243 25.8452 25.4632 25.9214 25.4202 26.0091C24.9611 26.9436 24.1698 27.5304 23.0041 27.8033C22.9031 27.8018 22.802 27.8075 22.7016 27.8206ZM23.6807 32.5495V28.9739C24.7221 28.6531 25.537 28.0864 26.1141 27.2819C27.6196 28.4757 29.3629 29.0945 31.3119 29.1269V32.5498C31.3114 33.2954 31.1187 34.0265 30.7549 34.6633C30.3911 35.3002 29.8701 35.8183 29.2489 36.1612C29.2171 36.1751 29.1865 36.1918 29.1575 36.2112C28.6416 36.4773 28.0761 36.6161 27.503 36.617C26.9299 36.618 26.364 36.4812 25.8474 36.2168C25.8155 36.1953 25.7818 36.177 25.7467 36.1621C25.1247 35.8195 24.603 35.3013 24.2387 34.6642C23.8743 34.0271 23.6813 33.2955 23.6807 32.5495ZM29.809 38.5388L27.5 43.7315L25.193 38.5384C25.3021 38.5222 25.4127 38.5063 25.5256 38.4916C25.6301 38.4777 25.7295 38.4354 25.8143 38.3689C25.8991 38.3023 25.9665 38.2137 26.0099 38.1114C26.0618 37.9874 26.0975 37.8564 26.1159 37.7221C27.0207 37.998 27.98 37.9973 28.8845 37.7201C28.9024 37.8549 28.9377 37.9864 28.9893 38.1109C29.0327 38.2133 29.1001 38.3021 29.1849 38.3687C29.2698 38.4354 29.3693 38.4777 29.4739 38.4916C29.5879 38.5064 29.6991 38.5224 29.809 38.5388ZM14.6169 19.0176C14.9747 19.0179 15.3244 19.1304 15.6225 19.3411C15.9206 19.5519 16.1539 19.8515 16.2933 20.2026C15.2019 19.8442 14.0346 19.8439 12.9431 20.2018C13.0822 19.8511 13.3151 19.5518 13.6127 19.3412C13.9104 19.1306 14.2596 19.0181 14.6169 19.0176ZM9.85079 28.6299C9.72958 28.5224 9.64109 28.379 9.59659 28.2178C9.55208 28.0565 9.55355 27.8849 9.60083 27.7246C9.64441 27.5572 9.73098 27.406 9.85079 27.2882V28.6299ZM10.5133 25.7675C10.501 25.7663 10.4887 25.7646 10.4761 25.7642C10.3731 25.7605 10.2699 25.7647 10.1674 25.7768C10.2024 24.9695 10.4302 24.1851 10.829 23.4977C11.2279 22.8104 11.7847 22.2428 12.4468 21.8487C12.4726 21.8359 12.4974 21.8212 12.5213 21.8046C13.1688 21.4359 13.8919 21.2437 14.6262 21.2453C15.3604 21.247 16.0828 21.4424 16.7288 21.814C16.7435 21.8234 16.7585 21.8327 16.7739 21.841C17.4394 22.234 17.9994 22.802 18.4006 23.4908C18.8019 24.1796 19.0311 24.9664 19.0664 25.7762C18.9883 25.7673 18.9098 25.7634 18.8313 25.7643C17.7542 25.5115 17.0223 24.9683 16.5971 24.1032C16.554 24.0154 16.4929 23.9391 16.4182 23.8802C16.3435 23.8212 16.2572 23.781 16.1659 23.7627C16.0745 23.7443 15.9804 23.7483 15.8907 23.7742C15.801 23.8002 15.718 23.8474 15.6479 23.9125C14.2014 25.2524 12.5216 25.86 10.5133 25.7675ZM11.0816 30.2556V27.0861C12.8879 27.0486 14.5053 26.4738 15.9052 25.3722C16.4454 26.1111 17.1993 26.6339 18.1572 26.9338V30.2553C18.1566 30.9458 17.9782 31.6229 17.6414 32.2128C17.3046 32.8027 16.8224 33.2828 16.2472 33.6007C16.2146 33.615 16.1832 33.6322 16.1533 33.6522C15.6755 33.8974 15.1521 34.0249 14.6218 34.0253C14.0914 34.0257 13.5678 33.8989 13.0897 33.6543C13.0599 33.6344 13.0286 33.6173 12.996 33.6032C12.4197 33.2856 11.9363 32.8055 11.5987 32.2151C11.2611 31.6248 11.0823 30.9469 11.0816 30.2556ZM16.7281 35.9018L14.6219 40.639L12.5162 35.903C12.6026 35.8904 12.6881 35.8774 12.7769 35.8655C12.8839 35.8514 12.9854 35.8075 13.0715 35.7384C13.1575 35.6692 13.225 35.5772 13.2672 35.4715C13.3076 35.3697 13.3372 35.2633 13.3557 35.1545C14.1845 35.3984 15.0599 35.3979 15.8884 35.1529C15.9079 35.267 15.94 35.3782 15.9842 35.4842C16.0276 35.5867 16.095 35.6757 16.1799 35.7425C16.2649 35.8093 16.3645 35.8517 16.4693 35.8655C16.5568 35.8772 16.643 35.8893 16.7281 35.9018ZM17.3633 45.0838C13.5117 45.8231 9.54041 44.9762 6.25246 42.7143C6.42024 40.3443 7.00788 38.74 8.08999 37.685C8.83196 36.9614 9.83805 36.4647 11.2576 36.1357L14.0658 42.4519C14.1156 42.5642 14.1943 42.659 14.2928 42.7254C14.3912 42.7919 14.5054 42.8271 14.6219 42.8271C14.7384 42.8271 14.8525 42.7919 14.951 42.7254C15.0495 42.659 15.1282 42.5642 15.178 42.4519L17.9866 36.1349C19.6956 36.5297 20.8216 37.1706 21.5939 38.1792C19.3033 39.2366 17.7779 41.2197 17.3633 45.0838ZM18.5297 45.8657C18.7063 43.3112 19.3374 41.5827 20.5042 40.4446C20.8771 40.0849 21.2955 39.783 21.7473 39.5475V41.7959C21.3554 41.9343 21.0143 42.2007 20.7724 42.5572C20.5305 42.9137 20.4 43.3423 20.3995 43.7822V45.3725C20.3995 45.5464 20.4643 45.7131 20.5797 45.8361C20.6951 45.959 20.8516 46.0281 21.0147 46.0281C21.1779 46.0281 21.3344 45.959 21.4498 45.8361C21.5652 45.7131 21.63 45.5464 21.63 45.3725V43.7822C21.6325 43.576 21.7104 43.3791 21.8473 43.2333C21.9841 43.0875 22.1689 43.0044 22.3624 43.0017C22.5566 43.0019 22.7428 43.0842 22.8801 43.2305C23.0174 43.3769 23.0946 43.5753 23.0949 43.7822V45.3725C23.0949 45.5464 23.1597 45.7131 23.2751 45.8361C23.3904 45.959 23.5469 46.0281 23.7101 46.0281C23.8733 46.0281 24.0297 45.959 24.1451 45.8361C24.2605 45.7131 24.3253 45.5464 24.3253 45.3725V43.7822C24.3248 43.3423 24.1943 42.9136 23.9524 42.5571C23.7104 42.2006 23.3693 41.9343 22.9774 41.7959V39.0342C23.2756 38.9376 23.5947 38.8503 23.9348 38.7725L26.9431 45.5439C26.993 45.6563 27.0718 45.7513 27.1704 45.8178C27.269 45.8843 27.3833 45.9196 27.5 45.9194C27.6165 45.9195 27.7306 45.8843 27.829 45.818C27.9274 45.7517 28.0062 45.6569 28.0561 45.5448L31.0668 38.7735C31.4066 38.8514 31.725 38.9384 32.0219 39.0344V42.8339C31.6358 42.9876 31.3125 43.2809 31.1087 43.6627C30.9048 44.0444 30.8333 44.4903 30.9065 44.9226C30.9798 45.3548 31.1932 45.7459 31.5095 46.0275C31.8258 46.3092 32.2249 46.4635 32.6371 46.4635C33.0493 46.4635 33.4484 46.3092 33.7647 46.0275C34.081 45.7459 34.2945 45.3548 34.3677 44.9226C34.441 44.4903 34.3695 44.0444 34.1656 43.6627C33.9617 43.2809 33.6385 42.9876 33.2524 42.8339V39.5466C33.705 39.7822 34.1243 40.0845 34.4978 40.4447C35.6647 41.5825 36.2959 43.3113 36.4725 45.8656C31.0618 49.6324 23.9388 49.6327 18.5297 45.8661V45.8657ZM37.6393 45.0842C37.2247 41.2196 35.6986 39.2364 33.4071 38.1787C34.1806 37.1699 35.3072 36.5289 37.0159 36.1342L39.8247 42.4514C39.8745 42.5637 39.9532 42.6585 40.0517 42.725C40.1501 42.7914 40.2643 42.8266 40.3808 42.8266C40.4973 42.8266 40.6114 42.7914 40.7099 42.725C40.8084 42.6585 40.8871 42.5637 40.9369 42.4514L43.7428 36.1353C45.1628 36.4642 46.1691 36.961 46.9113 37.6848C47.9937 38.7404 48.5812 40.3446 48.7478 42.7141C45.4608 44.9761 41.4902 45.8233 37.6393 45.0842ZM23.7829 15.0487H25.3972V16.7719C25.3972 16.9458 25.4621 17.1126 25.5774 17.2355C25.6928 17.3585 25.8493 17.4275 26.0125 17.4275H28.9872C29.1504 17.4275 29.3069 17.3585 29.4223 17.2355C29.5376 17.1126 29.6024 16.9458 29.6024 16.7719V15.0487H31.2196C31.3828 15.0487 31.5393 14.9796 31.6547 14.8566C31.7701 14.7337 31.8349 14.5669 31.8349 14.3931V11.2227C31.8349 11.0488 31.7701 10.8821 31.6547 10.7591C31.5393 10.6362 31.3828 10.5671 31.2196 10.5671H29.6024V8.84684C29.6024 8.67297 29.5376 8.50621 29.4223 8.38326C29.3069 8.26032 29.1504 8.19125 28.9872 8.19125H26.0126C25.8495 8.19125 25.693 8.26032 25.5776 8.38326C25.4622 8.50621 25.3974 8.67297 25.3974 8.84684V10.5671H23.7829C23.6197 10.5671 23.4632 10.6362 23.3478 10.7591C23.2324 10.8821 23.1676 11.0488 23.1676 11.2227V14.3926C23.1676 14.4787 23.1834 14.564 23.2143 14.6436C23.2452 14.7232 23.2905 14.7955 23.3477 14.8565C23.4048 14.9174 23.4726 14.9657 23.5473 14.9987C23.622 15.0317 23.702 15.0487 23.7829 15.0487ZM24.3981 11.8788H26.0126C26.1757 11.8788 26.3322 11.8097 26.4476 11.6868C26.563 11.5638 26.6278 11.3971 26.6278 11.2232V9.50262H28.3717V11.2227C28.3717 11.3966 28.4365 11.5633 28.5519 11.6863C28.6673 11.8092 28.8238 11.8783 28.987 11.8783H30.6041V13.7366H28.987C28.8238 13.7366 28.6673 13.8057 28.5519 13.9286C28.4365 14.0516 28.3717 14.2184 28.3717 14.3922V16.1155H26.6281V14.3922C26.6281 14.2184 26.5632 14.0516 26.4479 13.9286C26.3325 13.8057 26.176 13.7366 26.0128 13.7366H24.3982L24.3981 11.8788ZM27.5 20.6159C28.9492 20.6159 30.3659 20.1579 31.5708 19.3C32.7758 18.442 33.7149 17.2226 34.2695 15.7959C34.8241 14.3692 34.9692 12.7993 34.6865 11.2847C34.4038 9.77009 33.7059 8.37885 32.6812 7.28689C31.6564 6.19494 30.3508 5.4513 28.9295 5.15003C27.5081 4.84876 26.0349 5.00338 24.696 5.59435C23.3571 6.18531 22.2128 7.18607 21.4076 8.47008C20.6025 9.75409 20.1728 11.2637 20.1728 12.8079C20.175 14.878 20.9477 16.8626 22.3213 18.3264C23.695 19.7901 25.5574 20.6135 27.5 20.6159ZM27.5 6.31157C28.7058 6.31157 29.8845 6.69257 30.887 7.4064C31.8896 8.12023 32.671 9.13483 33.1324 10.3219C33.5938 11.5089 33.7146 12.8151 33.4793 14.0753C33.2441 15.3355 32.6635 16.493 31.8109 17.4016C30.9583 18.3101 29.872 18.9288 28.6894 19.1795C27.5068 19.4301 26.281 19.3015 25.167 18.8098C24.053 18.3181 23.1009 17.4854 22.431 16.4171C21.7611 15.3488 21.4036 14.0928 21.4036 12.8079C21.4054 11.0856 22.0483 9.43433 23.1912 8.21644C24.3341 6.99856 25.8837 6.3135 27.5 6.31157Z" fill="#0B3B3C"></path>
</svg>
