<svg width="100" height="100" viewBox="0 0 100 100" fill="none" xmlns="http://www.w3.org/2000/svg">
<rect width="100" height="100" rx="6" fill="#DAE7D6"/>
<path d="M76.3984 63.7031C76.9594 63.7031 77.4141 63.2484 77.4141 62.6875C77.4141 62.1266 76.9594 61.6719 76.3984 61.6719C75.8375 61.6719 75.3828 62.1266 75.3828 62.6875C75.3828 63.2484 75.8375 63.7031 76.3984 63.7031Z" fill="#0A3A3B" stroke="#0A3A3B" stroke-width="0.5"/>
<path d="M72.3359 63.7031C72.8969 63.7031 73.3516 63.2484 73.3516 62.6875C73.3516 62.1266 72.8969 61.6719 72.3359 61.6719C71.775 61.6719 71.3203 62.1266 71.3203 62.6875C71.3203 63.2484 71.775 63.7031 72.3359 63.7031Z" fill="#0A3A3B" stroke="#0A3A3B" stroke-width="0.5"/>
<path d="M68.2734 63.7031C68.8344 63.7031 69.2891 63.2484 69.2891 62.6875C69.2891 62.1266 68.8344 61.6719 68.2734 61.6719C67.7125 61.6719 67.2578 62.1266 67.2578 62.6875C67.2578 63.2484 67.7125 63.7031 68.2734 63.7031Z" fill="#0A3A3B" stroke="#0A3A3B" stroke-width="0.5"/>
<path d="M49.5504 18H23.0121C21.6832 18.0013 20.4092 18.5298 19.4695 19.4695C18.5298 20.4092 18.0013 21.6832 18 23.0121V77.9879C18.0013 79.3168 18.5298 80.5908 19.4695 81.5305C20.4092 82.4702 21.6832 82.9987 23.0121 83H49.5504C50.8744 82.9829 52.1393 82.4493 53.0756 81.5131C54.0118 80.5768 54.5454 79.3119 54.5625 77.9879V23.0121C54.5612 21.6832 54.0327 20.4092 53.093 19.4695C52.1533 18.5298 50.8793 18.0013 49.5504 18ZM20.0312 23.0121C20.0326 22.2219 20.3471 21.4645 20.9058 20.9058C21.4645 20.3471 22.2219 20.0326 23.0121 20.0312H49.5504C50.3406 20.0326 51.098 20.3471 51.6567 20.9058C52.2154 21.4645 52.5299 22.2219 52.5312 23.0121V65.059C50.5 61.0625 45.6758 56.6699 41.1359 55.7355C42.5792 54.8832 43.7785 53.6733 44.6182 52.2225C45.4579 50.7718 45.9095 49.1292 45.9297 47.4531V34.7578C45.8794 33.4271 45.3283 32.1644 44.3866 31.2228C43.445 30.2811 42.1823 29.73 40.8516 29.6797H31.7109C30.3802 29.73 29.1175 30.2811 28.1759 31.2228C27.2342 32.1644 26.6831 33.4271 26.6328 34.7578V47.4531C26.6531 49.131 27.1059 50.7754 27.9475 52.2271C28.789 53.6789 29.9908 54.8891 31.4367 55.7406C26.0031 57.5027 22.0625 61.0727 20.0312 65.2621V23.0121ZM28.6641 41.8672H43.8984V47.4531C43.8483 49.4575 43.0296 51.366 41.6119 52.7837C40.1941 54.2015 38.2856 55.0201 36.2812 55.0703C34.2769 55.0201 32.3684 54.2015 30.9506 52.7837C29.5329 51.366 28.7142 49.4575 28.6641 47.4531V41.8672ZM43.8984 39.8359H28.6641V34.7578C28.7122 33.9655 29.0487 33.2182 29.61 32.6569C30.1713 32.0956 30.9186 31.7591 31.7109 31.7109H40.8516C41.6439 31.7591 42.3912 32.0956 42.9525 32.6569C43.5138 33.2182 43.8503 33.9655 43.8984 34.7578V39.8359ZM23.0121 80.9688C22.2219 80.9674 21.4645 80.6529 20.9058 80.0942C20.3471 79.5355 20.0326 78.778 20.0312 77.9879V73.6918C20.0414 71.4707 20.4902 69.2735 21.3521 67.2264C22.214 65.1793 23.4719 63.3227 25.0535 61.7633C26.491 60.3455 28.1782 59.2058 30.0301 58.4016C29.5223 59.7676 29.1008 61.3418 28.8672 62.2508C27.8019 62.4179 26.8336 62.9663 26.1424 63.7939C25.4511 64.6215 25.084 65.672 25.1094 66.75V73.3516C25.1094 73.6209 25.2164 73.8793 25.4068 74.0697C25.5973 74.2602 25.8556 74.3672 26.125 74.3672H27.1406C27.41 74.3672 27.6683 74.2602 27.8588 74.0697C28.0492 73.8793 28.1562 73.6209 28.1562 73.3516C28.1562 73.0822 28.0492 72.8239 27.8588 72.6334C27.6683 72.4429 27.41 72.3359 27.1406 72.3359V66.75C27.1286 66.4133 27.186 66.0778 27.3093 65.7642C27.4326 65.4507 27.6192 65.166 27.8574 64.9277C28.0957 64.6895 28.3804 64.5029 28.6939 64.3796C29.0074 64.2563 29.343 64.1989 29.6797 64.2109C30.0164 64.1989 30.3519 64.2563 30.6654 64.3796C30.979 64.5029 31.2637 64.6895 31.5019 64.9277C31.7402 65.166 31.9268 65.4507 32.0501 65.7642C32.1734 66.0778 32.2308 66.4133 32.2188 66.75V72.3359C31.9494 72.3359 31.6911 72.4429 31.5006 72.6334C31.3101 72.8239 31.2031 73.0822 31.2031 73.3516C31.2031 73.6209 31.3101 73.8793 31.5006 74.0697C31.6911 74.2602 31.9494 74.3672 32.2188 74.3672H33.2344C33.5037 74.3672 33.7621 74.2602 33.9525 74.0697C34.143 73.8793 34.25 73.6209 34.25 73.3516V66.75C34.2732 65.7516 33.9597 64.7744 33.36 63.9758C32.7604 63.1771 31.9094 62.6035 30.9441 62.3473C31.3453 60.8238 32.0105 58.5844 32.5844 57.6195C32.5844 57.6195 32.6098 57.5637 32.625 57.5383C33.822 57.2477 35.0495 57.1011 36.2812 57.1016C38.0792 57.1804 39.8603 57.484 41.5828 58.0055C42.5984 59.8844 43.1063 62.5758 43.284 63.9316C42.4158 64.1922 41.6712 64.7583 41.1879 65.5252C40.7047 66.2921 40.5153 67.208 40.6548 68.1036C40.7943 68.9993 41.2534 69.8142 41.947 70.3977C42.6407 70.9813 43.5222 71.294 44.4285 71.2781C45.3348 71.2623 46.2048 70.9189 46.8776 70.3114C47.5504 69.704 47.9807 68.8735 48.0888 67.9735C48.1969 67.0735 47.9756 66.1648 47.4657 65.4153C46.9559 64.6658 46.192 64.1261 45.3152 63.8961C45.1197 62.3228 44.7797 60.7708 44.2996 59.2598C46.795 60.6712 48.8715 62.719 50.3176 65.1945C51.7636 67.67 52.5275 70.4847 52.5312 73.3516V78.2062C52.5312 79.5926 51.1551 80.9688 49.5656 80.9688H23.0121ZM44.4062 65.8004C44.7467 65.8004 45.0796 65.9014 45.3627 66.0905C45.6458 66.2797 45.8664 66.5485 45.9967 66.8631C46.127 67.1777 46.1611 67.5238 46.0947 67.8577C46.0282 68.1917 45.8643 68.4984 45.6235 68.7391C45.3828 68.9799 45.076 69.1439 44.7421 69.2103C44.4082 69.2767 44.062 69.2426 43.7475 69.1123C43.4329 68.982 43.164 68.7614 42.9749 68.4783C42.7857 68.1952 42.6848 67.8624 42.6848 67.5219C42.6848 67.0653 42.8661 66.6274 43.189 66.3046C43.5118 65.9818 43.9497 65.8004 44.4062 65.8004Z" fill="#0A3A3B" stroke="#0A3A3B" stroke-width="0.5"/>
<path d="M33.2344 24.0938H39.3281C39.5975 24.0938 39.8558 23.9867 40.0463 23.7963C40.2367 23.6058 40.3438 23.3475 40.3438 23.0781C40.3438 22.8088 40.2367 22.5504 40.0463 22.36C39.8558 22.1695 39.5975 22.0625 39.3281 22.0625H33.2344C32.965 22.0625 32.7067 22.1695 32.5162 22.36C32.3258 22.5504 32.2188 22.8088 32.2188 23.0781C32.2188 23.3475 32.3258 23.6058 32.5162 23.7963C32.7067 23.9867 32.965 24.0938 33.2344 24.0938Z" fill="#0A3A3B" stroke="#0A3A3B" stroke-width="0.5"/>
<path d="M37.8047 34.7578H37.2969V34.25C37.2969 33.9806 37.1899 33.7223 36.9994 33.5318C36.8089 33.3414 36.5506 33.2344 36.2812 33.2344C36.0119 33.2344 35.7536 33.3414 35.5631 33.5318C35.3726 33.7223 35.2656 33.9806 35.2656 34.25V34.7578H34.7578C34.4885 34.7578 34.2301 34.8648 34.0397 35.0553C33.8492 35.2457 33.7422 35.5041 33.7422 35.7734C33.7422 36.0428 33.8492 36.3011 34.0397 36.4916C34.2301 36.6821 34.4885 36.7891 34.7578 36.7891H35.2656V37.2969C35.2656 37.5662 35.3726 37.8246 35.5631 38.015C35.7536 38.2055 36.0119 38.3125 36.2812 38.3125C36.5506 38.3125 36.8089 38.2055 36.9994 38.015C37.1899 37.8246 37.2969 37.5662 37.2969 37.2969V36.7891H37.8047C38.074 36.7891 38.3324 36.6821 38.5228 36.4916C38.7133 36.3011 38.8203 36.0428 38.8203 35.7734C38.8203 35.5041 38.7133 35.2457 38.5228 35.0553C38.3324 34.8648 38.074 34.7578 37.8047 34.7578Z" fill="#0A3A3B" stroke="#0A3A3B" stroke-width="0.5"/>
<path d="M64.4293 36.0629C64.6986 36.0629 64.957 35.9559 65.1474 35.7654C65.3379 35.575 65.4449 35.3166 65.4449 35.0473C65.4449 34.5665 65.6359 34.1053 65.9759 33.7654C66.3159 33.4254 66.777 33.2344 67.2578 33.2344C67.7386 33.2344 68.1997 33.4254 68.5397 33.7654C68.8797 34.1053 69.0707 34.5665 69.0707 35.0473C69.0707 35.7023 68.7305 36.0934 68.0855 36.784C67.3086 37.6168 66.2422 38.7594 66.2422 40.8516C66.2422 41.1209 66.3492 41.3793 66.5396 41.5697C66.7301 41.7602 66.9884 41.8672 67.2578 41.8672C67.5272 41.8672 67.7855 41.7602 67.976 41.5697C68.1664 41.3793 68.2734 41.1209 68.2734 40.8516C68.2734 39.5566 68.8473 38.9473 69.5683 38.1703C70.2894 37.3934 71.0918 36.5352 71.0918 35.0473C71.0918 34.0277 70.6868 33.05 69.9659 32.329C69.2449 31.6081 68.2672 31.2031 67.2476 31.2031C66.2281 31.2031 65.2503 31.6081 64.5294 32.329C63.8085 33.05 63.4035 34.0277 63.4035 35.0473C63.4035 35.1815 63.4301 35.3144 63.4818 35.4383C63.5334 35.5622 63.6092 35.6746 63.7046 35.769C63.7999 35.8635 63.9131 35.9381 64.0375 35.9885C64.1619 36.039 64.2951 36.0642 64.4293 36.0629Z" fill="#0A3A3B" stroke="#0A3A3B" stroke-width="0.5"/>
<path d="M67.2579 45.4218C67.8833 45.4218 68.3903 44.9148 68.3903 44.2894C68.3903 43.664 67.8833 43.157 67.2579 43.157C66.6324 43.157 66.1254 43.664 66.1254 44.2894C66.1254 44.9148 66.6324 45.4218 67.2579 45.4218Z" fill="#0A3A3B" stroke="#0A3A3B" stroke-width="0.5"/>
<path d="M79.9531 53.5469H64.7188C63.9107 53.5469 63.1357 53.8679 62.5643 54.4393C61.9929 55.0107 61.6719 55.7857 61.6719 56.5938V61.8445C61.6725 63.4774 61.2522 65.0829 60.4517 66.5061C59.6512 67.9293 58.4973 69.1221 57.1016 69.9695C56.9244 70.0879 56.7889 70.259 56.7143 70.4586C56.6397 70.6582 56.6298 70.8762 56.686 71.0817C56.7422 71.2873 56.8615 71.47 57.0273 71.6039C57.193 71.7379 57.3966 71.8163 57.6094 71.8281H79.9531C80.7612 71.8281 81.5362 71.5071 82.1076 70.9357C82.679 70.3643 83 69.5893 83 68.7812V56.5938C83 55.7857 82.679 55.0107 82.1076 54.4393C81.5362 53.8679 80.7612 53.5469 79.9531 53.5469ZM80.9688 68.7812C80.9688 69.0506 80.8618 69.3089 80.6713 69.4994C80.4808 69.6899 80.2225 69.7969 79.9531 69.7969H60.4938C62.5464 67.6575 63.6958 64.8094 63.7031 61.8445V56.5938C63.7031 56.3244 63.8101 56.0661 64.0006 55.8756C64.1911 55.6851 64.4494 55.5781 64.7188 55.5781H79.9531C80.2225 55.5781 80.4808 55.6851 80.6713 55.8756C80.8618 56.0661 80.9688 56.3244 80.9688 56.5938V68.7812Z" fill="#0A3A3B" stroke="#0A3A3B" stroke-width="0.5"/>
<path d="M59.6406 49.4844H81.9844C82.2045 49.4803 82.4173 49.4049 82.5908 49.2694C82.7643 49.134 82.8891 48.9458 82.9464 48.7332C83.0037 48.5207 82.9903 48.2953 82.9084 48.091C82.8265 47.8867 82.6804 47.7145 82.4922 47.6004C81.1001 46.7552 79.9486 45.5664 79.1483 44.148C78.3479 42.7296 77.9256 41.1294 77.9219 39.5008V30.1875C77.9219 29.3794 77.6009 28.6044 77.0295 28.033C76.4581 27.4616 75.6831 27.1406 74.875 27.1406H59.6406C58.8325 27.1406 58.0576 27.4616 57.4862 28.033C56.9148 28.6044 56.5938 29.3794 56.5938 30.1875V46.4375C56.5938 47.2456 56.9148 48.0206 57.4862 48.592C58.0576 49.1634 58.8325 49.4844 59.6406 49.4844ZM58.625 30.1875C58.625 29.9181 58.732 29.6598 58.9225 29.4693C59.1129 29.2789 59.3713 29.1719 59.6406 29.1719H74.875C75.1444 29.1719 75.4027 29.2789 75.5932 29.4693C75.7836 29.6598 75.8906 29.9181 75.8906 30.1875V39.5008C75.8979 42.4657 77.0473 45.3137 79.1 47.4531H59.6406C59.3713 47.4531 59.1129 47.3461 58.9225 47.1557C58.732 46.9652 58.625 46.7069 58.625 46.4375V30.1875Z" fill="#0A3A3B" stroke="#0A3A3B" stroke-width="0.5"/>
</svg>
