<svg width="45" height="45" viewBox="0 0 45 45" fill="none" xmlns="http://www.w3.org/2000/svg">
<path d="M24.4878 1.67559C23.88 1.05683 23.2174 0.492821 22.5001 0C21.7827 0.492821 21.1202 1.05683 20.5124 1.67559C18.0866 4.14517 16.5972 7.52373 16.5972 11.2473C16.5972 14.9708 18.0921 18.3658 20.5178 20.8299C21.1256 21.4487 21.7882 22.0072 22.5001 22.5C23.2119 22.0072 23.8745 21.4487 24.4823 20.8299C26.9081 18.3658 28.403 14.9763 28.403 11.2473C28.403 7.51826 26.9136 4.14517 24.4878 1.67559ZM22.5001 19.2912C20.3974 17.2542 19.0887 14.4013 19.0887 11.2473C19.0887 8.09321 20.3974 5.2458 22.5001 3.20881C24.6028 5.2458 25.9115 8.09869 25.9115 11.2473C25.9115 14.3958 24.6028 17.2542 22.5001 19.2912Z" fill="#0B3B3C"/>
<path d="M13.8098 3.47168C12.9721 3.2417 12.1178 3.0829 11.2527 3.01172C10.8803 3.79476 10.5846 4.61612 10.3711 5.4594C9.50588 8.81058 9.90561 12.4794 11.7674 15.7046C13.6291 18.9353 16.6189 21.1201 19.9537 22.0456C20.7915 22.2755 21.6402 22.4289 22.5054 22.5C22.8777 21.717 23.168 20.9011 23.387 20.0633C24.2576 16.7176 23.8579 13.0324 21.9907 9.80169C20.1289 6.57646 17.1501 4.39709 13.8153 3.47168H13.8098ZM20.8955 19.7238C18.0536 19.012 15.4964 17.194 13.9194 14.4616C12.3423 11.7292 12.0521 8.60797 12.8571 5.79342C15.699 6.50527 18.2562 8.32323 19.8332 11.0502C21.4102 13.7771 21.7059 16.9093 20.901 19.7238H20.8955Z" fill="#0B3B3C"/>
<path d="M5.45929 10.3657C4.6215 10.5847 3.80013 10.8749 3.01709 11.2473C3.0828 12.1124 3.2416 12.9721 3.47158 13.8045C4.39699 17.1392 6.57635 20.118 9.80159 21.9798C13.0268 23.8416 16.712 24.2468 20.0632 23.3761C20.901 23.1571 21.7169 22.8669 22.4999 22.4945C22.4288 21.6294 22.2754 20.7806 22.0455 19.9428C21.1255 16.6081 18.9352 13.6183 15.7045 11.7565C12.4738 9.89475 8.81047 9.49501 5.45929 10.3602V10.3657ZM19.7237 20.8956C16.9092 21.7005 13.7825 21.4049 11.0501 19.8278C8.32313 18.2508 6.50517 15.6936 5.79331 12.8517C8.60787 12.0467 11.7345 12.3424 14.4615 13.914C17.1884 15.4855 19.0119 18.0482 19.7237 20.8901V20.8956Z" fill="#0B3B3C"/>
<path d="M1.67559 20.5124C1.05683 21.1202 0.492821 21.7827 0 22.5001C0.492821 23.2174 1.05683 23.88 1.67559 24.4878C4.14517 26.9136 7.52373 28.403 11.2473 28.403C14.9763 28.403 18.3658 26.9081 20.8299 24.4823C21.4487 23.8745 22.0072 23.2119 22.5 22.5001C22.0072 21.7882 21.4487 21.1256 20.8299 20.5178C18.3658 18.0921 14.9763 16.5972 11.2473 16.5972C7.51826 16.5972 4.14517 18.0866 1.67559 20.5124ZM19.2912 22.5001C17.2542 24.6028 14.4013 25.9115 11.2473 25.9115C8.09869 25.9115 5.2458 24.6028 3.20881 22.5001C5.2458 20.3974 8.09869 19.0887 11.2473 19.0887C14.3958 19.0887 17.2542 20.3974 19.2912 22.5001Z" fill="#0B3B3C"/>
<path d="M3.47168 31.19C3.2417 32.0278 3.0829 32.882 3.01172 33.7472C3.79476 34.1196 4.61612 34.4153 5.4594 34.6288C8.81058 35.494 12.4794 35.0942 15.7046 33.2325C18.9298 31.3707 21.1201 28.3809 22.0456 25.0462C22.2755 24.2084 22.4289 23.3596 22.5 22.4945C21.717 22.1221 20.9011 21.8319 20.0633 21.6129C16.7176 20.7422 13.0324 21.1419 9.80169 23.0092C6.57098 24.8764 4.39709 27.8498 3.47168 31.1845V31.19ZM19.7238 24.1043C19.012 26.9463 17.194 29.5035 14.4616 31.0805C11.7346 32.652 8.60797 32.9477 5.79342 32.1428C6.50527 29.3009 8.32323 26.7437 11.0502 25.1666C13.7771 23.5896 16.9093 23.2939 19.7238 24.0989V24.1043Z" fill="#0B3B3C"/>
<path d="M10.3655 39.5406C10.5846 40.3784 10.8748 41.1998 11.2471 41.9829C12.1123 41.9171 12.972 41.7583 13.8043 41.5284C17.1391 40.603 20.1179 38.4236 21.9797 35.1984C23.8415 31.9676 24.2467 28.2879 23.376 24.9367C23.157 24.0989 22.8668 23.283 22.4944 22.5C21.6292 22.5712 20.7805 22.7245 19.9427 22.9545C16.6079 23.8744 13.6182 26.0647 11.7564 29.2955C9.89462 32.5207 9.49489 36.1895 10.3601 39.5406H10.3655ZM20.8955 25.2762C21.7004 28.0908 21.4047 31.2175 19.8277 33.9499C18.2507 36.6768 15.6935 38.4948 12.8515 39.2066C12.0466 36.3921 12.3423 33.2654 13.9139 30.5385C15.4854 27.8115 18.0481 25.9881 20.89 25.2762H20.8955Z" fill="#0B3B3C"/>
<path d="M20.5124 43.3244C21.1202 43.9432 21.7827 44.5072 22.5001 45C23.2174 44.5072 23.88 43.9432 24.4878 43.3244C26.9136 40.8548 28.403 37.4763 28.403 33.7527C28.403 30.0292 26.9081 26.6342 24.4823 24.1701C23.8745 23.5514 23.2119 22.9928 22.5001 22.5C21.7882 22.9928 21.1256 23.5514 20.5178 24.1701C18.0921 26.6342 16.5972 30.0237 16.5972 33.7527C16.5972 37.4818 18.0866 40.8548 20.5124 43.3244ZM22.5001 25.7088C24.6028 27.7458 25.9115 30.5987 25.9115 33.7527C25.9115 36.9013 24.6028 39.7542 22.5001 41.7912C20.3974 39.7542 19.0887 36.9013 19.0887 33.7527C19.0887 30.5987 20.3974 27.7458 22.5001 25.7088Z" fill="#0B3B3C"/>
<path d="M31.1901 41.5284C32.0279 41.7583 32.8822 41.9171 33.7473 41.9883C34.1197 41.2053 34.4154 40.3839 34.6289 39.5406C35.4941 36.1895 35.0944 32.5207 33.2326 29.2955C31.3708 26.0702 28.3811 23.8799 25.0463 22.9545C24.2085 22.7245 23.3598 22.5712 22.4946 22.5C22.1222 23.283 21.832 24.0989 21.613 24.9367C20.7423 28.2824 21.1421 31.9676 23.0093 35.1984C24.8711 38.4236 27.8499 40.603 31.1847 41.5284H31.1901ZM24.1045 25.2762C26.9464 25.9881 29.5036 27.806 31.0806 30.5385C32.6522 33.2654 32.9479 36.3921 32.1429 39.2066C29.301 38.4948 26.7438 36.6768 25.1668 33.9499C23.5897 31.2175 23.2941 28.0908 24.099 25.2762H24.1045Z" fill="#0B3B3C"/>
<path d="M39.5406 34.6343C40.3784 34.4153 41.1998 34.1251 41.9829 33.7527C41.9171 32.8875 41.7583 32.0278 41.5284 31.1955C40.603 27.8608 38.4236 24.8819 35.1984 23.0202C31.9731 21.1584 28.2879 20.7532 24.9367 21.6239C24.0989 21.8429 23.283 22.1331 22.5 22.5055C22.5712 23.3706 22.7245 24.2194 22.9545 25.0572C23.8744 28.3919 26.0647 31.3817 29.2955 33.2435C32.5262 35.1052 36.1895 35.505 39.5406 34.6398V34.6343ZM25.2762 24.1044C28.0908 23.2994 31.2175 23.5951 33.9499 25.1722C36.6768 26.7492 38.4948 29.3064 39.2066 32.1483C36.3921 32.9533 33.2654 32.6576 30.5385 31.086C27.8115 29.5145 25.9881 26.9518 25.2762 24.1099V24.1044Z" fill="#0B3B3C"/>
<path d="M43.3244 24.4878C43.9432 23.88 44.5072 23.2174 45 22.5001C44.5072 21.7827 43.9432 21.1202 43.3244 20.5124C40.8548 18.0866 37.4763 16.5972 33.7527 16.5972C30.0292 16.5972 26.6342 18.0921 24.1701 20.5178C23.5514 21.1256 22.9928 21.7882 22.5 22.5001C22.9928 23.2119 23.5514 23.8745 24.1701 24.4823C26.6342 26.9081 30.0237 28.403 33.7527 28.403C37.4763 28.403 40.8548 26.9136 43.3244 24.4878ZM25.7088 22.5001C27.7458 20.3974 30.5987 19.0887 33.7527 19.0887C36.9013 19.0887 39.7542 20.3974 41.7912 22.5001C39.7542 24.6028 36.9013 25.9115 33.7527 25.9115C30.6042 25.9115 27.7458 24.6028 25.7088 22.5001Z" fill="#0B3B3C"/>
<path d="M41.5284 13.81C41.7583 12.9722 41.9171 12.1179 41.9883 11.2528C41.2053 10.8804 40.3839 10.5847 39.5406 10.3712C36.1895 9.506 32.5207 9.90573 29.2955 11.7675C26.0702 13.6293 23.8799 16.619 22.9545 19.9538C22.7245 20.7916 22.5712 21.6403 22.5 22.5055C23.283 22.8779 24.0989 23.1681 24.9367 23.3871C28.2824 24.2578 31.9676 23.858 35.1984 21.9908C38.4236 20.129 40.603 17.1502 41.5284 13.8154V13.81ZM25.2762 20.8956C25.9881 18.0537 27.806 15.4965 30.5385 13.9195C33.2654 12.3479 36.3921 12.0522 39.2066 12.8572C38.4948 15.6991 36.6768 18.2563 33.9499 19.8333C31.2229 21.4104 28.0908 21.7061 25.2762 20.9011V20.8956Z" fill="#0B3B3C"/>
<path d="M34.6344 5.45941C34.4154 4.62162 34.1252 3.80025 33.7528 3.01721C32.8877 3.08292 32.028 3.24172 31.1957 3.4717C27.8609 4.39711 24.8821 6.57647 23.0203 9.80171C21.1585 13.027 20.7533 16.7122 21.624 20.0633C21.843 20.9011 22.1332 21.717 22.5056 22.5001C23.3707 22.4289 24.2195 22.2756 25.0573 22.0456C28.392 21.1256 31.3818 18.9353 33.2436 15.7046C35.1054 12.4794 35.5051 8.8106 34.6399 5.45941H34.6344ZM24.1045 19.7238C23.2996 16.9093 23.5953 13.7826 25.1723 11.0502C26.7493 8.32325 29.3065 6.50529 32.1484 5.79344C32.9534 8.60799 32.6577 11.7347 31.0861 14.4616C29.5146 17.1885 26.9519 19.012 24.11 19.7238H24.1045Z" fill="#0B3B3C"/>
</svg>
