<?xml version="1.0" encoding="UTF-8"?>
<svg xmlns="http://www.w3.org/2000/svg" id="Layer_2" data-name="Layer 2" viewBox="0 0 13.88 18.01">
  <defs>
    <style>
      .cls-1 {
        fill: #0b3b3c;
        stroke: #0b3b3c;
        stroke-linecap: round;
        stroke-linejoin: round;
        stroke-width: .45px;
      }
    </style>
  </defs>
  <g id="Layer_1-2" data-name="Layer 1">
    <g>
      <path class="cls-1" d="M6.94,11.27c-.17,0-.3.14-.3.3s.14.3.3.3.3-.14.3-.3-.14-.3-.3-.3h0Z"></path>
      <circle class="cls-1" cx="4.81" cy="10.5" r=".3"></circle>
      <circle class="cls-1" cx="9.07" cy="10.5" r=".3"></circle>
      <path class="cls-1" d="M13.07,6.06c.55-.81.71-1.79.48-2.91-.19-.87-.28-1.77-.24-2.66,0-.14-.12-.26-.26-.26s-.26.12-.26.26h0c-.03.93.05,1.86.26,2.77.18.9.08,1.69-.29,2.34-.15-.18-.32-.35-.5-.51.22-.54.27-1.13.13-1.7-.21-.95-.3-1.93-.27-2.9,0-.14-.12-.26-.26-.26s-.26.12-.26.26h0c-.03,1.01.06,2.02.28,3.01.1.42.08.85-.05,1.26-.16-.11-.32-.21-.48-.3-1.15-.64-2.75-1.01-4.38-1.01s-3.23.37-4.38,1.01c-.17.09-.33.19-.48.3-.13-.41-.15-.84-.05-1.26.22-.99.31-2,.28-3.01,0-.14-.12-.26-.26-.26s-.26.12-.26.26h0c.03.97-.06,1.95-.27,2.9-.14.57-.09,1.16.13,1.7-.18.16-.35.33-.5.51-.38-.66-.48-1.44-.29-2.34.2-.91.29-1.84.26-2.77,0-.14-.12-.26-.26-.26s-.26.12-.26.26h0c.03.89-.05,1.79-.24,2.66-.23,1.12-.07,2.1.48,2.91-.4.67-.6,1.43-.59,2.21,0,2.86,2.07,4.68,3.8,5.71.62.36,1.04.98,1.15,1.69.1.62.15,1.24.15,1.86,0,.14.12.26.26.26s.26-.12.26-.26h0c0-.65-.05-1.3-.15-1.95-.14-.86-.66-1.61-1.4-2.05-1.62-.95-3.54-2.64-3.54-5.26,0-3.18,3.34-4.31,6.19-4.31s6.19,1.13,6.19,4.31c0,2.62-1.93,4.3-3.54,5.26-.75.44-1.26,1.19-1.4,2.05-.11.64-.16,1.3-.15,1.95,0,.14.12.26.26.26s.26-.12.26-.26h0c0-.62.05-1.25.15-1.86.12-.71.54-1.32,1.15-1.69,1.73-1.02,3.8-2.84,3.8-5.71.01-.78-.19-1.54-.59-2.21Z"></path>
      <path class="cls-1" d="M9.36,12.79c1.98-1.21,3.02-2.78,3.02-4.52,0-3.46-4.89-3.56-5.45-3.56s-5.45.1-5.45,3.56c0,1.74,1.05,3.31,3.02,4.52.83.5,1.38,1.36,1.51,2.32.1.8.15,1.61.15,2.42,0,.14.12.26.26.26s.26-.12.26-.26h0c0-.83-.05-1.66-.15-2.48-.14-1.12-.79-2.12-1.75-2.7-1.72-1.06-2.42-2.22-2.67-3.19.64-.26,1.33-.36,2.01-.29.4.05.79.18,1.14.36.46.21.93.42,1.66.42s1.21-.22,1.66-.42c.36-.19.74-.31,1.14-.36.68-.07,1.37.04,2.01.29-.37,1.48-1.6,2.53-2.67,3.19-.97.59-1.61,1.58-1.75,2.7-.1.82-.15,1.65-.15,2.48,0,.14.12.26.26.26s.26-.12.26-.26h0c0-.81.05-1.61.15-2.42.12-.96.68-1.82,1.51-2.32ZM9.69,8.34c-.46.06-.9.2-1.3.41-.42.19-.82.38-1.45.38s-1.02-.18-1.45-.38c-.41-.21-.85-.35-1.3-.41-.73-.07-1.47.03-2.15.29-.01-.13-.02-.25-.02-.36,0-2.95,4.42-3.04,4.92-3.04s4.92.09,4.92,3.04c0,.12,0,.24-.02.36-.69-.26-1.42-.36-2.16-.29h0Z"></path>
    </g>
  </g>
</svg>
