<?xml version="1.0" encoding="UTF-8"?>
<svg xmlns="http://www.w3.org/2000/svg" width="66" height="66" viewBox="0 0 66 66" fill="none">
  <g clip-path="url(#clip0_88_9213)">
    <path fill-rule="evenodd" clip-rule="evenodd" d="M49.8983 61.2015C48.9886 61.4447 48.4467 62.3844 48.6905 63.2939C48.9342 64.2035 49.8729 64.7455 50.7826 64.5007L61.027 61.7568C61.9367 61.5123 62.4786 60.5741 62.2339 59.6642C61.9908 58.7544 61.0511 58.2122 60.1415 58.4563L49.8983 61.2015ZM50.3413 66C48.951 66 47.6751 65.0712 47.2986 63.6662C46.8491 61.9894 47.8481 60.2589 49.5254 59.8093L59.7692 57.0644C61.4474 56.6148 63.1765 57.614 63.6269 59.2912C63.8429 60.101 63.7304 60.9494 63.3086 61.6788C62.8869 62.4098 62.2098 62.9306 61.3993 63.1484L51.1556 65.8935C50.8837 65.9656 50.6104 66.0002 50.3413 66Z" fill="#0B3B3C"></path>
    <path fill-rule="evenodd" clip-rule="evenodd" d="M56.7593 59.3373C56.4411 59.3373 56.1498 59.1252 56.0638 58.8034L54.3176 52.2867C54.2147 51.9024 54.4426 51.5073 54.8271 51.4044C55.2114 51.3015 55.6066 51.5297 55.7095 51.9138L57.4557 58.4304C57.5586 58.8146 57.3305 59.2099 56.9463 59.313C56.8838 59.3294 56.821 59.3375 56.7593 59.3373ZM52.9079 60.3699C52.5899 60.3699 52.2986 60.1568 52.2124 59.8353L50.4664 53.3187C50.3633 52.9341 50.5914 52.5393 50.9757 52.4362C51.3604 52.3331 51.7552 52.5614 51.8582 52.9458L53.6043 59.4623C53.7074 59.8468 53.4792 60.2423 53.0947 60.3445C53.0323 60.3609 52.9696 60.3699 52.9079 60.3699Z" fill="#0B3B3C"></path>
    <path fill-rule="evenodd" clip-rule="evenodd" d="M44.5975 50.6084C44.1591 50.7257 43.7917 51.009 43.5626 51.4058C43.3336 51.8025 43.2721 52.2623 43.3895 52.7005C43.6333 53.6102 44.5719 54.1521 45.4816 53.9085L60.3217 49.9323C61.2313 49.6884 61.7732 48.7499 61.5285 47.84C61.4114 47.402 61.1278 47.0346 60.7315 46.8053C60.3353 46.5762 59.8753 46.5148 59.4369 46.6321L44.5975 50.6084ZM45.0404 55.4079C43.6498 55.4079 42.3741 54.479 41.9976 53.0735C41.7805 52.2636 41.8932 51.4155 42.3147 50.6853C42.7362 49.9553 43.4143 49.4336 44.2243 49.2165L59.0641 45.2402C59.8741 45.0234 60.7225 45.1359 61.4521 45.5575C62.183 45.979 62.7039 46.6572 62.9214 47.4672C63.3703 49.1444 62.3721 50.8746 60.694 51.3242L45.8546 55.3004C45.5825 55.3731 45.3092 55.408 45.0404 55.4079Z" fill="#0B3B3C"></path>
    <path fill-rule="evenodd" clip-rule="evenodd" d="M46.7906 49.9954C46.4725 49.9954 46.1813 49.783 46.0951 49.4612L38.9364 22.7443C38.7473 22.0382 38.8452 21.2988 39.2128 20.6624C39.5802 20.0258 40.1716 19.5712 40.8777 19.3821L47.0451 17.7293C48.5071 17.3378 50.0157 18.2086 50.4075 19.6708L57.5662 46.3875C57.6693 46.7719 57.4412 47.167 57.0566 47.2701C56.6722 47.3727 56.2772 47.145 56.1743 46.7605L49.0156 20.0435C48.8295 19.3491 48.1126 18.9353 47.418 19.1213L41.2506 20.7739C40.9161 20.8634 40.6358 21.0799 40.4607 21.3829C40.2858 21.686 40.2387 22.0371 40.3282 22.3714L47.487 49.088C47.5899 49.4726 47.3618 49.8677 46.9775 49.9706C46.9151 49.9875 46.8524 49.9954 46.7906 49.9954Z" fill="#0B3B3C"></path>
    <path fill-rule="evenodd" clip-rule="evenodd" d="M41.7704 16.6992C41.4521 16.6992 41.161 16.4869 41.0747 16.1651L37.4916 2.79324C37.1691 1.58954 37.8159 0.366801 38.9333 0.0673211C39.4879 -0.0811245 40.0695 0.0175347 40.5708 0.345181C41.047 0.656384 41.3929 1.14009 41.5447 1.70723L45.1275 15.0778C45.2306 15.4621 45.0024 15.8574 44.6179 15.9604C44.2338 16.0631 43.8384 15.8353 43.7355 15.4509L40.1528 2.08009C40.0938 1.85902 39.9587 1.66673 39.7822 1.55132C39.6935 1.49301 39.5131 1.40364 39.3063 1.45921C38.9624 1.55117 38.7687 1.99163 38.8835 2.42038L42.4668 15.7922C42.5697 16.1763 42.3416 16.5714 41.9572 16.6745C41.8947 16.6913 41.832 16.6992 41.7704 16.6992Z" fill="#0B3B3C"></path>
    <path fill-rule="evenodd" clip-rule="evenodd" d="M40.9878 20.819C40.6697 20.819 40.3785 20.6067 40.2921 20.2849L39.8034 18.46C39.6235 17.7888 39.7166 17.086 40.0659 16.4811C40.4153 15.8761 40.9773 15.444 41.6486 15.2642L44.2425 14.569C44.9136 14.3894 45.6164 14.4825 46.2213 14.8318C46.8262 15.1811 47.2584 15.743 47.4382 16.4143L47.9273 18.2387C48.0303 18.6232 47.8021 19.0184 47.4178 19.1213C47.0337 19.2246 46.6385 18.9963 46.5354 18.6119L46.0465 16.7873C45.9661 16.4877 45.7725 16.2366 45.5008 16.0798C45.2294 15.923 44.9148 15.881 44.6153 15.961L42.0213 16.6561C41.7219 16.7363 41.4707 16.9301 41.3139 17.2016C41.1572 17.4731 41.1151 17.7878 41.1952 18.0871L41.6842 19.9117C41.7873 20.2961 41.559 20.6912 41.1746 20.7943C41.1122 20.8109 41.0494 20.819 40.9878 20.819Z" fill="#0B3B3C"></path>
    <path fill-rule="evenodd" clip-rule="evenodd" d="M44.3921 41.0443C44.0739 41.0443 43.783 40.8322 43.6966 40.5102C43.5936 40.1257 43.8218 39.7308 44.2062 39.6277L54.2854 36.9269C54.6696 36.8242 55.0648 37.0521 55.1678 37.4365C55.2708 37.8207 55.0428 38.2159 54.6582 38.319L44.5791 41.0195C44.5167 41.0364 44.4538 41.0444 44.3921 41.0443Z" fill="#0B3B3C"></path>
    <path fill-rule="evenodd" clip-rule="evenodd" d="M40.4711 26.4099C40.1529 26.4099 39.8618 26.1975 39.7754 25.8757C39.6725 25.4912 39.9006 25.0963 40.285 24.9934L46.1004 23.4352C46.4847 23.3325 46.8798 23.5604 46.9827 23.9447C47.0858 24.329 46.8576 24.724 46.4732 24.8271L40.6579 26.3851C40.5955 26.402 40.5327 26.4099 40.4711 26.4099Z" fill="#0B3B3C"></path>
    <path fill-rule="evenodd" clip-rule="evenodd" d="M41.75 31.1835C41.4319 31.1835 41.1407 30.9714 41.0545 30.6494C40.9516 30.265 41.1796 29.8699 41.5639 29.767L47.3793 28.2085C47.7638 28.1056 48.1589 28.3338 48.2618 28.7183C48.3649 29.1026 48.1368 29.4976 47.7524 29.6007L41.9369 31.1587C41.8747 31.1755 41.8118 31.1837 41.75 31.1835Z" fill="#0B3B3C"></path>
    <path fill-rule="evenodd" clip-rule="evenodd" d="M43.0291 35.9571C42.7109 35.9571 42.4198 35.7448 42.3336 35.423C42.2305 35.0385 42.4586 34.6434 42.843 34.5405L48.6583 32.9822C49.0427 32.8793 49.4377 33.1074 49.5408 33.4917C49.6437 33.8761 49.4156 34.2712 49.0312 34.3743L43.2159 35.9323C43.1535 35.949 43.0908 35.9571 43.0291 35.9571Z" fill="#0B3B3C"></path>
    <path fill-rule="evenodd" clip-rule="evenodd" d="M27.133 66.0001H8.84452C5.21712 66.0001 2.26587 63.0493 2.26587 59.4216L2.26602 30.9188C2.26602 27.2912 5.21712 24.3401 8.84452 24.3401L10.8632 24.34C11.2609 24.34 11.5835 24.6627 11.5835 25.0606C11.5837 25.4584 11.2609 25.781 10.8631 25.781L8.84452 25.7809C6.01157 25.7809 3.70678 28.0858 3.70678 30.9189V59.4216C3.70678 62.2553 6.01157 64.5593 8.84452 64.5593L27.133 64.5591C29.9658 64.5591 32.2706 62.2553 32.2706 59.4216V30.9188C32.2706 28.0858 29.9658 25.781 27.133 25.781L25.1146 25.7809C24.7168 25.7809 24.3942 25.4586 24.3942 25.0606C24.3942 24.6626 24.7166 24.3401 25.1146 24.3401L27.133 24.34C30.7606 24.34 33.7117 27.2914 33.7117 30.9189V59.4216C33.7117 63.0493 30.7604 66.0002 27.133 66.0001Z" fill="#0B3B3C"></path>
    <path fill-rule="evenodd" clip-rule="evenodd" d="M10.8632 25.7808C10.4652 25.7808 10.1426 25.4585 10.1426 25.0605V19.315C10.1426 18.917 10.4652 18.5945 10.863 18.5945C11.2609 18.5944 11.5835 18.9172 11.5835 19.315L11.5836 25.0605C11.5836 25.4584 11.2609 25.781 10.8632 25.7808ZM25.1146 25.7808C24.7167 25.7808 24.3941 25.4585 24.3941 25.0605V19.315C24.3941 18.917 24.7166 18.5945 25.1146 18.5945C25.5124 18.5944 25.835 18.9172 25.835 19.315V25.0605C25.835 25.4584 25.5124 25.781 25.1146 25.7808Z" fill="#0B3B3C"></path>
    <path fill-rule="evenodd" clip-rule="evenodd" d="M9.45263 18.5944H26.5249V16.4422C26.5249 15.2554 25.5595 14.2898 24.3727 14.2898H11.6049C10.4182 14.2898 9.45263 15.2554 9.45263 16.4423V18.5944ZM27.2456 20.0353H8.73217C8.33434 20.0353 8.01172 19.713 8.01172 19.315V16.4422C8.01172 14.4608 9.62361 12.849 11.6047 12.849L24.3727 12.8489C26.3541 12.8489 27.9659 14.4609 27.9659 16.4423L27.966 19.315C27.966 19.7129 27.6434 20.0355 27.2456 20.0353Z" fill="#0B3B3C"></path>
    <path fill-rule="evenodd" clip-rule="evenodd" d="M32.991 37.4318H2.98623C2.5884 37.4318 2.26562 37.1092 2.26562 36.7112C2.26578 36.3132 2.5884 35.9907 2.98623 35.9907H32.991C33.389 35.9907 33.7116 36.3133 33.7116 36.7112C33.7116 37.1092 33.389 37.4319 32.991 37.4318Z" fill="#0B3B3C"></path>
    <path fill-rule="evenodd" clip-rule="evenodd" d="M32.991 54.3496H2.98623C2.5884 54.3496 2.26562 54.027 2.26562 53.6291C2.26578 53.2311 2.5884 52.9087 2.98623 52.9087L32.991 52.9085C33.389 52.9085 33.7116 53.2311 33.7116 53.6291C33.7116 54.0268 33.389 54.3496 32.991 54.3496Z" fill="#0B3B3C"></path>
    <path fill-rule="evenodd" clip-rule="evenodd" d="M17.9887 50.0404C17.5907 50.0404 17.2681 49.7176 17.2681 49.3196V40.382C17.2681 39.9842 17.5907 39.6617 17.9885 39.6617C18.3865 39.6615 18.709 39.9843 18.709 40.3821V49.3196C18.709 49.7175 18.3865 50.0404 17.9887 50.0404Z" fill="#0B3B3C"></path>
    <path fill-rule="evenodd" clip-rule="evenodd" d="M22.4573 45.5713H13.5197C13.1218 45.5713 12.7991 45.2488 12.7991 44.8509C12.7991 44.453 13.1217 44.1304 13.5197 44.1304L22.4573 44.1302C22.8552 44.1302 23.1778 44.453 23.1778 44.8509C23.1779 45.2487 22.8552 45.5713 22.4573 45.5713Z" fill="#0B3B3C"></path>
  </g>
  <defs>
    <clipPath id="clip0_88_9213">
      <rect width="66" height="66" fill="white"></rect>
    </clipPath>
  </defs>
</svg>
