<svg width="100" height="100" viewBox="0 0 100 100" fill="none" xmlns="http://www.w3.org/2000/svg">
<rect width="100" height="100" rx="6" fill="#DAE7D6"/>
<path d="M54.2333 46.0305H56.1376V48.6941H54.2333V46.0305Z" fill="#0A3A3B" stroke="#0A3A3B" stroke-width="0.5"/>
<path d="M58.6087 46.0305H60.513V48.6941H58.6087V46.0305Z" fill="#0A3A3B" stroke="#0A3A3B" stroke-width="0.5"/>
<path d="M62.9841 46.0305H64.8884V48.6941H62.9841V46.0305Z" fill="#0A3A3B" stroke="#0A3A3B" stroke-width="0.5"/>
<path d="M58.6087 51.1504H60.513V53.8141H58.6087V51.1504Z" fill="#0A3A3B" stroke="#0A3A3B" stroke-width="0.5"/>
<path d="M62.9841 51.1504H64.8884V53.8141H62.9841V51.1504Z" fill="#0A3A3B" stroke="#0A3A3B" stroke-width="0.5"/>
<path d="M58.6087 23.8794H60.513V26.5431H58.6087V23.8794Z" fill="#0A3A3B" stroke="#0A3A3B" stroke-width="0.5"/>
<path d="M34.8611 46.0305H36.7654V48.6941H34.8611V46.0305Z" fill="#0A3A3B" stroke="#0A3A3B" stroke-width="0.5"/>
<path d="M39.2366 46.0305H41.1409V48.6941H39.2366V46.0305Z" fill="#0A3A3B" stroke="#0A3A3B" stroke-width="0.5"/>
<path d="M43.6122 46.0305H45.5165V48.6941H43.6122V46.0305Z" fill="#0A3A3B" stroke="#0A3A3B" stroke-width="0.5"/>
<path d="M34.8611 51.1504H36.7654V53.8141H34.8611V51.1504Z" fill="#0A3A3B" stroke="#0A3A3B" stroke-width="0.5"/>
<path d="M39.2366 51.1504H41.1409V53.8141H39.2366V51.1504Z" fill="#0A3A3B" stroke="#0A3A3B" stroke-width="0.5"/>
<path d="M46.9376 34.2046C47.4634 34.2046 47.8897 33.7784 47.8897 33.2524V32.5203C47.8897 31.9943 47.4634 31.5681 46.9376 31.5681C46.4117 31.5681 45.9854 31.9943 45.9854 32.5203V33.2524C45.9854 33.7782 46.4116 34.2046 46.9376 34.2046Z" fill="#0A3A3B" stroke="#0A3A3B" stroke-width="0.5"/>
<path d="M52.9414 34.2046C53.4672 34.2046 53.8936 33.7784 53.8936 33.2524V32.5203C53.8936 31.9943 53.4672 31.5681 52.9414 31.5681C52.4156 31.5681 51.9893 31.9943 51.9893 32.5203V33.2524C51.9893 33.7782 52.4156 34.2046 52.9414 34.2046Z" fill="#0A3A3B" stroke="#0A3A3B" stroke-width="0.5"/>
<path d="M46.6448 36.9722C46.2729 37.344 46.2729 37.9469 46.6448 38.3186C47.5255 39.1994 48.6955 39.6844 49.9395 39.6844C51.1835 39.6844 52.3536 39.1994 53.2342 38.3186C53.606 37.9468 53.606 37.3439 53.2342 36.9722C52.8623 36.6005 52.2594 36.6003 51.8877 36.9723C51.3667 37.4933 50.6748 37.7801 49.9395 37.7801C49.2042 37.7801 48.5123 37.4932 47.9913 36.9723C47.6195 36.6006 47.0166 36.6005 46.6448 36.9722Z" fill="#0A3A3B" stroke="#0A3A3B" stroke-width="0.5"/>
<path d="M74.4939 65.6196H73.737C74.8962 64.4534 75.6138 62.8478 75.6138 61.0775C75.6138 58.0086 73.4578 55.4357 70.5813 54.7892V51.3887C70.5813 50.8627 70.155 50.4365 69.6292 50.4365C69.1033 50.4365 68.677 50.8627 68.677 51.3887V54.6516C65.351 54.9032 62.7211 57.6881 62.7211 61.0774C62.7211 62.8477 63.4388 64.4533 64.598 65.6195H63.8411C62.9702 65.6195 62.1112 65.8352 61.3446 66.236C60.1833 64.7865 58.4001 63.8557 56.4027 63.8557H54.9563C56.5273 62.4657 57.5205 60.4367 57.5205 58.179V55.3622C57.5205 51.5804 54.5969 48.4705 50.8916 48.1689V46.8742C50.9741 46.801 51.0491 46.7181 51.1137 46.6258L51.9447 45.4375C52.0356 45.3076 52.1774 45.2142 52.3446 45.1746C57.0393 44.0599 60.3183 39.9083 60.3183 35.0788C60.3183 33.8947 60.1202 32.7452 59.7448 31.6633H60.5129V28.9997H58.6086V29.3689C58.1815 28.7242 57.6811 28.1206 57.1061 27.5715C56.7095 27.1928 56.2888 26.8502 55.848 26.5433H56.1375V23.8795H54.2332V25.6257C53.1835 25.1478 52.0577 24.8494 50.8915 24.7438V20.2217C50.8915 20.0466 51.0339 19.9043 51.2089 19.9043H63.1938C63.3687 19.9043 63.5112 20.0466 63.5112 20.2217V39.9212C63.5112 40.7963 64.223 41.5082 65.0981 41.5082H68.3594C68.5343 41.5082 68.6768 41.6505 68.6768 41.8255V46.9453C68.6768 47.4713 69.1031 47.8975 69.6289 47.8975C70.1547 47.8975 70.581 47.4713 70.581 46.9453V41.8255C70.581 40.6006 69.5843 39.6039 68.3594 39.6039H65.4155V20.2217C65.4155 18.9967 64.4187 18 63.1938 18H51.209C49.984 18 48.9873 18.9967 48.9873 20.2217V24.7443C46.064 25.014 43.4321 26.5427 41.6977 28.8019H36.9887C35.7638 28.8019 34.7671 29.7986 34.7671 31.0236V37.6897H31.9811C30.7561 37.6897 29.7594 38.6864 29.7594 39.9113V54.7019C26.6548 55.1636 24.2652 57.8464 24.2652 61.0775C24.2652 62.8478 24.9829 64.4534 26.1421 65.6196H25.3852C22.4158 65.6196 20 68.0354 20 71.0048V77.1871C20 78.843 21.3472 80.1901 23.0032 80.1901H24.8028C25.3286 80.1901 25.7549 79.764 25.7549 79.238C25.7549 78.712 25.3286 78.2859 24.8028 78.2859H23.0031C22.3971 78.2859 21.9042 77.7929 21.9042 77.1871V71.0048C21.9042 69.0854 23.4657 67.5239 25.3851 67.5239H36.0379C36.5825 67.5239 37.1043 67.6496 37.5796 67.8862C37.3 68.6 37.1449 69.3756 37.1449 70.1873V78.2859H29.2461C28.7203 78.2859 28.294 78.712 28.294 79.238C28.294 79.764 28.7203 80.1901 29.2461 80.1901H37.1517C37.2518 81.7564 38.557 83 40.1481 83H59.731C61.322 83 62.6272 81.7564 62.7273 80.1901H76.8761C78.532 80.1901 79.8792 78.843 79.8792 77.1871V71.0048C79.8791 68.0354 77.4633 65.6196 74.4939 65.6196ZM55.6162 58.1791C55.6162 61.3093 53.0696 63.8559 49.9395 63.8559C46.8093 63.8559 44.2628 61.3093 44.2628 58.1791V57.1582H48.7595C49.9908 57.1582 51.1618 56.659 52.0136 55.7955C52.8655 56.6591 54.0365 57.1582 55.2678 57.1582H55.6162V58.1791ZM51.2156 65.7601L50.5282 68.2191H49.346L48.6617 65.7601H51.2156ZM55.6135 55.2539H55.268C54.4018 55.2539 53.5866 54.8301 53.0874 54.1202C52.8418 53.7708 52.4403 53.5624 52.0138 53.5624C51.5872 53.5624 51.1858 53.7708 50.9401 54.1202C50.4408 54.8301 49.6257 55.2539 48.7596 55.2539H44.2656C44.3237 52.3731 46.6836 50.0472 49.578 50.0472H50.3012C53.1954 50.0473 55.5553 52.3732 55.6135 55.2539ZM30.7114 65.6196C28.2069 65.6196 26.1694 63.582 26.1694 61.0775C26.1694 58.5729 28.207 56.5355 30.7114 56.5355C33.2159 56.5355 35.2535 58.5731 35.2535 61.0775C35.2535 63.582 33.2161 65.6196 30.7114 65.6196ZM38.5344 66.2361C37.7677 65.8353 36.9088 65.6196 36.0379 65.6196H35.281C36.4402 64.4534 37.1578 62.8478 37.1578 61.0775C37.1578 57.8464 34.7682 55.1636 31.6636 54.7019V39.9113C31.6636 39.7363 31.806 39.594 31.9809 39.594H35.0843C35.9594 39.594 36.6712 38.8821 36.6712 38.007V31.0236C36.6712 30.8485 36.8137 30.7062 36.9886 30.7062H40.5356C40.1689 31.4852 39.8962 32.317 39.7349 33.1878C39.639 33.7049 39.9805 34.2016 40.4976 34.2975C41.0148 34.3937 41.5114 34.0518 41.6073 33.5347C42.3173 29.7037 45.652 26.7929 49.5365 26.6135C51.8787 26.5034 54.1006 27.3345 55.791 28.9487C57.4825 30.5639 58.414 32.7409 58.414 35.0788C58.414 39.0222 55.7373 42.4119 51.905 43.3218C51.2832 43.4692 50.743 43.8331 50.3841 44.3462L49.9395 44.9821L49.4954 44.3471C49.1365 43.8341 48.5945 43.4696 47.969 43.3205C45.0485 42.6252 42.6948 40.4063 41.8264 37.5296C41.6743 37.026 41.1428 36.7404 40.6398 36.8932C40.1363 37.045 39.8514 37.5764 40.0034 38.0798C41.0669 41.6034 43.9502 44.3213 47.5279 45.173C47.6991 45.2138 47.8437 45.3081 47.935 45.4385L48.7655 46.626C48.83 46.7183 48.9051 46.8011 48.9875 46.8743V48.169C45.2821 48.4707 42.3586 51.5805 42.3586 55.3623V58.1791C42.3586 60.4367 43.3518 62.4658 44.9228 63.8559H43.4763C41.4788 63.8559 39.6956 64.7865 38.5344 66.2361ZM46.1729 81.0957H40.1481C39.5421 81.0957 39.0492 80.6027 39.0492 79.9969V70.1873C39.0492 67.7461 41.0352 65.7601 43.4763 65.7601H46.6852L47.6543 69.2427L46.1729 81.0957ZM48.0919 81.0957L49.4633 70.1234H50.4105L51.7865 81.0957H48.0919ZM60.8298 79.9969C60.8298 80.6027 60.3368 81.0957 59.7309 81.0957H53.7057L52.2192 69.243L53.1929 65.7601H56.4027C58.8438 65.7601 60.8298 67.7462 60.8298 70.1873V79.9969ZM69.1674 56.5354C71.672 56.5354 73.7095 58.5729 73.7095 61.0774C73.7095 63.582 71.672 65.6195 69.1674 65.6195C66.6629 65.6195 64.6254 63.5819 64.6254 61.0774C64.6254 58.5729 66.6629 56.5354 69.1674 56.5354ZM77.9748 77.1871C77.9748 77.7929 77.4818 78.2859 76.876 78.2859H62.7341V70.1873C62.7341 69.3755 62.5788 68.6 62.2994 67.8862C62.7747 67.6496 63.2965 67.5239 63.8411 67.5239H74.4939C76.4133 67.5239 77.9748 69.0854 77.9748 71.0048V77.1871Z" fill="#0A3A3B" stroke="#0A3A3B" stroke-width="0.5"/>
</svg>
